SplineFontDB: 3.0
FontName: ParibartanB
FullName: ParibartanB
FamilyName: Paribartan
Weight: Regular
Copyright: Copyright 2024 The Paribartan Project Authors (github.com/mitradranirban/paribartan)
Version: 0.100
StyleMapFamilyName: ParibartanB
ItalicAngle: 0
UnderlinePosition: 0
UnderlineWidth: 0
Ascent: 800
Descent: 200
InvalidEm: 1
UFOAscent: 1200
UFODescent: -400
LayerCount: 2
Layer: 0 0 "Back" 1
Layer: 1 1 "public.default" 0 "glyphs"
StyleMap: 0x0040
FSType: 0
OS2Version: 0
OS2_WeightWidthSlopeOnly: 0
OS2_UseTypoMetrics: 0
CreationTime: 1734972326
ModificationTime: 1734972326
PfmFamily: 16
TTFWeight: 400
TTFWidth: 5
LineGap: 0
VLineGap: 0
Panose: 2 0 5 3 0 0 0 0 0 0
OS2TypoAscent: 1200
OS2TypoAOffset: 0
OS2TypoDescent: -400
OS2TypoDOffset: 0
OS2TypoLinegap: 0
OS2WinAscent: 1240
OS2WinAOffset: 0
OS2WinDescent: 440
OS2WinDOffset: 0
HheadAscent: 1200
HheadAOffset: 0
HheadDescent: -400
HheadDOffset: 0
OS2SubXSize: 650
OS2SubYSize: 700
OS2SubXOff: 0
OS2SubYOff: 140
OS2SupXSize: 650
OS2SupYSize: 700
OS2SupXOff: 0
OS2SupYOff: 480
OS2StrikeYSize: 49
OS2StrikeYPos: 258
OS2CapHeight: 710
OS2XHeight: 570
OS2Vendor: 'anir'
OS2CodePages: 00000093.00000000
OS2UnicodeRanges: 2003806f.00002002.00000000.00000000
Lookup: 4 0 0 "nuktNuktaFormsinBengali2lookup0" { "nuktNuktaFormsinBengali2lookup0 subtable"  } ['nukt' ('bng2' <'dflt' > 'DFLT' <'dflt' > ) ]
Lookup: 4 0 0 "rphfRephForminBengali2lookup0" { "rphfRephForminBengali2lookup0 subtable"  } ['rphf' ('bng2' <'dflt' > 'DFLT' <'dflt' > ) ]
DEI: 91125
LangName: 1033 "Copyright 2024 The Paribartan Project Authors (github.com/mitradranirban/paribartan)" "" "" "" "" "Version 0.100" "" "" "Dr Anirban Mitra" "Dr Anirban Mitra" "Variable Color Bengali Font" "https://fonts.atipra.in" "https://github.com/mitradranirban" "This Font Software is licensed under the SIL Open Font License, Version 1.1. This license is available with a FAQ at: https://openfontlicense.org+ACIA" "https://openfontlicense.org"
PickledDataWithLists: "(dp0
."

StartChar: .notdef
Encoding: 0 -1 0
GlifName: _notdef
Width: 1000
VWidth: 0
Flags: W
LayerCount: 2
Fore
SplineSet
208 794 m 257
 668 794 l 257
 674 794 674 794 678.5 789.5 c 128
 683 785 683 785 683 779 c 257
 683 15 l 257
 683 9 683 9 678.5 4.5 c 128
 674 0 674 0 668 0 c 257
 208 0 l 257
 202 0 202 0 197.5 4.5 c 128
 193 9 193 9 193 15 c 257
 193 779 l 257
 193 785 193 785 197.5 789.5 c 128
 202 794 202 794 208 794 c 257
258 732 m 257
 252 732 252 732 247.5 727.5 c 128
 243 723 243 723 243 717 c 257
 243 81 l 257
 243 75 243 75 247.5 70.5 c 128
 252 66 252 66 258 66 c 257
 620 66 l 257
 626 66 626 66 630.5 70.5 c 128
 635 75 635 75 635 81 c 257
 635 717 l 257
 635 723 635 723 630.5 727.5 c 128
 626 732 626 732 620 732 c 257
 258 732 l 257
371 621 m 257
 375 621 375 621 384 621 c 257
 438 621 438 621 475.5 583.5 c 128
 513 546 513 546 513 493 c 257
 513 457 513 457 495 427 c 128
 477 397 477 397 447 380 c 257
 447 322 l 257
 371 322 l 257
 371 364 l 257
 371 427 l 257
 371 441 l 257
 377 439 377 439 384 439 c 257
 406 439 406 439 422 454.5 c 128
 438 470 438 470 438 493 c 257
 438 515 438 515 422 530.5 c 128
 406 546 406 546 384 546 c 257
 377 546 377 546 371 544 c 257
 371 621 l 257
371 206 m 257
 371 277 l 257
 447 277 l 257
 447 206 l 257
 371 206 l 257
EndSplineSet
EndChar

StartChar: A
Encoding: 2 65 2
GlifName: A_
Width: 752
VWidth: 0
GlyphClass: 2
Flags: W
LayerCount: 2
Fore
SplineSet
407 367 m 257
 357 535 l 257
 297 367 l 257
 407 367 l 257
550 0 m 257
 461 228 l 257
 461 227 l 257
 261 227 l 257
 202 0 l 257
 50 0 l 257
 266 769 l 257
 418 769 l 257
 702 0 l 257
 550 0 l 257
EndSplineSet
EndChar

StartChar: AE
Encoding: 6 198 6
GlifName: A_E_
Width: 1024
VWidth: 0
GlyphClass: 2
Flags: W
LayerCount: 2
Fore
SplineSet
865 485 m 257
 866 333 l 257
 558 333 l 257
 558 149 l 257
 973 149 l 257
 974 -3 l 257
 407 -3 l 257
 407 -2 l 257
 406 -2 l 257
 406 227 l 257
 261 227 l 257
 202 0 l 257
 50 0 l 257
 250 778 l 257
 973 778 l 257
 974 626 l 257
 558 626 l 257
 558 485 l 257
 865 485 l 257
407 367 m 257
 341 535 l 257
 297 367 l 257
 407 367 l 257
EndSplineSet
EndChar

StartChar: B
Encoding: 46 66 46
GlifName: B_
Width: 534
VWidth: 0
GlyphClass: 2
Flags: W
LayerCount: 2
Fore
SplineSet
202 454 m 257
 214 451 214 451 226 451 c 257
 271 451 271 451 302 482 c 128
 333 513 333 513 333 557 c 257
 333 602 333 602 302 633 c 128
 271 664 271 664 226 664 c 257
 214 664 214 664 202 661 c 257
 202 454 l 257
202 136 m 257
 214 133 214 133 226 133 c 257
 271 133 271 133 302 164 c 128
 333 195 333 195 333 239 c 257
 333 284 333 284 302 315 c 128
 271 346 271 346 226 346 c 257
 214 346 214 346 202 343 c 257
 202 136 l 257
202 780 m 257
 208 780 208 780 220 780 c 257
 327 780 327 780 402.5 704.5 c 128
 478 629 478 629 478 522 c 257
 478 499 478 499 464 477 c 128
 450 455 450 455 425.5 429 c 128
 401 403 401 403 395 396 c 257
 397 394 397 394 427.5 362 c 128
 458 330 458 330 471 307.5 c 128
 484 285 484 285 484 260 c 257
 484 153 484 153 408.5 78 c 128
 333 3 333 3 226 3 c 257
 210 3 210 3 202 4 c 257
 50 4 l 257
 50 780 l 257
 202 780 l 257
EndSplineSet
EndChar

StartChar: C
Encoding: 50 67 50
GlifName: C_
Width: 555
VWidth: 0
GlyphClass: 2
Flags: W
LayerCount: 2
Fore
SplineSet
432 612 m 257
 337 612 337 612 270 543.5 c 128
 203 475 203 475 203 378 c 257
 203 280 203 280 270 211.5 c 128
 337 143 337 143 432 143 c 257
 470 143 470 143 505 155 c 257
 505 -7 l 257
 469 -14 469 -14 432 -14 c 257
 274 -14 274 -14 162 101.5 c 128
 50 217 50 217 50 380 c 128
 50 543 50 543 162 658 c 128
 274 773 274 773 432 773 c 257
 469 773 469 773 505 766 c 257
 505 600 l 257
 470 612 470 612 432 612 c 257
EndSplineSet
EndChar

StartChar: D
Encoding: 74 68 74
GlifName: D_
Width: 630
VWidth: 0
GlyphClass: 2
Flags: W
LayerCount: 2
Fore
SplineSet
202 143 m 257
 296 145 296 145 361.5 213.5 c 128
 427 282 427 282 427 378 c 257
 427 474 427 474 361.5 542 c 128
 296 610 296 610 202 612 c 257
 202 143 l 257
50 768 m 257
 65 763 65 763 124 768 c 128
 183 773 183 773 198 773 c 257
 356 773 356 773 468 658 c 128
 580 543 580 543 580 380 c 257
 580 273 580 273 529.5 183 c 128
 479 93 479 93 392 40 c 128
 305 -13 305 -13 202 -14 c 257
 50 -14 l 257
 50 768 l 257
EndSplineSet
EndChar

StartChar: E
Encoding: 86 69 86
GlifName: E_
Width: 668
VWidth: 0
GlyphClass: 2
Flags: W
LayerCount: 2
Fore
SplineSet
509 485 m 257
 510 333 l 257
 202 333 l 257
 202 149 l 257
 617 149 l 257
 618 -3 l 257
 51 -3 l 257
 51 -2 l 257
 50 -2 l 257
 50 774 l 257
 50 778 l 257
 617 778 l 257
 618 626 l 257
 202 626 l 257
 202 485 l 257
 509 485 l 257
EndSplineSet
EndChar

StartChar: Eth
Encoding: 126 208 126
GlifName: E_th
Width: 690
VWidth: 0
GlyphClass: 2
Flags: W
LayerCount: 2
Fore
SplineSet
110 768 m 257
 125 763 125 763 184 768 c 128
 243 773 243 773 258 773 c 257
 416 773 416 773 528 658 c 128
 640 543 640 543 640 380 c 257
 640 273 640 273 589.5 183 c 128
 539 93 539 93 452 40 c 128
 365 -13 365 -13 262 -14 c 257
 110 -14 l 257
 110 344 l 257
 50 344 l 257
 50 496 l 257
 110 496 l 257
 110 768 l 257
262 143 m 257
 356 145 356 145 421.5 213.5 c 128
 487 282 487 282 487 378 c 257
 487 474 487 474 421.5 542 c 128
 356 610 356 610 262 612 c 257
 262 496 l 257
 321 496 l 257
 321 344 l 257
 262 344 l 257
 262 143 l 257
EndSplineSet
EndChar

StartChar: Euro
Encoding: 130 8364 130
GlifName: E_uro
Width: 653
VWidth: 0
GlyphClass: 2
Flags: W
LayerCount: 2
Fore
SplineSet
65 358 m 257
 494 358 l 257
 500 358 500 358 504.5 353.5 c 128
 509 349 509 349 509 343 c 257
 509 287 l 257
 509 281 509 281 504.5 276.5 c 128
 500 272 500 272 494 272 c 257
 65 272 l 257
 59 272 59 272 54.5 276.5 c 128
 50 281 50 281 50 287 c 257
 50 343 l 257
 50 349 50 349 54.5 353.5 c 128
 59 358 59 358 65 358 c 257
65 533 m 257
 494 533 l 257
 500 533 500 533 504.5 528.5 c 128
 509 524 509 524 509 518 c 257
 509 462 l 257
 509 456 509 456 504.5 451.5 c 128
 500 447 500 447 494 447 c 257
 65 447 l 257
 59 447 59 447 54.5 451.5 c 128
 50 456 50 456 50 462 c 257
 50 518 l 257
 50 524 50 524 54.5 528.5 c 128
 59 533 59 533 65 533 c 257
530 612 m 257
 435 612 435 612 368 543.5 c 128
 301 475 301 475 301 378 c 257
 301 280 301 280 368 211.5 c 128
 435 143 435 143 530 143 c 257
 568 143 568 143 603 155 c 257
 603 -7 l 257
 567 -14 567 -14 530 -14 c 257
 372 -14 372 -14 260 101.5 c 128
 148 217 148 217 148 380 c 128
 148 543 148 543 260 658 c 128
 372 773 372 773 530 773 c 257
 567 773 567 773 603 766 c 257
 603 600 l 257
 568 612 568 612 530 612 c 257
EndSplineSet
EndChar

StartChar: F
Encoding: 134 70 134
GlifName: F_
Width: 668
VWidth: 0
GlyphClass: 2
Flags: W
LayerCount: 2
Fore
SplineSet
509 485 m 257
 510 333 l 257
 202 333 l 257
 202 -2 l 257
 50 -2 l 257
 50 774 l 257
 50 778 l 257
 617 778 l 257
 618 626 l 257
 202 626 l 257
 202 485 l 257
 509 485 l 257
EndSplineSet
EndChar

StartChar: G
Encoding: 138 71 138
GlifName: G_
Width: 651
VWidth: 0
GlyphClass: 2
Flags: W
LayerCount: 2
Fore
SplineSet
432 612 m 257
 337 612 337 612 270 543.5 c 128
 203 475 203 475 203 378 c 257
 203 280 203 280 270 211.5 c 128
 337 143 337 143 432 143 c 257
 441 143 441 143 449 144 c 257
 449 313 l 257
 601 313 l 257
 601 -14 l 257
 449 -14 l 257
 441 -14 441 -14 432 -14 c 257
 274 -14 274 -14 162 101.5 c 128
 50 217 50 217 50 380 c 128
 50 543 50 543 162 658 c 128
 274 773 274 773 432 773 c 257
 469 773 469 773 505 766 c 257
 505 600 l 257
 470 612 470 612 432 612 c 257
EndSplineSet
EndChar

StartChar: H
Encoding: 154 72 154
GlifName: H_
Width: 652
VWidth: 0
GlyphClass: 2
Flags: W
LayerCount: 2
Fore
SplineSet
450 774 m 257
 602 774 l 257
 602 -2 l 257
 450 -2 l 257
 450 333 l 257
 202 333 l 257
 202 -2 l 257
 50 -2 l 257
 50 774 l 257
 202 774 l 257
 202 485 l 257
 450 485 l 257
 450 774 l 257
EndSplineSet
EndChar

StartChar: Hbar
Encoding: 158 294 158
GlifName: H_bar
Width: 747
VWidth: 0
GlyphClass: 2
Flags: W
LayerCount: 2
Fore
SplineSet
252 561 m 257
 252 485 l 257
 500 485 l 257
 500 561 l 257
 252 561 l 257
500 774 m 257
 652 774 l 257
 652 713 l 257
 697 713 l 257
 697 561 l 257
 652 561 l 257
 652 -2 l 257
 500 -2 l 257
 500 333 l 257
 252 333 l 257
 252 -2 l 257
 100 -2 l 257
 100 561 l 257
 50 561 l 257
 50 713 l 257
 100 713 l 257
 100 774 l 257
 252 774 l 257
 252 713 l 257
 500 713 l 257
 500 774 l 257
EndSplineSet
EndChar

StartChar: I
Encoding: 166 73 166
GlifName: I_
Width: 252
VWidth: 0
GlyphClass: 2
Flags: W
LayerCount: 2
Fore
SplineSet
50 774 m 257
 202 774 l 257
 202 -2 l 257
 50 -2 l 257
 50 774 l 257
EndSplineSet
EndChar

StartChar: J
Encoding: 206 74 206
GlifName: J_
Width: 419
VWidth: 0
GlyphClass: 2
Flags: W
LayerCount: 2
Fore
SplineSet
50 6 m 257
 50 174 l 257
 81 148 81 148 121 148 c 257
 170 148 170 148 202 185 c 257
 202 761 l 257
 369 761 l 257
 366 184 l 257
 342 101 342 101 275 49 c 128
 208 -3 208 -3 121 -3 c 257
 84 -3 84 -3 50 6 c 257
EndSplineSet
EndChar

StartChar: K
Encoding: 214 75 214
GlifName: K_
Width: 753
VWidth: 0
GlyphClass: 2
Flags: W
LayerCount: 2
Fore
SplineSet
50 774 m 257
 202 774 l 257
 202 433 l 257
 447 770 l 257
 633 768 l 257
 372 387 l 257
 703 -3 l 257
 511 -2 l 257
 259 302 l 257
 202 219 l 257
 202 -2 l 257
 50 -2 l 257
 50 774 l 257
EndSplineSet
EndChar

StartChar: L
Encoding: 218 76 218
GlifName: L_
Width: 718
VWidth: 0
GlyphClass: 2
Flags: W
LayerCount: 2
Fore
SplineSet
50 774 m 257
 202 774 l 257
 202 149 l 257
 667 149 l 257
 668 -3 l 257
 51 -3 l 257
 51 -2 l 257
 50 -2 l 257
 50 774 l 257
EndSplineSet
EndChar

StartChar: Lcaron
Encoding: 226 317 226
GlifName: L_caron
Width: 718
VWidth: 0
GlyphClass: 2
Flags: W
LayerCount: 2
Fore
SplineSet
50 774 m 257
 202 774 l 257
 202 149 l 257
 667 149 l 257
 668 -3 l 257
 51 -3 l 257
 51 -2 l 257
 50 -2 l 257
 50 774 l 257
252 520 m 257
 252 777 l 257
 404 777 l 257
 359 520 l 257
 252 520 l 257
EndSplineSet
EndChar

StartChar: Lslash
Encoding: 234 321 234
GlifName: L_slash
Width: 869
VWidth: 0
GlyphClass: 2
Flags: W
LayerCount: 2
Fore
SplineSet
50 494 m 257
 507 630 l 257
 508 478 l 257
 50 342 l 257
 50 494 l 257
201 774 m 257
 353 774 l 257
 353 149 l 257
 818 149 l 257
 819 -3 l 257
 202 -3 l 257
 202 -2 l 257
 201 -2 l 257
 201 774 l 257
EndSplineSet
EndChar

StartChar: M
Encoding: 238 77 238
GlifName: M_
Width: 1052
VWidth: 0
GlyphClass: 2
Flags: W
LayerCount: 2
Fore
SplineSet
50 768 m 257
 202 768 l 257
 526 146 l 257
 850 768 l 257
 1002 768 l 257
 1002 -2 l 257
 850 -2 l 257
 850 476 l 257
 602 0 l 257
 450 0 l 257
 202 476 l 257
 202 -2 l 257
 50 -2 l 257
 50 768 l 257
EndSplineSet
EndChar

StartChar: N
Encoding: 242 78 242
GlifName: N_
Width: 852
VWidth: 0
GlyphClass: 2
Flags: W
LayerCount: 2
Fore
SplineSet
50 774 m 257
 202 774 l 257
 650 251 l 257
 650 774 l 257
 802 774 l 257
 802 -2 l 257
 650 -2 l 257
 202 523 l 257
 202 -2 l 257
 50 -2 l 257
 50 774 l 257
EndSplineSet
EndChar

StartChar: O
Encoding: 258 79 258
GlifName: O_
Width: 864
VWidth: 0
GlyphClass: 2
Flags: W
LayerCount: 2
Fore
SplineSet
661 378 m 257
 661 475 661 475 594 543.5 c 128
 527 612 527 612 432 612 c 128
 337 612 337 612 270 543.5 c 128
 203 475 203 475 203 378 c 257
 203 280 203 280 270 211.5 c 128
 337 143 337 143 432 143 c 128
 527 143 527 143 594 211.5 c 128
 661 280 661 280 661 378 c 257
814 380 m 128
 814 217 814 217 702 101.5 c 128
 590 -14 590 -14 432 -14 c 128
 274 -14 274 -14 162 101.5 c 128
 50 217 50 217 50 380 c 128
 50 543 50 543 162 658 c 128
 274 773 274 773 432 773 c 128
 590 773 590 773 702 658 c 128
 814 543 814 543 814 380 c 128
  PathStart: -1
EndSplineSet
EndChar

StartChar: OE
Encoding: 262 338 262
GlifName: O_E_
Width: 1068
VWidth: 0
GlyphClass: 2
Flags: W
LayerCount: 2
Fore
SplineSet
432 612 m 257
 337 612 337 612 270 543.5 c 128
 203 475 203 475 203 378 c 257
 203 280 203 280 270 211.5 c 128
 337 143 337 143 432 143 c 257
 441 143 441 143 450 144 c 257
 450 611 l 257
 441 612 441 612 432 612 c 257
909 485 m 257
 910 333 l 257
 602 333 l 257
 602 149 l 257
 1017 149 l 257
 1018 -3 l 257
 505 -3 l 257
 505 -7 l 257
 469 -14 469 -14 432 -14 c 257
 274 -14 274 -14 162 101.5 c 128
 50 217 50 217 50 380 c 128
 50 543 50 543 162 658 c 128
 274 773 274 773 432 773 c 257
 441 773 441 773 450 773 c 257
 450 774 l 257
 450 778 l 257
 1017 778 l 257
 1018 626 l 257
 602 626 l 257
 602 485 l 257
 909 485 l 257
EndSplineSet
EndChar

StartChar: Oslash
Encoding: 294 216 294
GlifName: O_slash
Width: 864
VWidth: 0
GlyphClass: 2
Flags: W
LayerCount: 2
Fore
SplineSet
599 538 m 257
 375 150 l 257
 403 143 403 143 432 143 c 257
 527 143 527 143 594 211.5 c 128
 661 280 661 280 661 378 c 257
 661 471 661 471 599 538 c 257
495 603 m 257
 464 612 464 612 432 612 c 257
 337 612 337 612 270 543.5 c 128
 203 475 203 475 203 378 c 128
 203 281 203 281 269 212 c 257
 495 603 l 257
814 380 m 257
 814 217 814 217 702 101.5 c 128
 590 -14 590 -14 432 -14 c 257
 361 -14 361 -14 295 12 c 257
 240 -83 l 257
 134 -22 l 257
 190 75 l 257
 125 130 125 130 87.5 209.5 c 128
 50 289 50 289 50 380 c 257
 50 543 50 543 162 658 c 128
 274 773 274 773 432 773 c 257
 507 773 507 773 576 744 c 257
 619 818 l 257
 725 757 l 257
 680 679 l 257
 743 624 743 624 778.5 546 c 128
 814 468 814 468 814 380 c 257
EndSplineSet
EndChar

StartChar: P
Encoding: 302 80 302
GlifName: P_
Width: 534
VWidth: 0
GlyphClass: 2
Flags: W
LayerCount: 2
Fore
SplineSet
202 626 m 257
 202 419 l 257
 214 416 214 416 226 416 c 257
 271 416 271 416 302 447 c 128
 333 478 333 478 333 523 c 257
 333 567 333 567 302 598 c 128
 271 629 271 629 226 629 c 257
 214 629 214 629 202 626 c 257
202 3 m 257
 50 3 l 257
 50 779 l 257
 202 779 l 257
 210 780 210 780 226 780 c 257
 333 780 333 780 408.5 705 c 128
 484 630 484 630 484 523 c 128
 484 416 484 416 408.5 340.5 c 128
 333 265 333 265 226 265 c 257
 210 265 210 265 202 266 c 257
 202 3 l 257
EndSplineSet
EndChar

StartChar: Q
Encoding: 306 81 306
GlifName: Q_
Width: 872
VWidth: 0
GlyphClass: 2
Flags: W
LayerCount: 2
Fore
SplineSet
814 380 m 257
 814 293 814 293 780 216.5 c 128
 746 140 746 140 685 85 c 257
 822 -52 l 257
 684 -191 l 257
 501 -8 l 257
 467 -14 467 -14 432 -14 c 257
 274 -14 274 -14 162 101.5 c 128
 50 217 50 217 50 380 c 128
 50 543 50 543 162 658 c 128
 274 773 274 773 432 773 c 128
 590 773 590 773 702 658 c 128
 814 543 814 543 814 380 c 257
661 378 m 257
 661 475 661 475 594 543.5 c 128
 527 612 527 612 432 612 c 128
 337 612 337 612 270 543.5 c 128
 203 475 203 475 203 378 c 257
 203 280 203 280 270 211.5 c 128
 337 143 337 143 432 143 c 128
 527 143 527 143 594 211.5 c 128
 661 280 661 280 661 378 c 257
EndSplineSet
EndChar

StartChar: R
Encoding: 310 82 310
GlifName: R_
Width: 562
VWidth: 0
GlyphClass: 2
Flags: W
LayerCount: 2
Fore
SplineSet
202 3 m 257
 50 3 l 257
 50 779 l 257
 202 779 l 257
 210 780 210 780 226 780 c 257
 333 780 333 780 408.5 705 c 128
 484 630 484 630 484 523 c 257
 484 440 484 440 436.5 373.5 c 128
 389 307 389 307 313 280 c 257
 512 -3 l 257
 372 -3 l 257
 207 266 l 257
 204 266 204 266 202 266 c 257
 202 3 l 257
202 626 m 257
 202 419 l 257
 214 416 214 416 226 416 c 257
 271 416 271 416 302 447 c 128
 333 478 333 478 333 523 c 257
 333 567 333 567 302 598 c 128
 271 629 271 629 226 629 c 257
 214 629 214 629 202 626 c 257
EndSplineSet
EndChar

StartChar: S
Encoding: 322 83 322
GlifName: S_
Width: 519
VWidth: 0
GlyphClass: 2
Flags: W
LayerCount: 2
Fore
SplineSet
50 57 m 257
 125 182 l 257
 137 172 137 172 147 167 c 257
 185 145 185 145 227 155.5 c 128
 269 166 269 166 292 202 c 257
 314 241 314 241 289.5 274.5 c 128
 265 308 265 308 222 315 c 257
 155 351 155 351 114.5 398 c 128
 74 445 74 445 63.5 507.5 c 128
 53 570 53 570 96 639 c 257
 148 726 148 726 251 751.5 c 128
 354 777 354 777 448 727 c 257
 451 724 451 724 458.5 719.5 c 128
 466 715 466 715 469 712 c 257
 394 587 l 257
 382 597 382 597 372 602 c 257
 334 623 334 623 291.5 612.5 c 128
 249 602 249 602 227 565 c 257
 202 524 202 524 222.5 475 c 128
 243 426 243 426 291 418 c 257
 340 392 340 392 373.5 365.5 c 128
 407 339 407 339 431.5 303.5 c 128
 456 268 456 268 454.5 224 c 128
 453 180 453 180 422 130 c 257
 370 42 370 42 267.5 16.5 c 128
 165 -9 165 -9 71 42 c 257
 68 45 68 45 60.5 49.5 c 128
 53 54 53 54 50 57 c 257
EndSplineSet
EndChar

StartChar: T
Encoding: 342 84 342
GlifName: T_
Width: 676
VWidth: 0
GlyphClass: 2
Flags: W
LayerCount: 2
Fore
SplineSet
50 614 m 257
 50 766 l 257
 626 766 l 257
 626 614 l 257
 414 614 l 257
 414 -2 l 257
 262 -2 l 257
 262 614 l 257
 50 614 l 257
EndSplineSet
EndChar

StartChar: Thorn
Encoding: 350 222 350
GlifName: T_horn
Width: 534
VWidth: 0
GlyphClass: 2
Flags: W
LayerCount: 2
Fore
SplineSet
202 561 m 257
 202 354 l 257
 214 351 214 351 226 351 c 257
 271 351 271 351 302 382 c 128
 333 413 333 413 333 458 c 257
 333 502 333 502 302 533 c 128
 271 564 271 564 226 564 c 257
 214 564 214 564 202 561 c 257
202 3 m 257
 50 3 l 257
 50 903 l 257
 197 903 l 257
 202 714 l 257
 210 715 210 715 226 715 c 257
 333 715 333 715 408.5 640 c 128
 484 565 484 565 484 458 c 128
 484 351 484 351 408.5 275.5 c 128
 333 200 333 200 226 200 c 257
 210 200 210 200 202 201 c 257
 202 3 l 257
EndSplineSet
EndChar

StartChar: U
Encoding: 354 85 354
GlifName: U_
Width: 669
VWidth: 0
GlyphClass: 2
Flags: W
LayerCount: 2
Fore
SplineSet
616 184 m 257
 600 126 600 126 555.5 84.5 c 128
 511 43 511 43 455 23.5 c 128
 399 4 399 4 335 3.5 c 128
 271 3 271 3 214.5 22 c 128
 158 41 158 41 114 83 c 128
 70 125 70 125 53 184 c 257
 50 761 l 257
 217 761 l 257
 217 185 l 257
 246 152 246 152 335 151.5 c 128
 424 151 424 151 452 185 c 257
 452 761 l 257
 619 761 l 257
 616 184 l 257
EndSplineSet
EndChar

StartChar: V
Encoding: 398 86 398
GlifName: V_
Width: 652
VWidth: 0
GlyphClass: 2
Flags: W
LayerCount: 2
Fore
SplineSet
50 769 m 257
 202 769 l 257
 326 292 l 257
 450 769 l 257
 602 769 l 257
 402 0 l 257
 250 0 l 257
 50 769 l 257
EndSplineSet
EndChar

StartChar: W
Encoding: 402 87 402
GlifName: W_
Width: 1053
VWidth: 0
GlyphClass: 2
Flags: W
LayerCount: 2
Fore
SplineSet
50 769 m 257
 202 769 l 257
 326 292 l 257
 450 769 l 257
 451 769 l 257
 602 769 l 257
 603 769 l 257
 727 292 l 257
 851 769 l 257
 1003 769 l 257
 803 0 l 257
 651 0 l 257
 526 479 l 257
 402 0 l 257
 250 0 l 257
 50 769 l 257
EndSplineSet
EndChar

StartChar: X
Encoding: 422 88 422
GlifName: X_
Width: 724
VWidth: 0
GlyphClass: 2
Flags: W
LayerCount: 2
Fore
SplineSet
50 770 m 257
 236 768 l 257
 366 541 l 257
 498 769 l 257
 673 768 l 257
 453 388 l 257
 674 0 l 257
 499 -2 l 257
 363 233 l 257
 229 2 l 257
 51 -1 l 257
 274 384 l 257
 50 770 l 257
EndSplineSet
EndChar

StartChar: Y
Encoding: 426 89 426
GlifName: Y_
Width: 652
VWidth: 0
GlyphClass: 2
Flags: W
LayerCount: 2
Fore
SplineSet
249 451 m 257
 50 765 l 257
 202 765 l 257
 326 594 l 257
 450 765 l 257
 602 765 l 257
 402 450 l 257
 401 450 l 257
 401 1 l 257
 249 1 l 257
 249 451 l 257
EndSplineSet
EndChar

StartChar: Z
Encoding: 446 90 446
GlifName: Z_
Width: 783
VWidth: 0
GlyphClass: 2
Flags: W
LayerCount: 2
Fore
SplineSet
50 10 m 257
 50 162 l 257
 480 610 l 257
 50 610 l 257
 50 762 l 257
 733 762 l 257
 733 610 l 257
 301 162 l 257
 733 162 l 257
 733 10 l 257
 50 10 l 257
EndSplineSet
EndChar

StartChar: a
Encoding: 462 97 462
GlifName: a
Width: 534
VWidth: 0
GlyphClass: 2
Flags: W
LayerCount: 2
Fore
SplineSet
332 369 m 257
 320 372 320 372 308 372 c 257
 263 372 263 372 232 341 c 128
 201 310 201 310 201 266 c 257
 201 221 201 221 232 190 c 128
 263 159 263 159 308 159 c 257
 320 159 320 159 332 162 c 257
 332 369 l 257
332 1 m 257
 332 9 l 257
 324 8 324 8 308 8 c 257
 201 8 201 8 125.5 83.5 c 128
 50 159 50 159 50 266 c 257
 50 372 50 372 125 443.5 c 128
 200 515 200 515 308 515 c 257
 324 515 324 515 332 514 c 257
 484 514 l 257
 484 1 l 257
 332 1 l 257
EndSplineSet
EndChar

StartChar: acutecomb
Encoding: 482 769 482
GlifName: acutecomb
Width: 0
VWidth: 0
GlyphClass: 4
Flags: W
LayerCount: 2
Fore
SplineSet
-37 516 m 257
 -145 623 l 257
 37 805 l 257
 145 698 l 257
 -37 516 l 257
EndSplineSet
EndChar

StartChar: ae
Encoding: 490 230 490
GlifName: ae
Width: 905
VWidth: 0
GlyphClass: 2
Flags: W
LayerCount: 2
Fore
SplineSet
854 260 m 257
 854 250 854 250 854.5 232.5 c 128
 855 215 855 215 855 208 c 257
 508 205 l 257
 539 154 539 154 596 154 c 257
 630 154 630 154 733.5 156.5 c 128
 837 159 837 159 845 162 c 257
 845 6 l 257
 826 3 826 3 596 3 c 257
 549 3 549 3 505 19 c 257
 332 1 l 257
 332 9 l 257
 324 8 324 8 308 8 c 257
 201 8 201 8 125.5 83.5 c 128
 50 159 50 159 50 266 c 257
 50 372 50 372 125 443.5 c 128
 200 515 200 515 308 515 c 257
 324 515 324 515 332 514 c 257
 505 514 l 257
 596 518 l 257
 703 518 703 518 778.5 442.5 c 128
 854 367 854 367 854 260 c 257
332 369 m 257
 320 372 320 372 308 372 c 257
 263 372 263 372 232 341 c 128
 201 310 201 310 201 266 c 257
 201 221 201 221 232 190 c 128
 263 159 263 159 308 159 c 257
 320 159 320 159 332 162 c 257
 332 369 l 257
503 297 m 257
 695 294 l 257
 691 298 691 298 675 317 c 128
 659 336 659 336 650 345.5 c 128
 641 355 641 355 625.5 365 c 128
 610 375 610 375 596 375 c 257
 578 375 578 375 562.5 363 c 128
 547 351 547 351 526.5 325.5 c 128
 506 300 506 300 503 297 c 257
EndSplineSet
EndChar

StartChar: ampersand
Encoding: 502 38 502
GlifName: ampersand
Width: 650
VWidth: 0
GlyphClass: 2
Flags: W
LayerCount: 2
Fore
SplineSet
322.667 158 m 257
 209.667 272 l 257
 208.667 266 208.667 266 208.667 260 c 257
 208.667 216 208.667 216 239.667 185 c 128
 270.667 154 270.667 154 315.667 154 c 257
 316.667 154 316.667 154 322.667 158 c 257
389.667 810 m 257
 386.667 691 l 257
 368.667 690 368.667 690 304.167 655 c 128
 239.667 620 239.667 620 224.667 605 c 257
 190.667 571 190.667 571 193.667 521 c 257
 216.667 498 l 257
 263.667 518 263.667 518 315.667 518 c 257
 328.667 518 328.667 518 341.667 517 c 257
 341.667 373 l 257
 452.667 262 l 257
 565.667 354 565.667 354 569.667 355 c 257
 569.667 202 l 257
 566.667 202 566.667 202 536.667 178 c 257
 600.667 114 l 257
 482.667 -4 l 257
 406.667 73 l 257
 319.667 3 319.667 3 315.667 3 c 257
 208.667 3 208.667 3 133.167 78 c 128
 57.667 153 57.667 153 57.667 260 c 257
 57.667 330 57.667 330 92.667 390 c 257
 76.667 406 l 257
 56.667 442 56.667 442 51.667 480 c 128
 46.667 518 46.667 518 56.667 558.5 c 128
 66.667 599 66.667 599 80.167 633 c 128
 93.667 667 93.667 667 117.667 712 c 257
 130.667 736 130.667 736 191.167 764 c 128
 251.667 792 251.667 792 312.667 806 c 128
 373.667 820 373.667 820 389.667 810 c 257
EndSplineSet
EndChar

StartChar: asciicircum
Encoding: 514 94 514
GlifName: asciicircum
Width: 502
VWidth: 0
GlyphClass: 2
Flags: W
LayerCount: 2
Fore
SplineSet
50 283 m 257
 193 617 l 257
 194 617 l 257
 345 617 l 257
 346 617 l 257
 452 283 l 257
 300 283 l 257
 258 497 l 257
 202 283 l 257
 50 283 l 257
EndSplineSet
EndChar

StartChar: asciitilde
Encoding: 518 126 518
GlifName: asciitilde
Width: 599
VWidth: 0
GlyphClass: 2
Flags: W
LayerCount: 2
Fore
SplineSet
549 577 m 257
 549 425 l 257
 548 421 548 421 532.5 403 c 128
 517 385 517 385 485 364.5 c 128
 453 344 453 344 421 344 c 257
 321 344 l 257
 289 344 289 344 244.5 372 c 128
 200 400 200 400 168 400 c 257
 145 400 145 400 115.5 386 c 128
 86 372 86 372 68 358 c 257
 50 344 l 257
 50 496 l 257
 114 552 114 552 164 552 c 257
 197 552 197 552 244 524.5 c 128
 291 497 291 497 324 497 c 257
 369 497 369 497 413 497 c 257
 444 497 444 497 478 517 c 128
 512 537 512 537 530 557 c 257
 549 577 l 257
EndSplineSet
EndChar

StartChar: asterisk
Encoding: 522 42 522
GlifName: asterisk
Width: 644
VWidth: 0
GlyphClass: 2
Flags: W
LayerCount: 2
Fore
SplineSet
594 496 m 257
 594 344 l 257
 505 344 l 257
 568 281 l 257
 461 174 l 257
 398 237 l 257
 398 149 l 257
 246 149 l 257
 246 237 l 257
 183 174 l 257
 76 281 l 257
 139 344 l 257
 50 344 l 257
 50 496 l 257
 139 496 l 257
 76 559 l 257
 183 666 l 257
 246 603 l 257
 246 692 l 257
 398 692 l 257
 398 603 l 257
 461 666 l 257
 568 559 l 257
 505 496 l 257
 594 496 l 257
EndSplineSet
EndChar

StartChar: at
Encoding: 526 64 526
GlifName: at
Width: 876
VWidth: 0
GlyphClass: 2
Flags: W
LayerCount: 2
Fore
SplineSet
567.555 236 m 257
 567.555 236 l 257
530.555 166 m 257
 530.555 166 l 257
493.555 228 m 257
 479.555 239 l 257
 425.555 239 425.555 239 387.555 276.5 c 128
 349.555 314 349.555 314 349.555 368 c 257
 349.555 421 349.555 421 387.555 456.5 c 128
 425.555 492 425.555 492 479.555 492 c 257
 491.555 492 l 257
 567.555 492 l 257
 574.555 318 l 257
 576.555 306 576.555 306 590.055 292 c 128
 603.555 278 603.555 278 620.055 270.5 c 128
 636.555 263 636.555 263 651.055 276 c 128
 665.555 289 665.555 289 668.555 326 c 257
 668.555 327 668.555 327 666.555 334 c 128
 664.555 341 664.555 341 664.555 342 c 257
 673.555 396 673.555 396 657.555 448.5 c 128
 641.555 501 641.555 501 601.555 541 c 257
 533.555 608 533.555 608 438.055 606.5 c 128
 342.555 605 342.555 605 274.555 537 c 257
 205.555 468 205.555 468 204.555 372.5 c 128
 203.555 277 203.555 277 270.555 209 c 257
 322.555 157 322.555 157 394.555 146 c 128
 466.555 135 466.555 135 530.555 166 c 257
 541.555 171 541.555 171 569.555 143 c 128
 597.555 115 597.555 115 620.555 84 c 257
 643.555 54 l 257
 530.555 -22 530.555 -22 393.555 -10.5 c 128
 256.555 1 256.555 1 159.555 98 c 257
 47.5547 210 47.5547 210 50.0547 371 c 128
 52.5547 532 52.5547 532 167.55485 647 c 128
 282.555 762 282.555 762 443.055 764.5 c 128
 603.555 767 603.555 767 715.555 655 c 257
 799.555 571 799.555 571 820.555 448 c 128
 841.555 325 841.555 325 793.555 220 c 257
 771.555 207 771.555 207 749.555 199 c 128
 727.555 191 727.555 191 703.055 189.5 c 128
 678.555 188 678.555 188 661.555 187.5 c 128
 644.555 187 644.555 187 617.555 193.5 c 128
 590.555 200 590.555 200 578.055 203 c 128
 565.555 206 565.555 206 534.055 215.5 c 128
 502.555 225 502.555 225 493.555 228 c 257
491.555 420 m 257
 487.555 421 487.555 421 479.555 421 c 257
 456.555 421 456.555 421 441.055 405.5 c 128
 425.555 390 425.555 390 425.555 368 c 128
 425.555 346 425.555 346 441.055 330 c 128
 456.555 314 456.555 314 479.555 314 c 257
 483.555 314 483.555 314 491.555 316 c 257
 491.555 420 l 257
EndSplineSet
EndChar

StartChar: b
Encoding: 534 98 534
GlifName: b
Width: 534
VWidth: 0
GlyphClass: 2
Flags: W
LayerCount: 2
Fore
SplineSet
202 157 m 257
 214 154 214 154 226 154 c 257
 271 154 271 154 302 185 c 128
 333 216 333 216 333 260 c 257
 333 305 333 305 302 336 c 128
 271 367 271 367 226 367 c 257
 214 367 214 367 202 364 c 257
 202 157 l 257
202 780 m 257
 202 517 l 257
 210 518 210 518 226 518 c 257
 333 518 333 518 408.5 442.5 c 128
 484 367 484 367 484 260 c 128
 484 153 484 153 408.5 78 c 128
 333 3 333 3 226 3 c 257
 210 3 210 3 202 4 c 257
 50 4 l 257
 50 780 l 257
 202 780 l 257
EndSplineSet
EndChar

StartChar: backslash
Encoding: 538 92 538
GlifName: backslash
Width: 691
VWidth: 0
GlyphClass: 2
Flags: W
LayerCount: 2
Fore
SplineSet
156 818 m 257
 641 -22 l 257
 535 -83 l 257
 50 757 l 257
 156 818 l 257
EndSplineSet
EndChar

StartChar: backslash.0
Encoding: 539 -1 539
GlifName: backslash.0
Width: 691
VWidth: 0
GlyphClass: 2
Flags: W
LayerCount: 2
Fore
SplineSet
156 828 m 257
 50 767 l 257
 535 -73 l 257
 641 -12 l 257
 156 828 l 257
EndSplineSet
EndChar

StartChar: bar
Encoding: 542 124 542
GlifName: bar
Width: 222
VWidth: 0
GlyphClass: 2
Flags: W
LayerCount: 2
Fore
SplineSet
50 871 m 257
 172 871 l 257
 172 -99 l 257
 50 -99 l 257
 50 871 l 257
EndSplineSet
EndChar

StartChar: braceleft
Encoding: 546 123 546
GlifName: braceleft
Width: 372
VWidth: 0
GlyphClass: 2
Flags: W
LayerCount: 2
Fore
SplineSet
322 -85 m 257
 307 -92 307 -92 285 -92 c 257
 241 -92 241 -92 206.5 -50 c 128
 172 -8 172 -8 160 58 c 257
 159 228 l 257
 50 358 l 257
 159 485 l 257
 160 655 l 257
 172 721 172 721 206.5 763 c 128
 241 805 241 805 285 805 c 257
 307 805 307 805 322 798 c 257
 322 663 l 257
 306 684 306 684 285 684 c 257
 261 684 261 684 244 654 c 257
 245 470 l 257
 163 369 l 257
 244 228 l 257
 244 58 l 257
 260 29 260 29 285 29 c 257
 306 29 306 29 322 50 c 257
 322 -85 l 257
EndSplineSet
EndChar

StartChar: braceright
Encoding: 550 125 550
GlifName: braceright
Width: 372
VWidth: 0
GlyphClass: 2
Flags: W
LayerCount: 2
Fore
SplineSet
50 -85 m 257
 50 50 l 257
 66 29 66 29 87 29 c 257
 112 29 112 29 128 58 c 257
 128 228 l 257
 209 369 l 257
 127 470 l 257
 128 654 l 257
 111 684 111 684 87 684 c 257
 66 684 66 684 50 663 c 257
 50 798 l 257
 65 805 65 805 87 805 c 257
 131 805 131 805 165.5 763 c 128
 200 721 200 721 212 655 c 257
 213 485 l 257
 322 358 l 257
 213 228 l 257
 212 58 l 257
 200 -8 200 -8 165.5 -50 c 128
 131 -92 131 -92 87 -92 c 257
 65 -92 65 -92 50 -85 c 257
EndSplineSet
EndChar

StartChar: bracketleft
Encoding: 554 91 554
GlifName: bracketleft
Width: 362
VWidth: 0
GlyphClass: 2
Flags: W
LayerCount: 2
Fore
SplineSet
51 -80 m 257
 50 -80 l 257
 50 -79 l 257
 50 773 l 257
 50 774 l 257
 51 774 l 257
 312 774 l 257
 311 689 l 257
 144 689 l 257
 144 5 l 257
 311 5 l 257
 312 -80 l 257
 51 -80 l 257
EndSplineSet
EndChar

StartChar: bracketright
Encoding: 558 93 558
GlifName: bracketright
Width: 362
VWidth: 0
GlyphClass: 2
Flags: W
LayerCount: 2
Fore
SplineSet
311 -81 m 257
 50 -81 l 257
 51 4 l 257
 218 4 l 257
 218 689 l 257
 51 689 l 257
 50 774 l 257
 311 774 l 257
 312 774 l 257
 312 773 l 257
 312 -80 l 257
 312 -81 l 257
 311 -81 l 257
EndSplineSet
EndChar

StartChar: brokenbar
Encoding: 566 166 566
GlifName: brokenbar
Width: 252
VWidth: 0
GlyphClass: 2
Flags: W
LayerCount: 2
Fore
SplineSet
202 833 m 257
 202 459 l 257
 50 459 l 257
 50 833 l 257
 202 833 l 257
202 370 m 257
 202 -30 l 257
 50 -30 l 257
 50 370 l 257
 202 370 l 257
EndSplineSet
EndChar

StartChar: c
Encoding: 570 99 570
GlifName: c
Width: 384
VWidth: 0
GlyphClass: 2
Flags: W
LayerCount: 2
Fore
SplineSet
334 4 m 257
 321 3 321 3 308 3 c 257
 201 3 201 3 125.5 78 c 128
 50 153 50 153 50 260 c 128
 50 367 50 367 125.5 442.5 c 128
 201 518 201 518 308 518 c 257
 321 518 321 518 334 517 c 257
 334 364 l 257
 321 367 321 367 308 367 c 257
 263 367 263 367 232 336 c 128
 201 305 201 305 201 260 c 257
 201 216 201 216 232 185 c 128
 263 154 263 154 308 154 c 257
 321 154 321 154 334 157 c 257
 334 4 l 257
EndSplineSet
EndChar

StartChar: cent
Encoding: 602 162 602
GlifName: cent
Width: 384
VWidth: 0
GlyphClass: 2
Flags: W
LayerCount: 2
Fore
SplineSet
334 4 m 257
 321 3 321 3 308 3 c 257
 296 3 296 3 285 4 c 257
 285 -99 l 257
 238 -99 l 257
 238 13 l 257
 156 35 156 35 103 103.5 c 128
 50 172 50 172 50 260 c 257
 50 348 50 348 103 416.5 c 128
 156 485 156 485 238 508 c 257
 238 700 l 257
 285 700 l 257
 285 517 l 257
 296 518 296 518 308 518 c 257
 321 518 321 518 334 517 c 257
 334 364 l 257
 321 367 321 367 308 367 c 257
 296 367 296 367 285 365 c 257
 285 156 l 257
 296 154 296 154 308 154 c 257
 321 154 321 154 334 157 c 257
 334 4 l 257
238 342 m 257
 201 310 201 310 201 260 c 257
 201 211 201 211 238 179 c 257
 238 342 l 257
EndSplineSet
EndChar

StartChar: colon
Encoding: 610 58 610
GlifName: colon
Width: 252
VWidth: 0
GlyphClass: 2
Flags: W
LayerCount: 2
Fore
SplineSet
50 -2 m 257
 50 140 l 257
 202 140 l 257
 202 -2 l 257
 50 -2 l 257
50 398 m 257
 50 540 l 257
 202 540 l 257
 202 398 l 257
 50 398 l 257
EndSplineSet
EndChar

StartChar: comma
Encoding: 614 44 614
GlifName: comma
Width: 252
VWidth: 0
GlyphClass: 2
Flags: W
LayerCount: 2
Fore
SplineSet
50 -2 m 257
 50 140 l 257
 202 140 l 257
 202 -2 l 257
 142 -134 l 257
 84 -130 l 257
 93 -2 l 257
 50 -2 l 257
EndSplineSet
EndChar

StartChar: copyright
Encoding: 618 169 618
GlifName: copyright
Width: 796
VWidth: 0
GlyphClass: 2
Flags: W
LayerCount: 2
Fore
SplineSet
691 378 m 257
 691 502 691 502 605.5 590 c 128
 520 678 520 678 398 678 c 128
 276 678 276 678 190.5 590 c 128
 105 502 105 502 105 378 c 257
 105 253 105 253 190.5 165 c 128
 276 77 276 77 398 77 c 128
 520 77 520 77 605.5 165 c 128
 691 253 691 253 691 378 c 257
746 380 m 257
 746 282 746 282 699.5 199.5 c 128
 653 117 653 117 573 69 c 128
 493 21 493 21 398 21 c 128
 303 21 303 21 223 69 c 128
 143 117 143 117 96.5 199.5 c 128
 50 282 50 282 50 380 c 257
 50 477 50 477 96.5 559.5 c 128
 143 642 143 642 223 690 c 128
 303 738 303 738 398 738 c 128
 493 738 493 738 573 690 c 128
 653 642 653 642 699.5 559.5 c 128
 746 477 746 477 746 380 c 257
459 196 m 257
 451 195 451 195 443 195 c 257
 376 195 376 195 329 242 c 128
 282 289 282 289 282 355 c 257
 282 422 282 422 329 469.5 c 128
 376 517 376 517 443 517 c 257
 451 517 451 517 459 516 c 257
 459 420 l 257
 451 422 451 422 443 422 c 257
 415 422 415 422 395.5 403 c 128
 376 384 376 384 376 355 c 257
 376 328 376 328 395.5 308.5 c 128
 415 289 415 289 443 289 c 257
 451 289 451 289 459 291 c 257
 459 196 l 257
EndSplineSet
EndChar

StartChar: d
Encoding: 622 100 622
GlifName: d
Width: 534
VWidth: 0
GlyphClass: 2
Flags: W
LayerCount: 2
Fore
SplineSet
332 157 m 257
 332 364 l 257
 320 367 320 367 308 367 c 257
 263 367 263 367 232 336 c 128
 201 305 201 305 201 260 c 257
 201 216 201 216 232 185 c 128
 263 154 263 154 308 154 c 257
 320 154 320 154 332 157 c 257
332 780 m 257
 484 780 l 257
 484 4 l 257
 332 4 l 257
 320 3 320 3 308 3 c 257
 201 3 201 3 125.5 78 c 128
 50 153 50 153 50 260 c 128
 50 367 50 367 125.5 442.5 c 128
 201 518 201 518 308 518 c 257
 320 518 320 518 332 517 c 257
 332 780 l 257
EndSplineSet
EndChar

StartChar: dcaron
Encoding: 626 271 626
GlifName: dcaron
Width: 718
VWidth: 0
GlyphClass: 2
Flags: W
LayerCount: 2
Fore
SplineSet
332 157 m 257
 332 364 l 257
 320 367 320 367 308 367 c 257
 263 367 263 367 232 336 c 128
 201 305 201 305 201 260 c 257
 201 216 201 216 232 185 c 128
 263 154 263 154 308 154 c 257
 320 154 320 154 332 157 c 257
332 780 m 257
 484 780 l 257
 484 4 l 257
 332 4 l 257
 320 3 320 3 308 3 c 257
 201 3 201 3 125.5 78 c 128
 50 153 50 153 50 260 c 128
 50 367 50 367 125.5 442.5 c 128
 201 518 201 518 308 518 c 257
 320 518 320 518 332 517 c 257
 332 780 l 257
516 532 m 257
 516 789 l 257
 668 789 l 257
 623 532 l 257
 516 532 l 257
EndSplineSet
EndChar

StartChar: dcroat
Encoding: 630 273 630
GlifName: dcroat
Width: 585
VWidth: 0
GlyphClass: 2
Flags: W
LayerCount: 2
Fore
SplineSet
332 157 m 257
 332 364 l 257
 320 367 320 367 308 367 c 257
 263 367 263 367 232 336 c 128
 201 305 201 305 201 260 c 257
 201 216 201 216 232 185 c 128
 263 154 263 154 308 154 c 257
 320 154 320 154 332 157 c 257
332 780 m 257
 484 780 l 257
 484 739 l 257
 535 739 l 257
 535 587 l 257
 484 587 l 257
 484 4 l 257
 332 4 l 257
 320 3 320 3 308 3 c 257
 201 3 201 3 125.5 78 c 128
 50 153 50 153 50 260 c 128
 50 367 50 367 125.5 442.5 c 128
 201 518 201 518 308 518 c 257
 320 518 320 518 332 517 c 257
 332 587 l 257
 264 587 l 257
 264 739 l 257
 332 739 l 257
 332 780 l 257
EndSplineSet
EndChar

StartChar: dieresis
Encoding: 638 168 638
GlifName: dieresis
Width: 452
VWidth: 0
GlyphClass: 2
Flags: W
LayerCount: 2
Fore
SplineSet
50 -2 m 257
 50 140 l 257
 202 140 l 257
 202 -2 l 257
 50 -2 l 257
250 -2 m 257
 250 140 l 257
 402 140 l 257
 402 -2 l 257
 250 -2 l 257
EndSplineSet
EndChar

StartChar: divide
Encoding: 642 247 642
GlifName: divide
Width: 644
VWidth: 0
GlyphClass: 2
Flags: W
LayerCount: 2
Fore
SplineSet
250 151 m 257
 250 293 l 257
 402 293 l 257
 402 151 l 257
 250 151 l 257
250 551 m 257
 250 693 l 257
 402 693 l 257
 402 551 l 257
 250 551 l 257
594 496 m 257
 594 344 l 257
 50 344 l 257
 50 496 l 257
 594 496 l 257
EndSplineSet
EndChar

StartChar: dollar
Encoding: 646 36 646
GlifName: dollar
Width: 519
VWidth: 0
GlyphClass: 2
Flags: W
LayerCount: 2
Fore
SplineSet
243 586 m 257
 234 577 234 577 227 565 c 257
 202 524 202 524 222 475 c 257
 231 456 231 456 243 443 c 257
 243 586 l 257
50 57 m 257
 125 182 l 257
 133 176 133 176 147 167 c 257
 185 145 185 145 228 155 c 257
 236 157 236 157 243 160 c 257
 243 310 l 257
 233 313 233 313 222 315 c 257
 173 342 173 342 137 375 c 128
 101 408 101 408 80 449 c 128
 59 490 59 490 62 539 c 128
 65 588 65 588 96 639 c 257
 147 723 147 723 243 758 c 257
 243 1030 l 257
 322 1030 l 257
 322 774 l 257
 393 777 393 777 448 727 c 257
 451 724 451 724 458.5 719.5 c 128
 466 715 466 715 469 712 c 257
 394 587 l 257
 382 597 382 597 372 602 c 257
 348 615 348 615 322 616 c 257
 322 401 l 257
 351 383 351 383 373 366 c 257
 406 339 406 339 430.5 304 c 128
 455 269 455 269 453.5 225 c 128
 452 181 452 181 422 130 c 257
 387 71 387 71 322 32 c 257
 322 -182 l 257
 243 -182 l 257
 243 0 l 257
 217 -6 217 -6 192 -6 c 257
 125 -7 125 -7 71 42 c 257
 68 45 68 45 60.5 49.5 c 128
 53 54 53 54 50 57 c 257
EndSplineSet
EndChar

StartChar: dotbelowcomb
Encoding: 654 803 654
GlifName: dotbelowcomb
Width: 252
VWidth: 0
GlyphClass: 4
Flags: W
LayerCount: 2
Fore
SplineSet
50 -2 m 257
 50 140 l 257
 202 140 l 257
 202 -2 l 257
 50 -2 l 257
EndSplineSet
EndChar

StartChar: dotlessi
Encoding: 658 305 658
GlifName: dotlessi
Width: 252
VWidth: 0
GlyphClass: 2
Flags: W
LayerCount: 2
Fore
SplineSet
50 512 m 257
 202 512 l 257
 202 -2 l 257
 50 -2 l 257
 50 512 l 257
EndSplineSet
EndChar

StartChar: e
Encoding: 662 101 662
GlifName: e
Width: 617
VWidth: 0
GlyphClass: 2
Flags: W
LayerCount: 2
Fore
SplineSet
211 297 m 257
 407 294 l 257
 403 298 403 298 387 317 c 128
 371 336 371 336 362 345.5 c 128
 353 355 353 355 337.5 365 c 128
 322 375 322 375 308 375 c 257
 294 375 294 375 279 365.5 c 128
 264 356 264 356 254.5 346 c 128
 245 336 245 336 230 319 c 128
 215 302 215 302 211 297 c 257
566 260 m 257
 566 250 566 250 566.5 232.5 c 128
 567 215 567 215 567 208 c 257
 216 205 l 257
 230 182 230 182 254.5 168 c 128
 279 154 279 154 308 154 c 257
 342 154 342 154 445.5 156.5 c 128
 549 159 549 159 557 162 c 257
 557 6 l 257
 538 3 538 3 308 3 c 257
 201 3 201 3 125.5 78 c 128
 50 153 50 153 50 260 c 128
 50 367 50 367 125.5 442.5 c 128
 201 518 201 518 308 518 c 128
 415 518 415 518 490.5 442.5 c 128
 566 367 566 367 566 260 c 257
EndSplineSet
EndChar

StartChar: eight
Encoding: 694 56 694
GlifName: eight
Width: 558
VWidth: 0
GlyphClass: 2
Flags: W
LayerCount: 2
Fore
SplineSet
278 3 m 257
 277 3 l 257
 276 3 276 3 274 3 c 257
 267 3 267 3 262 4 c 257
 172 10 172 10 111 75 c 128
 50 140 50 140 50 229 c 257
 50 304 50 304 94 364 c 257
 50 423 50 423 50 498 c 257
 50 588 50 588 111 653 c 128
 172 718 172 718 262 724 c 257
 267 725 267 725 274 725 c 257
 276 725 276 725 277 725 c 257
 278 725 l 257
 279 725 279 725 281 725 c 257
 375 725 375 725 441.5 658.5 c 128
 508 592 508 592 508 498 c 257
 508 423 508 423 464 364 c 257
 508 304 508 304 508 229 c 257
 508 136 508 136 441.5 69.5 c 128
 375 3 375 3 281 3 c 257
 280 3 280 3 279 3 c 258
 278 3 l 257
279 592 m 257
 268 592 268 592 258 589 c 257
 258 590 l 257
 225 583 225 583 204 557.5 c 128
 183 532 183 532 183 498 c 257
 183 464 183 464 204 438.5 c 128
 225 413 225 413 258 406 c 257
 258 407 l 257
 268 405 268 405 279 404 c 257
 290 405 290 405 300 407 c 257
 300 406 l 257
 333 413 333 413 354 438.5 c 128
 375 464 375 464 375 498 c 257
 375 532 375 532 354 557.5 c 128
 333 583 333 583 300 590 c 257
 300 589 l 257
 290 592 290 592 279 592 c 257
279 324 m 257
 268 323 268 323 258 321 c 257
 258 322 l 257
 225 315 225 315 204 289.5 c 128
 183 264 183 264 183 229 c 257
 183 196 183 196 204 170.5 c 128
 225 145 225 145 258 138 c 257
 258 139 l 257
 268 136 268 136 279 136 c 257
 290 136 290 136 300 139 c 257
 300 138 l 257
 333 145 333 145 354 170.5 c 128
 375 196 375 196 375 229 c 257
 375 264 375 264 354 289.5 c 128
 333 315 333 315 300 322 c 257
 300 321 l 257
 290 323 290 323 279 324 c 257
EndSplineSet
EndChar

StartChar: equal
Encoding: 706 61 706
GlifName: equal
Width: 644
VWidth: 0
GlyphClass: 2
Flags: W
LayerCount: 2
Fore
SplineSet
594 546 m 257
 594 394 l 257
 50 394 l 257
 50 546 l 257
 594 546 l 257
594 296 m 257
 594 144 l 257
 50 144 l 257
 50 296 l 257
 594 296 l 257
EndSplineSet
EndChar

StartChar: eth
Encoding: 710 240 710
GlifName: eth
Width: 612
VWidth: 0
GlyphClass: 2
Flags: W
LayerCount: 2
Fore
SplineSet
135 780 m 257
 287 780 l 257
 295 773 295 773 302 767 c 257
 340 805 l 257
 427 729 l 257
 387 689 l 257
 434 641 434 641 468 594.5 c 128
 502 548 502 548 529 483 c 128
 556 418 556 418 561.5 349.5 c 128
 567 281 567 281 549 191.5 c 128
 531 102 531 102 484 4 c 257
 332 4 l 257
 320 3 320 3 308 3 c 257
 201 3 201 3 125.5 78 c 128
 50 153 50 153 50 260 c 128
 50 367 50 367 125.5 442.5 c 128
 201 518 201 518 308 518 c 257
 320 518 320 518 332 517 c 257
 282 584 l 257
 245 547 l 257
 158 623 l 257
 212 677 l 257
 135 780 l 257
310 367 m 257
 297 367 297 367 286 364 c 257
 286 365 l 257
 249 357 249 357 225 328 c 128
 201 299 201 299 201 260 c 257
 201 222 201 222 225 193 c 128
 249 164 249 164 286 156 c 257
 286 157 l 257
 297 154 297 154 310 154 c 257
 322 154 322 154 334 157 c 257
 334 156 l 257
 371 164 371 164 395 193 c 128
 419 222 419 222 419 260 c 257
 419 299 419 299 395 328 c 128
 371 357 371 357 334 365 c 257
 334 364 l 257
 322 367 322 367 310 367 c 257
EndSplineSet
EndChar

StartChar: exclam
Encoding: 714 33 714
GlifName: exclam
Width: 252
VWidth: 0
GlyphClass: 2
Flags: W
LayerCount: 2
Fore
SplineSet
50 -2 m 257
 50 140 l 257
 202 140 l 257
 202 -2 l 257
 50 -2 l 257
50 258 m 257
 50 772 l 257
 202 772 l 257
 202 258 l 257
 50 258 l 257
EndSplineSet
EndChar

StartChar: exclamdown
Encoding: 718 161 718
GlifName: exclamdown
Width: 252
VWidth: 0
GlyphClass: 2
Flags: W
LayerCount: 2
Fore
SplineSet
202 772 m 257
 202 630 l 257
 50 630 l 257
 50 772 l 257
 202 772 l 257
202 512 m 257
 202 -2 l 257
 50 -2 l 257
 50 512 l 257
 202 512 l 257
EndSplineSet
EndChar

StartChar: f
Encoding: 722 102 722
GlifName: f
Width: 514
VWidth: 0
GlyphClass: 2
Flags: W
LayerCount: 2
Fore
SplineSet
464 752 m 257
 464 584 l 257
 433 610 433 610 393 610 c 257
 344 610 344 610 312 573 c 257
 312 511 l 257
 409 511 l 257
 409 359 l 257
 312 359 l 257
 312 -3 l 257
 145 -3 l 257
 147 359 l 257
 50 359 l 257
 50 511 l 257
 148 511 l 257
 148 574 l 257
 172 657 172 657 239 709 c 128
 306 761 306 761 393 761 c 257
 430 761 430 761 464 752 c 257
EndSplineSet
EndChar

StartChar: five
Encoding: 726 53 726
GlifName: five
Width: 418
VWidth: 0
GlyphClass: 2
Flags: W
LayerCount: 2
Fore
SplineSet
50 4 m 257
 50 157 l 257
 62 154 62 154 76 154 c 257
 121 154 121 154 152 185 c 128
 183 216 183 216 183 260 c 257
 183 305 183 305 152 336 c 128
 121 367 121 367 76 367 c 257
 62 367 62 367 50 364 c 257
 50 397 l 257
 50 517 l 257
 50 773 l 257
 51 773 l 257
 51 774 l 257
 368 774 l 257
 367 622 l 257
 202 622 l 257
 202 485 l 257
 262 451 262 451 298 391.5 c 128
 334 332 334 332 334 260 c 257
 334 153 334 153 258.5 78 c 128
 183 3 183 3 76 3 c 257
 59 3 59 3 50 4 c 257
EndSplineSet
EndChar

StartChar: four
Encoding: 730 52 730
GlifName: four
Width: 565
VWidth: 0
GlyphClass: 2
Flags: W
LayerCount: 2
Fore
SplineSet
378 341 m 257
 378 521 l 257
 280 344 l 257
 378 341 l 257
386 0 m 257
 386 192 l 257
 385 191 l 257
 50 191 l 257
 372 774 l 257
 515 774 l 257
 515 0 l 257
 386 0 l 257
EndSplineSet
EndChar

StartChar: g
Encoding: 734 103 734
GlifName: g
Width: 620
VWidth: 0
GlyphClass: 2
Flags: W
LayerCount: 2
Fore
SplineSet
309 3 m 257
 308 3 l 257
 306 3 306 3 304 3 c 257
 300 3 l 257
 263 3 263 3 259 4 c 257
 161 11 161 11 105.5 82.5 c 128
 50 154 50 154 50 260 c 257
 50 362 50 362 119.5 436.5 c 128
 189 511 189 511 290 517 c 257
 296 518 296 518 304 518 c 257
 306 518 306 518 308 518 c 257
 309 518 l 257
 310 518 310 518 312 518 c 257
 419 518 419 518 494.5 443 c 128
 570 368 570 368 570 261 c 257
 570 260 l 257
 570 257 570 257 570 253 c 257
 567 -18 l 257
 543 -101 543 -101 477.5 -153 c 128
 412 -205 412 -205 325 -205 c 257
 154 -205 154 -205 120 -196 c 257
 120 -28 l 257
 132 -38 132 -38 211 -46 c 128
 290 -54 290 -54 325 -54 c 257
 351 -54 351 -54 377.5 -44 c 128
 404 -34 404 -34 419 -17 c 257
 419 26 l 257
 368 3 368 3 312 3 c 257
 311 3 311 3 310 3 c 258
 309 3 l 257
310 367 m 257
 297 367 297 367 286 364 c 257
 286 365 l 257
 249 357 249 357 225 328 c 128
 201 299 201 299 201 260 c 257
 201 222 201 222 225 193 c 128
 249 164 249 164 286 156 c 257
 286 157 l 257
 297 154 297 154 310 154 c 257
 322 154 322 154 334 157 c 257
 334 156 l 257
 371 164 371 164 395 193 c 128
 419 222 419 222 419 260 c 257
 419 299 419 299 395 328 c 128
 371 357 371 357 334 365 c 257
 334 364 l 257
 322 367 322 367 310 367 c 257
EndSplineSet
EndChar

StartChar: germandbls
Encoding: 750 223 750
GlifName: germandbls
Width: 836
VWidth: 0
GlyphClass: 2
Flags: W
LayerCount: 2
Fore
SplineSet
283 47 m 257
 350 159 l 257
 357 152 357 152 372 147 c 257
 412 130 412 130 443.5 134 c 128
 475 138 475 138 495 162 c 257
 518 189 518 189 473 201 c 257
 461 204 461 204 419 211 c 257
 353 237 353 237 313 271.5 c 128
 273 306 273 306 265 348 c 128
 257 390 257 390 295 434 c 257
 303 444 303 444 320 466 c 128
 337 488 337 488 346 498.5 c 128
 355 509 355 509 371.5 525.5 c 128
 388 542 388 542 402 548.5 c 128
 416 555 416 555 435.5 560.5 c 128
 455 566 455 566 477.5 562.5 c 128
 500 559 500 559 526 549 c 257
 527 549 527 549 528 549 c 257
 573 549 573 549 604 580 c 128
 635 611 635 611 635 656 c 257
 635 686 635 686 539.5 702 c 128
 444 718 444 718 341 712.5 c 128
 238 707 238 707 217 683 c 257
 217 2 l 257
 50 2 l 257
 53 684 l 257
 77 767 77 767 144 819 c 257
 185 851 185 851 264 863.5 c 128
 343 876 343 876 431 866 c 128
 519 856 519 856 599.5 831.5 c 128
 680 807 680 807 733 760 c 128
 786 713 786 713 786 656 c 257
 786 579 786 579 774.5 532 c 128
 763 485 763 485 743 466 c 128
 723 447 723 447 698 442 c 128
 673 437 673 437 642.5 440.5 c 128
 612 444 612 444 583 446 c 128
 554 448 554 448 523 437.5 c 128
 492 427 492 427 470 400 c 257
 454 382 454 382 449.5 355 c 128
 445 328 445 328 458 304 c 128
 471 280 471 280 501 275 c 257
 540 258 540 258 569 243.5 c 128
 598 229 598 229 624.5 209 c 128
 651 189 651 189 662.5 169.5 c 128
 674 150 674 150 671.5 125.5 c 128
 669 101 669 101 647 75 c 257
 600 18 600 18 500 5.5 c 128
 400 -7 400 -7 305 34 c 257
 297 36 297 36 283 47 c 257
EndSplineSet
EndChar

StartChar: grave
Encoding: 754 96 754
GlifName: grave
Width: 390
VWidth: 0
GlyphClass: 2
Flags: W
LayerCount: 2
Fore
SplineSet
232 516 m 257
 50 698 l 257
 158 805 l 257
 340 623 l 257
 232 516 l 257
EndSplineSet
EndChar

StartChar: gravecomb
Encoding: 758 768 758
GlifName: gravecomb
Width: 0
VWidth: 0
GlyphClass: 4
Flags: W
LayerCount: 2
Fore
SplineSet
37 516 m 257
 -145 698 l 257
 -37 805 l 257
 145 623 l 257
 37 516 l 257
EndSplineSet
EndChar

StartChar: greater
Encoding: 762 62 762
GlifName: greater
Width: 644
VWidth: 0
GlyphClass: 2
Flags: W
LayerCount: 2
Fore
SplineSet
50 546 m 257
 594 403 l 257
 594 402 l 257
 594 251 l 257
 594 250 l 257
 50 144 l 257
 50 296 l 257
 264 338 l 257
 50 394 l 257
 50 546 l 257
EndSplineSet
EndChar

StartChar: guillemotleft
Encoding: 766 171 766
GlifName: guillemotleft
Width: 1244
VWidth: 0
GlyphClass: 2
Flags: W
LayerCount: 2
Fore
SplineSet
594 663 m 257
 594 511 l 257
 188 338 l 257
 594 158 l 257
 594 6 l 257
 50 250 l 257
 50 251 l 257
 50 402 l 257
 50 403 l 257
 594 663 l 257
1194 663 m 257
 1194 511 l 257
 788 338 l 257
 1194 158 l 257
 1194 6 l 257
 650 250 l 257
 650 251 l 257
 650 402 l 257
 650 403 l 257
 1194 663 l 257
EndSplineSet
EndChar

StartChar: guillemotright
Encoding: 770 187 770
GlifName: guillemotright
Width: 1244
VWidth: 0
GlyphClass: 2
Flags: W
LayerCount: 2
Fore
SplineSet
650 663 m 257
 1194 403 l 257
 1194 402 l 257
 1194 251 l 257
 1194 250 l 257
 650 6 l 257
 650 158 l 257
 1056 338 l 257
 650 511 l 257
 650 663 l 257
50 663 m 257
 594 403 l 257
 594 402 l 257
 594 251 l 257
 594 250 l 257
 50 6 l 257
 50 158 l 257
 456 338 l 257
 50 511 l 257
 50 663 l 257
EndSplineSet
EndChar

StartChar: h
Encoding: 774 104 774
GlifName: h
Width: 597
VWidth: 0
GlyphClass: 2
Flags: W
LayerCount: 2
Fore
SplineSet
50 768 m 257
 219 768 l 257
 219 512 l 257
 258 524 258 524 299 524 c 257
 386 524 386 524 453 472 c 128
 520 420 520 420 544 337 c 257
 547 6 l 257
 380 6 l 257
 380 336 l 257
 348 373 348 373 299 373 c 257
 251 373 251 373 219 338 c 257
 219 6 l 257
 50 6 l 257
 50 768 l 257
EndSplineSet
EndChar

StartChar: hbar
Encoding: 778 295 778
GlifName: hbar
Width: 658
VWidth: 0
GlyphClass: 2
Flags: W
LayerCount: 2
Fore
SplineSet
338 731 m 257
 338 579 l 257
 280 579 l 257
 280 512 l 257
 319 524 319 524 360 524 c 257
 447 524 447 524 514 472 c 128
 581 420 581 420 605 337 c 257
 608 6 l 257
 441 6 l 257
 441 336 l 257
 409 373 409 373 360 373 c 257
 312 373 312 373 280 338 c 257
 280 6 l 257
 111 6 l 257
 111 579 l 257
 50 579 l 257
 50 731 l 257
 111 731 l 257
 111 768 l 257
 280 768 l 257
 280 731 l 257
 338 731 l 257
EndSplineSet
EndChar

StartChar: hookabovecomb
Encoding: 786 777 786
GlifName: hookabovecomb
Width: 0
VWidth: 0
GlyphClass: 4
Flags: W
LayerCount: 2
Fore
SplineSet
-71 432 m 257
 -71 509 l 257
 -63 507 -63 507 -58 507 c 257
 -35 507 -35 507 -19.5 522.5 c 128
 -4 538 -4 538 -4 560 c 128
 -4 582 -4 582 -20 598 c 128
 -36 614 -36 614 -58 614 c 257
 -63 614 -63 614 -71 612 c 257
 -71 689 l 257
 -58 689 l 257
 -4 689 -4 689 33.5 651.5 c 128
 71 614 71 614 71 560 c 257
 71 507 71 507 33.5 469.5 c 128
 -4 432 -4 432 -58 432 c 257
 -71 432 l 257
EndSplineSet
EndChar

StartChar: hyphen
Encoding: 794 45 794
GlifName: hyphen
Width: 644
VWidth: 0
GlyphClass: 2
Flags: W
LayerCount: 2
Fore
SplineSet
594 496 m 257
 594 344 l 257
 50 344 l 257
 50 496 l 257
 594 496 l 257
EndSplineSet
EndChar

StartChar: i
Encoding: 798 105 798
GlifName: i
Width: 252
VWidth: 0
GlyphClass: 2
Flags: W
LayerCount: 2
Fore
SplineSet
50 772 m 257
 202 772 l 257
 202 630 l 257
 50 630 l 257
 50 772 l 257
50 512 m 257
 202 512 l 257
 202 -2 l 257
 50 -2 l 257
 50 512 l 257
EndSplineSet
EndChar

StartChar: j
Encoding: 834 106 834
GlifName: j
Width: 419
VWidth: 0
GlyphClass: 2
Flags: W
LayerCount: 2
Fore
SplineSet
214 772 m 257
 366 772 l 257
 366 630 l 257
 214 630 l 257
 214 772 l 257
50 -195 m 257
 50 -27 l 257
 81 -53 81 -53 121 -53 c 257
 170 -53 170 -53 202 -16 c 257
 202 517 l 257
 369 517 l 257
 366 -17 l 257
 342 -100 342 -100 275 -152 c 128
 208 -204 208 -204 121 -204 c 257
 84 -204 84 -204 50 -195 c 257
EndSplineSet
EndChar

StartChar: k
Encoding: 842 107 842
GlifName: k
Width: 688
VWidth: 0
GlyphClass: 2
Flags: W
LayerCount: 2
Fore
SplineSet
50 752 m 257
 191 752 l 257
 191 317 l 257
 436 514 l 257
 629 512 l 257
 368 284 l 257
 638 -3 l 257
 452 -2 l 257
 248 226 l 257
 191 154 l 257
 191 -2 l 257
 50 -2 l 257
 50 752 l 257
EndSplineSet
EndChar

StartChar: l
Encoding: 846 108 846
GlifName: l
Width: 419
VWidth: 0
GlyphClass: 2
Flags: W
LayerCount: 2
Fore
SplineSet
369 6 m 257
 335 -3 335 -3 298 -3 c 257
 211 -3 211 -3 144 49 c 128
 77 101 77 101 53 184 c 257
 50 761 l 257
 217 761 l 257
 217 185 l 257
 249 148 249 148 298 148 c 257
 338 148 338 148 369 174 c 257
 369 6 l 257
EndSplineSet
EndChar

StartChar: lcaron
Encoding: 854 318 854
GlifName: lcaron
Width: 462
VWidth: 0
GlyphClass: 2
Flags: W
LayerCount: 2
Fore
SplineSet
369 6 m 257
 335 -3 335 -3 298 -3 c 257
 211 -3 211 -3 144 49 c 128
 77 101 77 101 53 184 c 257
 50 761 l 257
 217 761 l 257
 217 185 l 257
 249 148 249 148 298 148 c 257
 338 148 338 148 369 174 c 257
 369 6 l 257
260 504 m 257
 260 761 l 257
 412 761 l 257
 367 504 l 257
 260 504 l 257
EndSplineSet
EndChar

StartChar: less
Encoding: 862 60 862
GlifName: less
Width: 644
VWidth: 0
GlyphClass: 2
Flags: W
LayerCount: 2
Fore
SplineSet
594 546 m 257
 594 394 l 257
 380 338 l 257
 594 296 l 257
 594 144 l 257
 50 250 l 257
 50 251 l 257
 50 402 l 257
 50 403 l 257
 594 546 l 257
EndSplineSet
EndChar

StartChar: logicalnot
Encoding: 866 172 866
GlifName: logicalnot
Width: 1000
VWidth: 0
GlyphClass: 2
Flags: W
LayerCount: 2
Fore
SplineSet
185 526 m 257
 697 526 l 257
 697 228 l 257
 565 228 l 257
 565 391 l 257
 185 391 l 257
 185 526 l 257
EndSplineSet
EndChar

StartChar: lslash
Encoding: 870 322 870
GlifName: lslash
Width: 563
VWidth: 0
GlyphClass: 2
Flags: W
LayerCount: 2
Fore
SplineSet
78 308 m 257
 78 428 l 257
 497 616 l 257
 497 500 l 257
 78 308 l 257
513 6 m 257
 479 -3 479 -3 442 -3 c 257
 355 -3 355 -3 288 49 c 128
 221 101 221 101 197 184 c 257
 194 761 l 257
 361 761 l 257
 361 185 l 257
 393 148 393 148 442 148 c 257
 482 148 482 148 513 174 c 257
 513 6 l 257
EndSplineSet
EndChar

StartChar: m
Encoding: 874 109 874
GlifName: m
Width: 924
VWidth: 0
GlyphClass: 2
Flags: W
LayerCount: 2
Fore
SplineSet
50 522 m 257
 219 522 l 257
 219 512 l 257
 258 524 258 524 299 524 c 257
 389 524 389 524 458 468 c 257
 546 512 l 257
 585 524 585 524 626 524 c 257
 713 524 713 524 780 472 c 128
 847 420 847 420 871 337 c 257
 874 6 l 257
 707 6 l 257
 707 336 l 257
 675 373 675 373 626 373 c 257
 578 373 578 373 546 338 c 257
 546 116 l 257
 547 6 l 257
 546 6 l 257
 380 6 l 257
 377 6 l 257
 380 323 l 257
 380 336 l 257
 348 373 348 373 299 373 c 257
 251 373 251 373 219 338 c 257
 219 6 l 257
 50 6 l 257
 50 522 l 257
EndSplineSet
EndChar

StartChar: mu
Encoding: 882 181 882
GlifName: mu
Width: 597
VWidth: 0
GlyphClass: 2
Flags: W
LayerCount: 2
Fore
SplineSet
50 -189 m 257
 50 524 l 257
 219 524 l 257
 219 192 l 257
 251 157 251 157 299 157 c 257
 348 157 348 157 380 194 c 257
 380 524 l 257
 547 524 l 257
 544 193 l 257
 520 110 520 110 453 58 c 128
 386 6 386 6 299 6 c 257
 258 6 258 6 219 18 c 257
 219 -189 l 257
 50 -189 l 257
EndSplineSet
EndChar

StartChar: multiply
Encoding: 886 215 886
GlifName: multiply
Width: 724
VWidth: 0
GlyphClass: 2
Flags: W
LayerCount: 2
Fore
SplineSet
50 713 m 257
 236 711 l 257
 365 560 l 257
 498 712 l 257
 673 711 l 257
 453 458 l 257
 674 200 l 257
 499 198 l 257
 362 355 l 257
 229 202 l 257
 51 199 l 257
 274 456 l 257
 50 713 l 257
EndSplineSet
EndChar

StartChar: n
Encoding: 890 110 890
GlifName: n
Width: 597
VWidth: 0
GlyphClass: 2
Flags: W
LayerCount: 2
Fore
SplineSet
50 522 m 257
 219 522 l 257
 219 512 l 257
 258 524 258 524 299 524 c 257
 386 524 386 524 453 472 c 128
 520 420 520 420 544 337 c 257
 547 6 l 257
 380 6 l 257
 380 336 l 257
 348 373 348 373 299 373 c 257
 251 373 251 373 219 338 c 257
 219 6 l 257
 50 6 l 257
 50 522 l 257
EndSplineSet
EndChar

StartChar: nine
Encoding: 902 57 902
GlifName: nine
Width: 709
VWidth: 0
GlyphClass: 2
Flags: W
LayerCount: 2
Fore
SplineSet
326 391 m 257
 337 391 337 391 350 394 c 257
 350 393 l 257
 387 401 387 401 411 430 c 128
 435 459 435 459 435 498 c 257
 435 552 435 552 391 584 c 257
 376 593 376 593 359 600 c 257
 354 601 354 601 350 602 c 257
 350 601 l 257
 339 604 339 604 326 604 c 257
 314 604 314 604 302 601 c 257
 302 602 l 257
 265 594 265 594 241 565 c 128
 217 536 217 536 217 498 c 257
 217 459 217 459 241 430 c 128
 265 401 265 401 302 393 c 257
 302 394 l 257
 314 391 314 391 326 391 c 257
277 146 m 257
 362 146 362 146 426 202 c 128
 490 258 490 258 503 342 c 257
 433 266 433 266 330 259 c 257
 322 258 322 258 316 258 c 257
 313 258 313 258 312 258 c 257
 311 258 l 257
 310 258 310 258 308 258 c 257
 217 258 217 258 146.5 314.5 c 128
 76 371 76 371 56 458 c 257
 50 486 50 486 50 516 c 257
 50 556 50 556 62 594 c 257
 92 688 92 688 178 738 c 257
 227 772 227 772 277 772 c 257
 281 772 281 772 284 772 c 257
 296 773 296 773 308 773 c 257
 309 773 309 773 310 773 c 258
 311 773 l 257
 312 773 l 257
 314 773 314 773 316 773 c 257
 324 773 324 773 330 772 c 257
 410 766 410 766 472 717 c 257
 557 665 557 665 608 575 c 128
 659 485 659 485 659 378 c 257
 659 215 659 215 547 100 c 128
 435 -15 435 -15 277 -15 c 257
 194 -15 194 -15 158 -8 c 257
 158 158 l 257
 173 153 173 153 213 149.5 c 128
 253 146 253 146 277 146 c 257
EndSplineSet
EndChar

StartChar: numbersign
Encoding: 911 35 911
GlifName: numbersign
Width: 648
VWidth: 0
GlyphClass: 2
Flags: W
LayerCount: 2
Fore
SplineSet
406 466 m 257
 258 466 l 257
 241 368 l 257
 389 368 l 257
 406 466 l 257
146 692 m 257
 298 692 l 257
 285 618 l 257
 433 618 l 257
 446 692 l 257
 598 692 l 257
 585 618 l 257
 596 618 l 257
 596 466 l 257
 558 466 l 257
 541 368 l 257
 596 368 l 257
 596 216 l 257
 514 216 l 257
 502 149 l 257
 350 149 l 257
 362 216 l 257
 214 216 l 257
 202 149 l 257
 50 149 l 257
 62 216 l 257
 52 216 l 257
 52 368 l 257
 89 368 l 257
 106 466 l 257
 52 466 l 257
 52 618 l 257
 133 618 l 257
 146 692 l 257
EndSplineSet
EndChar

StartChar: o
Encoding: 915 111 915
GlifName: o
Width: 620
VWidth: 0
GlyphClass: 2
Flags: W
LayerCount: 2
Fore
SplineSet
310 367 m 257
 297 367 297 367 286 364 c 257
 286 365 l 257
 249 357 249 357 225 328 c 128
 201 299 201 299 201 260 c 257
 201 222 201 222 225 193 c 128
 249 164 249 164 286 156 c 257
 286 157 l 257
 297 154 297 154 310 154 c 257
 322 154 322 154 334 157 c 257
 334 156 l 257
 371 164 371 164 395 193 c 128
 419 222 419 222 419 260 c 257
 419 299 419 299 395 328 c 128
 371 357 371 357 334 365 c 257
 334 364 l 257
 322 367 322 367 310 367 c 257
309 3 m 257
 308 3 l 257
 306 3 306 3 304 3 c 257
 296 3 296 3 290 4 c 257
 189 10 189 10 119.5 84 c 128
 50 158 50 158 50 260 c 257
 50 362 50 362 119.5 436.5 c 128
 189 511 189 511 290 517 c 257
 296 518 296 518 304 518 c 257
 306 518 306 518 308 518 c 257
 309 518 l 257
 310 518 310 518 312 518 c 257
 419 518 419 518 494.5 442.5 c 128
 570 367 570 367 570 260 c 128
 570 153 570 153 494.5 78 c 128
 419 3 419 3 312 3 c 257
 311 3 311 3 310 3 c 258
 309 3 l 257
EndSplineSet
EndChar

StartChar: oe
Encoding: 935 339 935
GlifName: oe
Width: 999
VWidth: 0
GlyphClass: 2
Flags: W
LayerCount: 2
Fore
SplineSet
309 3 m 257
 308 3 l 257
 306 3 306 3 304 3 c 257
 296 3 296 3 290 4 c 257
 189 10 189 10 119.5 84 c 128
 50 158 50 158 50 260 c 257
 50 362 50 362 119.5 436.5 c 128
 189 511 189 511 290 517 c 257
 296 518 296 518 304 518 c 257
 306 518 306 518 308 518 c 257
 309 518 l 257
 310 518 310 518 312 518 c 257
 425 518 425 518 501 436 c 257
 577 518 577 518 690 518 c 257
 797 518 797 518 872.5 442.5 c 128
 948 367 948 367 948 260 c 257
 948 250 948 250 948.5 232.5 c 128
 949 215 949 215 949 208 c 257
 598 205 l 257
 612 182 612 182 636.5 168 c 128
 661 154 661 154 690 154 c 257
 724 154 724 154 827.5 156.5 c 128
 931 159 931 159 939 162 c 257
 939 6 l 257
 920 3 920 3 690 3 c 257
 577 3 577 3 501 85 c 257
 425 3 425 3 312 3 c 257
 311 3 311 3 310 3 c 258
 309 3 l 257
593 297 m 257
 789 294 l 257
 785 298 785 298 769 317 c 128
 753 336 753 336 744 345.5 c 128
 735 355 735 355 719.5 365 c 128
 704 375 704 375 690 375 c 257
 676 375 676 375 661 365.5 c 128
 646 356 646 356 636.5 346 c 128
 627 336 627 336 612 319 c 128
 597 302 597 302 593 297 c 257
310 367 m 257
 297 367 297 367 286 364 c 257
 286 365 l 257
 249 357 249 357 225 328 c 128
 201 299 201 299 201 260 c 257
 201 222 201 222 225 193 c 128
 249 164 249 164 286 156 c 257
 286 157 l 257
 297 154 297 154 310 154 c 257
 322 154 322 154 334 157 c 257
 334 156 l 257
 371 164 371 164 395 193 c 128
 419 222 419 222 419 260 c 257
 419 299 419 299 395 328 c 128
 371 357 371 357 334 365 c 257
 334 364 l 257
 322 367 322 367 310 367 c 257
EndSplineSet
EndChar

StartChar: one
Encoding: 955 49 955
GlifName: one
Width: 436
VWidth: 0
GlyphClass: 2
Flags: W
LayerCount: 2
Fore
SplineSet
158 487 m 257
 50 594 l 257
 232 776 l 257
 234 774 l 257
 386 774 l 257
 386 -2 l 257
 234 -2 l 257
 234 563 l 257
 158 487 l 257
EndSplineSet
EndChar

StartChar: oslash
Encoding: 975 248 975
GlifName: oslash
Width: 620
VWidth: 0
GlyphClass: 2
Flags: W
LayerCount: 2
Fore
SplineSet
324 155 m 257
 329 156 329 156 334 157 c 257
 334 156 l 257
 371 164 371 164 395 193 c 128
 419 222 419 222 419 260 c 257
 419 282 419 282 410 303 c 257
 324 155 l 257
306 367 m 257
 295 366 295 366 286 364 c 257
 286 365 l 257
 249 357 249 357 225 328 c 128
 201 299 201 299 201 260 c 257
 201 233 201 233 214 209 c 257
 306 367 l 257
50 260 m 257
 50 367 50 367 124.5 442.5 c 128
 199 518 199 518 308 518 c 257
 309 518 l 257
 310 518 310 518 312 518 c 257
 351 518 351 518 388 507 c 257
 458 625 l 257
 564 564 l 257
 493 444 l 257
 570 368 570 368 570 260 c 257
 570 153 570 153 494.5 78 c 128
 419 3 419 3 312 3 c 257
 311 3 311 3 310 3 c 258
 309 3 l 257
 308 3 l 257
 273 3 273 3 240 12 c 257
 184 -83 l 257
 78 -22 l 257
 133 71 l 257
 94 107 94 107 72 156 c 128
 50 205 50 205 50 260 c 257
EndSplineSet
EndChar

StartChar: otilde.0
Encoding: 980 -1 980
GlifName: otilde.0
Width: 620
VWidth: 0
GlyphClass: 2
Flags: W
LayerCount: 2
Fore
SplineSet
383 705 m 257
 373 695 l 257
 364 685 364 685 347 675 c 257
 330 665 330 665 315 665 c 257
 293 665 293 665 270 665 c 257
 254 665 254 665 231 679 c 257
 207 692 207 692 190 692 c 257
 165 692 165 692 133 664 c 257
 133 588 l 257
 142 595 l 257
 151 602 151 602 166 609 c 257
 181 616 181 616 192 616 c 257
 208 616 208 616 231 602 c 257
 253 588 253 588 269 588 c 257
 319 588 l 257
 335 588 335 588 351 599 c 257
 367 609 367 609 375 618 c 257
 382 627 382 627 383 629 c 257
 383 705 l 257
310 377 m 257
 322 377 322 377 334 374 c 257
 334 375 l 257
 371 367 371 367 395 338 c 257
 419 309 419 309 419 270 c 257
 419 232 419 232 395 203 c 257
 371 174 371 174 334 166 c 257
 334 167 l 257
 322 164 322 164 310 164 c 257
 297 164 297 164 286 167 c 257
 286 166 l 257
 249 174 249 174 225 203 c 257
 201 232 201 232 201 270 c 257
 201 309 201 309 225 338 c 257
 249 367 249 367 286 375 c 257
 286 374 l 257
 297 377 297 377 310 377 c 257
309 13 m 257
 310 13 l 257
 311 13 311 13 312 13 c 257
 419 13 419 13 495 88 c 257
 570 163 570 163 570 270 c 257
 570 377 570 377 495 453 c 257
 419 528 419 528 312 528 c 257
 310 528 310 528 309 528 c 257
 308 528 l 257
 306 528 306 528 304 528 c 257
 296 528 296 528 290 527 c 257
 189 521 189 521 120 447 c 257
 50 372 50 372 50 270 c 257
 50 168 50 168 120 94 c 257
 189 20 189 20 290 14 c 257
 296 13 296 13 304 13 c 257
 306 13 306 13 308 13 c 257
 309 13 l 257
EndSplineSet
EndChar

StartChar: otilde.1
Encoding: 981 -1 981
GlifName: otilde.1
Width: 620
VWidth: 0
GlyphClass: 2
Flags: W
LayerCount: 2
Fore
SplineSet
433 695 m 257
 423 685 l 257
 414 675 414 675 397 665 c 257
 380 655 380 655 365 655 c 257
 343 655 343 655 320 655 c 257
 304 655 304 655 281 669 c 257
 257 682 257 682 240 682 c 257
 215 682 215 682 183 654 c 257
 183 578 l 257
 192 585 l 257
 201 592 201 592 216 599 c 257
 231 606 231 606 242 606 c 257
 258 606 258 606 281 592 c 257
 303 578 303 578 319 578 c 257
 369 578 l 257
 385 578 385 578 401 589 c 257
 417 599 417 599 425 608 c 257
 432 617 432 617 433 619 c 257
 433 695 l 257
310 367 m 257
 322 367 322 367 334 364 c 257
 334 365 l 257
 371 357 371 357 395 328 c 257
 419 299 419 299 419 260 c 257
 419 222 419 222 395 193 c 257
 371 164 371 164 334 156 c 257
 334 157 l 257
 322 154 322 154 310 154 c 257
 297 154 297 154 286 157 c 257
 286 156 l 257
 249 164 249 164 225 193 c 257
 201 222 201 222 201 260 c 257
 201 299 201 299 225 328 c 257
 249 357 249 357 286 365 c 257
 286 364 l 257
 297 367 297 367 310 367 c 257
309 3 m 257
 310 3 l 257
 311 3 311 3 312 3 c 257
 419 3 419 3 495 78 c 257
 570 153 570 153 570 260 c 257
 570 367 570 367 495 443 c 257
 419 518 419 518 312 518 c 257
 310 518 310 518 309 518 c 257
 308 518 l 257
 306 518 306 518 304 518 c 257
 296 518 296 518 290 517 c 257
 189 511 189 511 120 437 c 257
 50 362 50 362 50 260 c 257
 50 158 50 158 120 84 c 257
 189 10 189 10 290 4 c 257
 296 3 296 3 304 3 c 257
 306 3 306 3 308 3 c 257
 309 3 l 257
EndSplineSet
EndChar

StartChar: p
Encoding: 983 112 983
GlifName: p
Width: 534
VWidth: 0
GlyphClass: 2
Flags: W
LayerCount: 2
Fore
SplineSet
202 356 m 257
 202 149 l 257
 214 146 214 146 226 146 c 257
 271 146 271 146 302 177 c 128
 333 208 333 208 333 253 c 257
 333 297 333 297 302 328 c 128
 271 359 271 359 226 359 c 257
 214 359 214 359 202 356 c 257
202 -202 m 257
 50 -202 l 257
 50 509 l 257
 202 509 l 257
 210 510 210 510 226 510 c 257
 333 510 333 510 408.5 435 c 128
 484 360 484 360 484 253 c 128
 484 146 484 146 408.5 70.5 c 128
 333 -5 333 -5 226 -5 c 257
 210 -5 210 -5 202 -4 c 257
 202 -202 l 257
EndSplineSet
EndChar

StartChar: paragraph
Encoding: 987 182 987
GlifName: paragraph
Width: 752
VWidth: 0
GlyphClass: 2
Flags: W
LayerCount: 2
Fore
SplineSet
332 3 m 257
 332 266 l 257
 324 265 324 265 308 265 c 257
 201 265 201 265 125.5 340.5 c 128
 50 416 50 416 50 523 c 128
 50 630 50 630 125.5 705 c 128
 201 780 201 780 308 780 c 257
 324 780 324 780 332 779 c 257
 484 779 l 257
 484 3 l 257
 332 3 l 257
550 774 m 257
 702 774 l 257
 702 -2 l 257
 550 -2 l 257
 550 774 l 257
EndSplineSet
EndChar

StartChar: parenleft
Encoding: 991 40 991
GlifName: parenleft
Width: 555
VWidth: 0
GlyphClass: 2
Flags: W
LayerCount: 2
Fore
SplineSet
432 744 m 257
 332 744 332 744 243 633.5 c 128
 154 523 154 523 154 378 c 257
 154 232 154 232 243 121.5 c 128
 332 11 332 11 432 11 c 257
 505 -7 l 257
 471 -14 471 -14 432 -14 c 257
 274 -14 274 -14 162 101.5 c 128
 50 217 50 217 50 380 c 128
 50 543 50 543 162 658 c 128
 274 773 274 773 432 773 c 257
 471 773 471 773 505 766 c 257
 432 744 l 257
EndSplineSet
EndChar

StartChar: parenright
Encoding: 995 41 995
GlifName: parenright
Width: 555
VWidth: 0
GlyphClass: 2
Flags: W
LayerCount: 2
Fore
SplineSet
123 744 m 257
 50 766 l 257
 84 773 84 773 123 773 c 257
 281 773 281 773 393 658 c 128
 505 543 505 543 505 380 c 128
 505 217 505 217 393 101.5 c 128
 281 -14 281 -14 123 -14 c 257
 84 -14 84 -14 50 -7 c 257
 123 11 l 257
 223 11 223 11 312 121.5 c 128
 401 232 401 232 401 378 c 257
 401 523 401 523 312 633.5 c 128
 223 744 223 744 123 744 c 257
EndSplineSet
EndChar

StartChar: percent
Encoding: 999 37 999
GlifName: percent
Width: 691
VWidth: 0
GlyphClass: 2
Flags: W
LayerCount: 2
Fore
SplineSet
535 818 m 257
 641 757 l 257
 156 -83 l 257
 50 -22 l 257
 535 818 l 257
498 262 m 257
 498 263 l 257
 498 263 l 257
 479 259 479 259 467.5 244.5 c 128
 456 230 456 230 456 210 c 257
 456 191 456 191 467.5 176.5 c 128
 479 162 479 162 498 158 c 257
 498 159 l 257
 506 157 506 157 510 157 c 128
 514 157 514 157 522 159 c 257
 522 158 l 257
 541 162 541 162 552.5 176.5 c 128
 564 191 564 191 564 210 c 257
 564 230 564 230 552.5 244.5 c 128
 541 259 541 259 522 263 c 257
 522 262 l 257
 514 264 514 264 510 264 c 128
 506 264 506 264 498 262 c 257
  PathStart: -1
509 82 m 257
 507 82 l 257
 500 82 l 257
 449 86 449 86 414.5 122.5 c 128
 380 159 380 159 380 210 c 128
 380 261 380 261 415 298 c 128
 450 335 450 335 500 339 c 257
 507 339 l 257
 509 339 l 257
 511 339 l 257
 565 339 565 339 602.5 301.5 c 128
 640 264 640 264 640 210 c 257
 640 157 640 157 602.5 119.5 c 128
 565 82 565 82 511 82 c 257
 509 82 l 257
193 663 m 257
 193 664 l 257
 193 664 l 257
 174 660 174 660 162.5 645.5 c 128
 151 631 151 631 151 611 c 257
 151 592 151 592 162.5 577.5 c 128
 174 563 174 563 193 559 c 257
 193 560 l 257
 201 558 201 558 205 558 c 128
 209 558 209 558 217 560 c 257
 217 559 l 257
 236 563 236 563 247.5 577.5 c 128
 259 592 259 592 259 611 c 257
 259 631 259 631 247.5 645.5 c 128
 236 660 236 660 217 664 c 257
 217 663 l 257
 209 665 209 665 205 665 c 128
 201 665 201 665 193 663 c 257
  PathStart: -1
204 483 m 257
 202 483 l 257
 195 483 l 257
 144 487 144 487 109.5 523.5 c 128
 75 560 75 560 75 611 c 128
 75 662 75 662 110 699 c 128
 145 736 145 736 195 740 c 257
 202 740 l 257
 204 740 l 257
 206 740 l 257
 260 740 260 740 297.5 702.5 c 128
 335 665 335 665 335 611 c 257
 335 558 335 558 297.5 520.5 c 128
 260 483 260 483 206 483 c 257
 204 483 l 257
EndSplineSet
EndChar

StartChar: period
Encoding: 1003 46 1003
GlifName: period
Width: 252
VWidth: 0
GlyphClass: 2
Flags: W
LayerCount: 2
Fore
SplineSet
50 -2 m 257
 50 140 l 257
 202 140 l 257
 202 -2 l 257
 50 -2 l 257
EndSplineSet
EndChar

StartChar: periodcentered
Encoding: 1007 183 1007
GlifName: periodcentered
Width: 252
VWidth: 0
GlyphClass: 2
Flags: W
LayerCount: 2
Fore
SplineSet
50 398 m 257
 50 540 l 257
 202 540 l 257
 202 398 l 257
 50 398 l 257
EndSplineSet
EndChar

StartChar: plus
Encoding: 1011 43 1011
GlifName: plus
Width: 644
VWidth: 0
GlyphClass: 2
Flags: W
LayerCount: 2
Fore
SplineSet
246 692 m 257
 398 692 l 257
 398 496 l 257
 594 496 l 257
 594 344 l 257
 398 344 l 257
 398 149 l 257
 246 149 l 257
 246 344 l 257
 50 344 l 257
 50 496 l 257
 246 496 l 257
 246 692 l 257
EndSplineSet
EndChar

StartChar: plusminus
Encoding: 1015 177 1015
GlifName: plusminus
Width: 644
VWidth: 0
GlyphClass: 2
Flags: W
LayerCount: 2
Fore
SplineSet
246 692 m 257
 398 692 l 257
 398 496 l 257
 594 496 l 257
 594 344 l 257
 398 344 l 257
 398 149 l 257
 246 149 l 257
 246 344 l 257
 50 344 l 257
 50 496 l 257
 246 496 l 257
 246 692 l 257
594 122 m 257
 594 -30 l 257
 50 -30 l 257
 50 122 l 257
 594 122 l 257
EndSplineSet
EndChar

StartChar: q
Encoding: 1019 113 1019
GlifName: q
Width: 534
VWidth: 0
GlyphClass: 2
Flags: W
LayerCount: 2
Fore
SplineSet
332 356 m 257
 320 359 320 359 308 359 c 257
 263 359 263 359 232 328 c 128
 201 297 201 297 201 253 c 257
 201 208 201 208 232 177 c 128
 263 146 263 146 308 146 c 257
 320 146 320 146 332 149 c 257
 332 356 l 257
332 -202 m 257
 332 -4 l 257
 324 -5 324 -5 308 -5 c 257
 201 -5 201 -5 125.5 70.5 c 128
 50 146 50 146 50 253 c 128
 50 360 50 360 125.5 435 c 128
 201 510 201 510 308 510 c 257
 324 510 324 510 332 509 c 257
 484 509 l 257
 484 -202 l 257
 332 -202 l 257
EndSplineSet
EndChar

StartChar: question
Encoding: 1023 63 1023
GlifName: question
Width: 384
VWidth: 0
GlyphClass: 2
Flags: W
LayerCount: 2
Fore
SplineSet
50 828 m 257
 59 829 59 829 76 829 c 257
 183 829 183 829 258.5 754 c 128
 334 679 334 679 334 572 c 257
 334 500 334 500 298 440 c 128
 262 380 262 380 202 347 c 257
 202 230 l 257
 50 230 l 257
 50 315 l 257
 50 440 l 257
 50 468 l 257
 62 465 62 465 76 465 c 257
 121 465 121 465 152 496 c 128
 183 527 183 527 183 572 c 257
 183 616 183 616 152 647 c 128
 121 678 121 678 76 678 c 257
 62 678 62 678 50 675 c 257
 50 828 l 257
50 -2 m 257
 50 140 l 257
 202 140 l 257
 202 -2 l 257
 50 -2 l 257
EndSplineSet
EndChar

StartChar: questiondown
Encoding: 1027 191 1027
GlifName: questiondown
Width: 384
VWidth: 0
GlyphClass: 2
Flags: W
LayerCount: 2
Fore
SplineSet
334 -1 m 257
 325 -2 325 -2 308 -2 c 257
 201 -2 201 -2 125.5 73 c 128
 50 148 50 148 50 255 c 257
 50 327 50 327 86 387 c 128
 122 447 122 447 182 480 c 257
 182 597 l 257
 334 597 l 257
 334 512 l 257
 334 387 l 257
 334 359 l 257
 322 362 322 362 308 362 c 257
 263 362 263 362 232 331 c 128
 201 300 201 300 201 255 c 257
 201 211 201 211 232 180 c 128
 263 149 263 149 308 149 c 257
 322 149 322 149 334 152 c 257
 334 -1 l 257
334 829 m 257
 334 687 l 257
 182 687 l 257
 182 829 l 257
 334 829 l 257
EndSplineSet
EndChar

StartChar: quotedbl
Encoding: 1031 34 1031
GlifName: quotedbl
Width: 452
VWidth: 0
GlyphClass: 2
Flags: W
LayerCount: 2
Fore
SplineSet
50 532 m 257
 50 789 l 257
 202 789 l 257
 202 532 l 257
 50 532 l 257
250 532 m 257
 250 789 l 257
 402 789 l 257
 402 532 l 257
 250 532 l 257
EndSplineSet
EndChar

StartChar: quotesingle
Encoding: 1035 39 1035
GlifName: quotesingle
Width: 252
VWidth: 0
GlyphClass: 2
Flags: W
LayerCount: 2
Fore
SplineSet
50 532 m 257
 50 789 l 257
 202 789 l 257
 202 532 l 257
 50 532 l 257
EndSplineSet
EndChar

StartChar: r
Encoding: 1039 114 1039
GlifName: r
Width: 587
VWidth: 0
GlyphClass: 2
Flags: W
LayerCount: 2
Fore
SplineSet
50 522 m 257
 219 522 l 257
 219 512 l 257
 258 524 258 524 299 524 c 257
 379 524 379 524 443.5 473 c 128
 508 422 508 422 537 345 c 257
 372 345 l 257
 372 344 l 257
 341 373 341 373 299 373 c 257
 251 373 251 373 219 338 c 257
 219 6 l 257
 50 6 l 257
 50 522 l 257
EndSplineSet
EndChar

StartChar: registered
Encoding: 1051 174 1051
GlifName: registered
Width: 656
VWidth: 0
GlyphClass: 2
Flags: W
LayerCount: 2
Fore
SplineSet
563 379 m 257
 563 478 563 478 494.5 548 c 128
 426 618 426 618 328 618 c 128
 230 618 230 618 161.5 548 c 128
 93 478 93 478 93 379 c 257
 93 279 93 279 161.5 208.5 c 128
 230 138 230 138 328 138 c 128
 426 138 426 138 494.5 208.5 c 128
 563 279 563 279 563 379 c 257
606 380 m 257
 606 261 606 261 524.5 177 c 128
 443 93 443 93 328 93 c 128
 213 93 213 93 131.5 177 c 128
 50 261 50 261 50 380 c 257
 50 499 50 499 131.5 582.5 c 128
 213 666 213 666 328 666 c 128
 443 666 443 666 524.5 582.5 c 128
 606 499 606 499 606 380 c 257
291 246 m 257
 236 246 l 257
 236 528 l 257
 291 528 l 257
 294 529 294 529 300 529 c 257
 339 529 339 529 366.5 501.5 c 128
 394 474 394 474 394 435 c 257
 394 405 394 405 376.5 380.5 c 128
 359 356 359 356 332 347 c 257
 404 243 l 257
 353 243 l 257
 293 341 l 257
 292 341 292 341 291 341 c 257
 291 246 l 257
291 473 m 257
 291 397 l 257
 296 396 296 396 300 396 c 257
 316 396 316 396 327.5 407.5 c 128
 339 419 339 419 339 435 c 257
 339 451 339 451 327.5 462.5 c 128
 316 474 316 474 300 474 c 257
 296 474 296 474 291 473 c 257
EndSplineSet
EndChar

StartChar: s
Encoding: 1059 115 1059
GlifName: s
Width: 508
VWidth: 0
GlyphClass: 2
Flags: W
LayerCount: 2
Fore
SplineSet
69.3916 47 m 257
 136.392 159 l 257
 143.392 152 143.392 152 158.392 147 c 257
 198.392 130 198.392 130 229.892 134 c 128
 261.392 138 261.392 138 281.392 162 c 257
 304.392 189 304.392 189 259.392 201 c 257
 247.392 204 247.392 204 205.392 211 c 257
 139.392 237 139.392 237 99.3918 271.5 c 128
 59.3916 306 59.3916 306 51.3916 348 c 128
 43.3916 390 43.3916 390 81.3916 434 c 257
 128.392 491 128.392 491 228.392 502.5 c 128
 328.392 514 328.392 514 424.392 473 c 257
 442.392 465 442.392 465 446.392 462 c 257
 379.392 332 l 257
 365.392 341 365.392 341 357.392 344 c 257
 316.392 360 316.392 360 296.392 356 c 128
 276.392 352 276.392 352 256.392 328 c 257
 231.392 302 231.392 302 235.892 292.5 c 128
 240.392 283 240.392 283 287.392 275 c 257
 326.392 258 326.392 258 355.392 243.5 c 128
 384.392 229 384.392 229 410.892 209 c 128
 437.392 189 437.392 189 448.892 169.5 c 128
 460.392 150 460.392 150 457.892 125.5 c 128
 455.392 101 455.392 101 433.392 75 c 257
 386.392 18 386.392 18 286.392 5.5 c 128
 186.392 -7 186.392 -7 91.3916 34 c 257
 83.3916 36 83.3916 36 69.3916 47 c 257
EndSplineSet
EndChar

StartChar: section
Encoding: 1079 167 1079
GlifName: section
Width: 599
VWidth: 0
GlyphClass: 2
Flags: W
LayerCount: 2
Fore
SplineSet
50 108 m 257
 125 233 l 257
 137 223 137 223 147 218 c 257
 185 196 185 196 227 206.5 c 128
 269 217 269 217 292 253 c 257
 314 292 314 292 289.5 325.5 c 128
 265 359 265 359 222 366 c 257
 155 402 155 402 114.5 449 c 128
 74 496 74 496 63.5 558.5 c 128
 53 621 53 621 96 690 c 257
 135 754 135 754 205 786 c 257
 172 821 172 821 155.5 859 c 128
 139 897 139 897 143 944 c 128
 147 991 147 991 176 1039 c 257
 228 1126 228 1126 331 1151.5 c 128
 434 1177 434 1177 528 1127 c 257
 531 1124 531 1124 538.5 1119.5 c 128
 546 1115 546 1115 549 1112 c 257
 474 987 l 257
 462 997 462 997 452 1002 c 257
 414 1023 414 1023 371.5 1012.5 c 128
 329 1002 329 1002 307 965 c 257
 282 924 282 924 302.5 875 c 128
 323 826 323 826 371 818 c 257
 394 806 394 806 413 794 c 257
 431 787 431 787 448 778 c 257
 451 775 451 775 458.5 770.5 c 128
 466 766 466 766 469 763 c 257
 465 756 l 257
 580 658 580 658 502 530 c 257
 456 452 456 452 366 422 c 257
 505 318 505 318 422 181 c 257
 370 93 370 93 267.5 67.5 c 128
 165 42 165 42 71 93 c 257
 68 96 68 96 60.5 100.5 c 128
 53 105 53 105 50 108 c 257
214 575 m 257
 220 570 220 570 227 567 c 257
 265 545 265 545 307 555.5 c 128
 349 566 349 566 372 602 c 257
 385 625 385 625 381 648 c 257
 377 651 377 651 372 653 c 257
 334 674 334 674 291.5 663.5 c 128
 249 653 249 653 227 616 c 257
 216 597 216 597 214 575 c 257
EndSplineSet
EndChar

StartChar: semicolon
Encoding: 1083 59 1083
GlifName: semicolon
Width: 252
VWidth: 0
GlyphClass: 2
Flags: W
LayerCount: 2
Fore
SplineSet
50 398 m 257
 50 540 l 257
 202 540 l 257
 202 398 l 257
 50 398 l 257
50 -2 m 257
 50 140 l 257
 202 140 l 257
 202 -2 l 257
 142 -134 l 257
 84 -130 l 257
 93 -2 l 257
 50 -2 l 257
EndSplineSet
EndChar

StartChar: seven
Encoding: 1087 55 1087
GlifName: seven
Width: 610
VWidth: 0
GlyphClass: 2
Flags: W
LayerCount: 2
Fore
SplineSet
213 0 m 257
 51 0 l 257
 389 610 l 257
 50 610 l 257
 50 762 l 257
 560 762 l 257
 560 610 l 257
 213 0 l 257
EndSplineSet
EndChar

StartChar: six
Encoding: 1091 54 1091
GlifName: six
Width: 709
VWidth: 0
GlyphClass: 2
Flags: W
LayerCount: 2
Fore
SplineSet
383 367 m 257
 372 367 372 367 359 364 c 257
 359 365 l 257
 322 357 322 357 298 328 c 128
 274 299 274 299 274 260 c 257
 274 206 274 206 318 174 c 257
 333 165 333 165 350 158 c 257
 355 157 355 157 359 156 c 257
 359 157 l 257
 370 154 370 154 383 154 c 257
 395 154 395 154 407 157 c 257
 407 156 l 257
 444 164 444 164 468 193 c 128
 492 222 492 222 492 260 c 257
 492 299 492 299 468 328 c 128
 444 357 444 357 407 365 c 257
 407 364 l 257
 395 367 395 367 383 367 c 257
432 612 m 257
 347 612 347 612 283 556 c 128
 219 500 219 500 206 416 c 257
 276 492 276 492 379 499 c 257
 387 500 387 500 393 500 c 257
 396 500 396 500 397 500 c 257
 398 500 l 257
 399 500 399 500 401 500 c 257
 492 500 492 500 562.5 443.5 c 128
 633 387 633 387 653 300 c 257
 659 272 659 272 659 242 c 257
 659 202 659 202 647 164 c 257
 617 70 617 70 531 20 c 257
 482 -14 482 -14 432 -14 c 257
 428 -14 428 -14 425 -14 c 257
 413 -15 413 -15 401 -15 c 257
 400 -15 400 -15 399 -15 c 258
 398 -15 l 257
 397 -15 l 257
 395 -15 395 -15 393 -15 c 257
 385 -15 385 -15 379 -14 c 257
 299 -8 299 -8 237 41 c 257
 152 93 152 93 101 183 c 128
 50 273 50 273 50 380 c 257
 50 543 50 543 162 658 c 128
 274 773 274 773 432 773 c 257
 515 773 515 773 551 766 c 257
 551 600 l 257
 536 605 536 605 496 608.5 c 128
 456 612 456 612 432 612 c 257
EndSplineSet
EndChar

StartChar: slash
Encoding: 1095 47 1095
GlifName: slash
Width: 691
VWidth: 0
GlyphClass: 2
Flags: W
LayerCount: 2
Fore
SplineSet
535 818 m 257
 641 757 l 257
 156 -83 l 257
 50 -22 l 257
 535 818 l 257
EndSplineSet
EndChar

StartChar: sterling
Encoding: 1099 163 1099
GlifName: sterling
Width: 864
VWidth: 0
GlyphClass: 2
Flags: W
LayerCount: 2
Fore
SplineSet
512 752 m 257
 512 584 l 257
 481 610 481 610 441 610 c 257
 392 610 392 610 360 573 c 257
 360 511 l 257
 457 511 l 257
 457 359 l 257
 360 359 l 257
 360 166 l 257
 626 166 l 257
 664 198 664 198 664 248 c 257
 664 288 664 288 638 318 c 257
 806 318 l 257
 814 284 814 284 814 248 c 257
 814 160 814 160 762 93 c 128
 710 26 710 26 628 2 c 257
 360 1 l 257
 360 -3 l 257
 193 -3 l 257
 193 0 l 257
 50 0 l 257
 50 166 l 257
 194 166 l 257
 195 359 l 257
 98 359 l 257
 98 511 l 257
 196 511 l 257
 196 574 l 257
 220 657 220 657 287 709 c 128
 354 761 354 761 441 761 c 257
 478 761 478 761 512 752 c 257
EndSplineSet
EndChar

StartChar: t
Encoding: 1103 116 1103
GlifName: t
Width: 514
VWidth: 0
GlyphClass: 2
Flags: W
LayerCount: 2
Fore
SplineSet
464 6 m 257
 430 -3 430 -3 393 -3 c 257
 306 -3 306 -3 239 49 c 128
 172 101 172 101 148 184 c 257
 147 364 l 257
 50 364 l 257
 50 516 l 257
 146 516 l 257
 145 761 l 257
 312 761 l 257
 312 516 l 257
 409 516 l 257
 409 364 l 257
 312 364 l 257
 312 185 l 257
 344 148 344 148 393 148 c 257
 433 148 433 148 464 174 c 257
 464 6 l 257
EndSplineSet
EndChar

StartChar: tcaron
Encoding: 1107 357 1107
GlifName: tcaron
Width: 643
VWidth: 0
GlyphClass: 2
Flags: W
LayerCount: 2
Fore
SplineSet
464 6 m 257
 430 -3 430 -3 393 -3 c 257
 306 -3 306 -3 239 49 c 128
 172 101 172 101 148 184 c 257
 147 364 l 257
 50 364 l 257
 50 516 l 257
 146 516 l 257
 145 761 l 257
 312 761 l 257
 312 516 l 257
 409 516 l 257
 409 364 l 257
 312 364 l 257
 312 185 l 257
 344 148 344 148 393 148 c 257
 433 148 433 148 464 174 c 257
 464 6 l 257
441 504 m 257
 441 761 l 257
 593 761 l 257
 548 504 l 257
 441 504 l 257
EndSplineSet
EndChar

StartChar: thorn
Encoding: 1111 254 1111
GlifName: thorn
Width: 534
VWidth: 0
GlyphClass: 2
Flags: W
LayerCount: 2
Fore
SplineSet
202 359 m 257
 202 152 l 257
 214 149 214 149 226 149 c 257
 271 149 271 149 302 180 c 128
 333 211 333 211 333 256 c 257
 333 300 333 300 302 331 c 128
 271 362 271 362 226 362 c 257
 214 362 214 362 202 359 c 257
202 -199 m 257
 50 -199 l 257
 50 701 l 257
 197 701 l 257
 202 512 l 257
 210 513 210 513 226 513 c 257
 333 513 333 513 408.5 438 c 128
 484 363 484 363 484 256 c 128
 484 149 484 149 408.5 73.5 c 128
 333 -2 333 -2 226 -2 c 257
 210 -2 210 -2 202 -1 c 257
 202 -199 l 257
EndSplineSet
EndChar

StartChar: three
Encoding: 1115 51 1115
GlifName: three
Width: 435
VWidth: 0
GlyphClass: 2
Flags: W
LayerCount: 2
Fore
SplineSet
50 -5 m 257
 50 119 l 257
 63 116 63 116 76 116 c 257
 142 116 142 116 188 141 c 128
 234 166 234 166 234 202 c 257
 234 236 234 236 207 260 c 128
 180 284 180 284 140 288 c 257
 133 288 133 288 127 288 c 128
 121 288 121 288 115 288 c 257
 108 288 108 288 101 286 c 257
 101 289 l 257
 101 410 l 257
 101 413 l 257
 108 411 108 411 115 411 c 257
 121 411 121 411 127 411 c 128
 133 411 133 411 140 411 c 257
 180 414 180 414 207 438.5 c 128
 234 463 234 463 234 496 c 257
 234 533 234 533 190 558 c 128
 146 583 146 583 82 583 c 257
 69 583 69 583 56 580 c 257
 56 704 l 257
 69 705 69 705 82 705 c 257
 208 705 208 705 296.5 644 c 128
 385 583 385 583 385 496 c 257
 385 410 385 410 310 349 c 257
 385 288 385 288 385 202 c 128
 385 116 385 116 294.5 55 c 128
 204 -6 204 -6 76 -6 c 257
 63 -6 63 -6 50 -5 c 257
EndSplineSet
EndChar

StartChar: tildecomb
Encoding: 1127 771 1127
GlifName: tildecomb
Width: 0
VWidth: 0
GlyphClass: 4
Flags: W
LayerCount: 2
Fore
SplineSet
125 919 m 257
 125 843 l 257
 124 841 124 841 116.5 832 c 128
 109 823 109 823 93 812.5 c 128
 77 802 77 802 61 802 c 257
 11 802 l 257
 -5 802 -5 802 -27.5 816 c 128
 -50 830 -50 830 -66 830 c 257
 -77 830 -77 830 -92 823 c 128
 -107 816 -107 816 -116 809 c 257
 -125 802 l 257
 -125 878 l 257
 -93 906 -93 906 -68 906 c 257
 -51 906 -51 906 -27.5 892.5 c 128
 -4 879 -4 879 12 879 c 257
 35 879 35 879 57 879 c 257
 72 879 72 879 89 889 c 128
 106 899 106 899 115 909 c 257
 125 919 l 257
EndSplineSet
EndChar

StartChar: two
Encoding: 1131 50 1131
GlifName: two
Width: 603
VWidth: 0
GlyphClass: 2
Flags: W
LayerCount: 2
Fore
SplineSet
126 586 m 257
 88 586 88 586 53 576 c 257
 53 709 l 257
 89 715 89 715 126 715 c 257
 230 715 230 715 318 673 c 128
 406 631 406 631 457 558.5 c 128
 508 486 508 486 508 400 c 257
 508 305 508 305 445 231.5 c 128
 382 158 382 158 278 124 c 257
 553 126 l 257
 553 5 l 257
 50 0 l 257
 53 236 l 257
 88 226 88 226 126 226 c 257
 223 226 223 226 289 274 c 128
 355 322 355 322 355 399 c 257
 355 476 355 476 288 531 c 128
 221 586 221 586 126 586 c 257
EndSplineSet
EndChar

StartChar: u
Encoding: 1135 117 1135
GlifName: u
Width: 597
VWidth: 0
GlyphClass: 2
Flags: W
LayerCount: 2
Fore
SplineSet
547 2 m 257
 378 2 l 257
 378 12 l 257
 339 0 339 0 298 0 c 257
 211 0 211 0 144 52 c 128
 77 104 77 104 53 187 c 257
 50 518 l 257
 217 518 l 257
 217 188 l 257
 249 151 249 151 298 151 c 257
 346 151 346 151 378 186 c 257
 378 518 l 257
 547 518 l 257
 547 2 l 257
EndSplineSet
EndChar

StartChar: underscore
Encoding: 1167 95 1167
GlifName: underscore
Width: 644
VWidth: 0
GlyphClass: 2
Flags: W
LayerCount: 2
Fore
SplineSet
594 196 m 257
 594 44 l 257
 50 44 l 257
 50 196 l 257
 594 196 l 257
EndSplineSet
EndChar

StartChar: uni0237
Encoding: 1248 567 1248
GlifName: uni0237
Width: 419
VWidth: 0
GlyphClass: 2
Flags: W
LayerCount: 2
Fore
SplineSet
50 -195 m 257
 50 -27 l 257
 81 -53 81 -53 121 -53 c 257
 170 -53 170 -53 202 -16 c 257
 202 517 l 257
 369 517 l 257
 366 -17 l 257
 342 -100 342 -100 275 -152 c 128
 208 -204 208 -204 121 -204 c 257
 84 -204 84 -204 50 -195 c 257
EndSplineSet
EndChar

StartChar: uni0302
Encoding: 1252 770 1252
GlifName: uni0302
Width: 0
VWidth: 0
GlyphClass: 4
Flags: W
LayerCount: 2
Fore
SplineSet
-100 766 m 257
 -29 934 l 257
 -28 934 l 257
 47 934 l 257
 48 934 l 257
 100 766 l 257
 24 766 l 257
 4 874 l 257
 -24 766 l 257
 -100 766 l 257
EndSplineSet
EndChar

StartChar: uni0304
Encoding: 1256 772 1256
GlifName: uni0304
Width: 0
VWidth: 0
GlyphClass: 4
Flags: W
LayerCount: 2
Fore
SplineSet
136 858 m 257
 136 782 l 257
 -136 782 l 257
 -136 858 l 257
 136 858 l 257
EndSplineSet
EndChar

StartChar: uni0306
Encoding: 1260 774 1260
GlifName: uni0306
Width: 0
VWidth: 0
GlyphClass: 4
Flags: W
LayerCount: 2
Fore
SplineSet
128 932 m 257
 128 918 l 257
 128 865 128 865 91 827.5 c 128
 54 790 54 790 0 790 c 257
 -54 790 -54 790 -91 827 c 128
 -128 864 -128 864 -128 918 c 257
 -128 932 l 257
 -52 932 l 257
 -54 924 -54 924 -54 918 c 257
 -54 896 -54 896 -38 880 c 128
 -22 864 -22 864 0.5 864 c 128
 23 864 23 864 38.5 880 c 128
 54 896 54 896 54 918 c 257
 54 924 54 924 52 932 c 257
 128 932 l 257
EndSplineSet
EndChar

StartChar: uni0307
Encoding: 1264 775 1264
GlifName: uni0307
Width: 0
VWidth: 0
GlyphClass: 4
Flags: W
LayerCount: 2
Fore
SplineSet
-76 498 m 257
 -76 640 l 257
 76 640 l 257
 76 498 l 257
 -76 498 l 257
EndSplineSet
EndChar

StartChar: uni0308
Encoding: 1268 776 1268
GlifName: uni0308
Width: 0
VWidth: 0
GlyphClass: 4
Flags: W
LayerCount: 2
Fore
SplineSet
-176 498 m 257
 -176 640 l 257
 -24 640 l 257
 -24 498 l 257
 -176 498 l 257
24 498 m 257
 24 640 l 257
 176 640 l 257
 176 498 l 257
 24 498 l 257
EndSplineSet
EndChar

StartChar: uni030A
Encoding: 1272 778 1272
GlifName: uni030A_
Width: 0
VWidth: 0
GlyphClass: 4
Flags: W
LayerCount: 2
Fore
SplineSet
-12 612 m 257
 -12 613 l 257
 -12 613 l 257
 -31 609 -31 609 -42.5 594.5 c 128
 -54 580 -54 580 -54 560 c 257
 -54 541 -54 541 -42.5 526.5 c 128
 -31 512 -31 512 -12 508 c 257
 -12 509 l 257
 -4 507 -4 507 0 507 c 128
 4 507 4 507 12 509 c 257
 12 508 l 257
 31 512 31 512 42.5 526.5 c 128
 54 541 54 541 54 560 c 257
 54 580 54 580 42.5 594.5 c 128
 31 609 31 609 12 613 c 257
 12 612 l 257
 4 614 4 614 0 614 c 128
 -4 614 -4 614 -12 612 c 257
  PathStart: -1
-1 432 m 257
 -3 432 l 257
 -10 432 l 257
 -61 436 -61 436 -95.5 472.5 c 128
 -130 509 -130 509 -130 560 c 128
 -130 611 -130 611 -95 648 c 128
 -60 685 -60 685 -10 689 c 257
 -3 689 l 257
 -1 689 l 257
 1 689 l 257
 55 689 55 689 92.5 651.5 c 128
 130 614 130 614 130 560 c 257
 130 507 130 507 92.5 469.5 c 128
 55 432 55 432 1 432 c 257
 -1 432 l 257
EndSplineSet
EndChar

StartChar: uni030B
Encoding: 1276 779 1276
GlifName: uni030B_
Width: 0
VWidth: 0
GlyphClass: 4
Flags: W
LayerCount: 2
Fore
SplineSet
-180 516 m 257
 -288 623 l 257
 -106 805 l 257
 2 698 l 257
 -180 516 l 257
106 514 m 257
 -2 621 l 257
 180 803 l 257
 288 696 l 257
 106 514 l 257
EndSplineSet
EndChar

StartChar: uni030C
Encoding: 1280 780 1280
GlifName: uni030C_
Width: 0
VWidth: 0
GlyphClass: 4
Flags: W
LayerCount: 2
Fore
SplineSet
-100 934 m 257
 -24 934 l 257
 4 826 l 257
 24 934 l 257
 100 934 l 257
 48 766 l 257
 47 766 l 257
 -28 766 l 257
 -29 766 l 257
 -100 934 l 257
EndSplineSet
EndChar

StartChar: uni030F
Encoding: 1284 783 1284
GlifName: uni030F_
Width: 0
VWidth: 0
GlyphClass: 4
Flags: W
LayerCount: 2
Fore
SplineSet
180 516 m 257
 -2 698 l 257
 106 805 l 257
 288 623 l 257
 180 516 l 257
-106 514 m 257
 -288 696 l 257
 -180 803 l 257
 2 621 l 257
 -106 514 l 257
EndSplineSet
EndChar

StartChar: uni0312
Encoding: 1288 786 1288
GlifName: uni0312
Width: 0
VWidth: 0
GlyphClass: 4
Flags: W
LayerCount: 2
Fore
SplineSet
76 408 m 257
 76 266 l 257
 -76 266 l 257
 -76 408 l 257
 -16 540 l 257
 42 536 l 257
 33 408 l 257
 76 408 l 257
EndSplineSet
EndChar

StartChar: uni0313
Encoding: 1292 787 1292
GlifName: uni0313
Width: 0
VWidth: 0
GlyphClass: 4
Flags: W
LayerCount: 2
Fore
SplineSet
-76 398 m 257
 -76 540 l 257
 76 540 l 257
 76 398 l 257
 16 266 l 257
 -42 270 l 257
 -33 398 l 257
 -76 398 l 257
EndSplineSet
EndChar

StartChar: uni0326
Encoding: 1296 806 1296
GlifName: uni0326
Width: 0
VWidth: 0
GlyphClass: 4
Flags: W
LayerCount: 2
Fore
SplineSet
-126 98 m 257
 -126 240 l 257
 26 240 l 257
 26 98 l 257
 -34 -34 l 257
 -92 -30 l 257
 -83 98 l 257
 -126 98 l 257
EndSplineSet
EndChar

StartChar: uni0327
Encoding: 1300 807 1300
GlifName: uni0327
Width: 0
VWidth: 0
GlyphClass: 4
Flags: W
LayerCount: 2
Fore
SplineSet
-121 -68 m 257
 -121 9 l 257
 -113 7 -113 7 -108 7 c 257
 -85 7 -85 7 -69.5 22.5 c 128
 -54 38 -54 38 -54 60 c 128
 -54 82 -54 82 -70 98 c 128
 -86 114 -86 114 -108 114 c 257
 -113 114 -113 114 -121 112 c 257
 -121 189 l 257
 -108 189 l 257
 -54 189 -54 189 -16.5 151.5 c 128
 21 114 21 114 21 60 c 257
 21 7 21 7 -16.5 -30.5 c 128
 -54 -68 -54 -68 -108 -68 c 257
 -121 -68 l 257
EndSplineSet
EndChar

StartChar: uni0328
Encoding: 1304 808 1304
GlifName: uni0328
Width: 0
VWidth: 0
GlyphClass: 4
Flags: W
LayerCount: 2
Fore
SplineSet
21 -68 m 257
 8 -68 l 257
 -46 -68 -46 -68 -83.5 -30.5 c 128
 -121 7 -121 7 -121 60 c 257
 -121 114 -121 114 -83.5 151.5 c 128
 -46 189 -46 189 8 189 c 257
 21 189 l 257
 21 112 l 257
 13 114 13 114 8 114 c 257
 -14 114 -14 114 -30 98 c 128
 -46 82 -46 82 -46 60 c 128
 -46 38 -46 38 -30.5 22.5 c 128
 -15 7 -15 7 8 7 c 257
 13 7 13 7 21 9 c 257
 21 -68 l 257
EndSplineSet
EndChar

StartChar: u0964
Encoding: 1308 2404 1308
GlifName: u0964
Width: 252
VWidth: 0
GlyphClass: 2
Flags: W
LayerCount: 2
Fore
SplineSet
202 370 m 257
 202 -30 l 257
 50 -30 l 257
 50 370 l 257
 202 370 l 257
EndSplineSet
EndChar

StartChar: u0980
Encoding: 1316 2432 1316
GlifName: u0980
Width: 534
VWidth: 0
GlyphClass: 2
Flags: W
LayerCount: 2
Fore
SplineSet
210 343 m 257
 210 265 l 257
 107 265 107 265 53.5 337.5 c 128
 0 410 0 410 0 523 c 257
 0 630 0 630 75.5 705 c 128
 151 780 151 780 258 780 c 257
 264 780 l 257
 270 780 270 780 276.5 780.5 c 128
 283 781 283 781 293.5 780.5 c 128
 304 780 304 780 314 779 c 128
 324 778 324 778 335.5 776 c 128
 347 774 347 774 357 771 c 128
 367 768 367 768 377 763 c 128
 387 758 387 758 395 752 c 257
 412 738 412 738 421.5 707.5 c 128
 431 677 431 677 432 654 c 257
 434 631 l 257
 434 3 l 257
 282 3 l 257
 282 266 l 257
 280 266 280 266 281 297.5 c 128
 282 329 282 329 284 356.5 c 128
 286 384 286 384 283 388 c 257
 282 419 l 257
 282 626 l 257
 270 629 270 629 258 629 c 257
 213 629 213 629 182 598 c 128
 151 567 151 567 151 523 c 257
 151 498 151 498 151.5 488 c 128
 152 478 152 478 154.5 460.5 c 128
 157 443 157 443 163 435.5 c 128
 169 428 169 428 181 422 c 128
 193 416 193 416 210 416 c 257
 210 397 l 257
 210 378 210 378 209.5 362 c 128
 209 346 209 346 210 343 c 257
EndSplineSet
EndChar

StartChar: u0981
Encoding: 1320 2433 1320
GlifName: u0981
Width: 0
VWidth: 0
GlyphClass: 2
Flags: W
LayerCount: 2
Fore
SplineSet
-61 658 m 257
 -61 772 l 257
 61 772 l 257
 61 658 l 257
 -61 658 l 257
193 619 m 257
 193 600 l 257
 193 519 193 519 137 462.5 c 128
 81 406 81 406 1 406 c 257
 -80 406 -80 406 -136.5 462.5 c 128
 -193 519 -193 519 -193 600 c 257
 -193 619 l 257
 -77 619 l 257
 -80 610 -80 610 -80 600 c 257
 -80 566 -80 566 -56.5 542.5 c 128
 -33 519 -33 519 1 519 c 128
 35 519 35 519 57.5 542.5 c 128
 80 566 80 566 80 600 c 257
 80 610 80 610 77 619 c 257
 193 619 l 257
EndSplineSet
EndChar

StartChar: u0982
Encoding: 1324 2434 1324
GlifName: u0982
Width: 445
VWidth: 0
GlyphClass: 2
Flags: W
LayerCount: 2
Fore
SplineSet
159 427 m 257
 392 69 l 257
 286 8 l 257
 53 366 l 257
 159 427 l 257
194 663 m 257
 194 664 l 257
 194 664 l 257
 175 660 175 660 163.5 645.5 c 128
 152 631 152 631 152 611 c 257
 152 592 152 592 163.5 577.5 c 128
 175 563 175 563 194 559 c 257
 194 560 l 257
 202 558 202 558 206 558 c 128
 210 558 210 558 218 560 c 257
 218 559 l 257
 237 563 237 563 248.5 577.5 c 128
 260 592 260 592 260 611 c 257
 260 631 260 631 248.5 645.5 c 128
 237 660 237 660 218 664 c 257
 218 663 l 257
 210 665 210 665 206 665 c 128
 202 665 202 665 194 663 c 257
  PathStart: -1
205 483 m 257
 203 483 l 257
 196 483 l 257
 145 487 145 487 110.5 523.5 c 128
 76 560 76 560 76 611 c 128
 76 662 76 662 111 699 c 128
 146 736 146 736 196 740 c 257
 203 740 l 257
 205 740 l 257
 207 740 l 257
 261 740 261 740 298.5 702.5 c 128
 336 665 336 665 336 611 c 257
 336 558 336 558 298.5 520.5 c 128
 261 483 261 483 207 483 c 257
 205 483 l 257
EndSplineSet
EndChar

StartChar: u0983
Encoding: 1328 2435 1328
GlifName: u0983
Width: 445
VWidth: 0
GlyphClass: 2
Flags: W
LayerCount: 2
Fore
SplineSet
210.5 663 m 257
 210.5 664 l 256
 210.5 664 l 257
 210.5 664 l 257
 210.5 664 l 257
 210.5 664 l 257
 191.5 660 191.5 660 180 645.5 c 128
 168.5 631 168.5 631 168.5 611 c 257
 168.5 592 168.5 592 180 577.5 c 128
 191.5 563 191.5 563 210.5 559 c 257
 210.5 560 l 257
 218.5 558 218.5 558 222.5 558 c 128
 226.5 558 226.5 558 234.5 560 c 257
 234.5 559 l 257
 253.5 563 253.5 563 265 577.5 c 128
 276.5 592 276.5 592 276.5 611 c 257
 276.5 631 276.5 631 265 645.5 c 128
 253.5 660 253.5 660 234.5 664 c 257
 234.5 663 l 257
 226.5 665 226.5 665 222.5 665 c 128
 218.5 665 218.5 665 210.5 663 c 257
  PathStart: -1
221.5 483 m 257
 219.5 483 l 257
 212.5 483 l 257
 161.5 487 161.5 487 127 523.5 c 128
 92.5 560 92.5 560 92.5 611 c 128
 92.5 662 92.5 662 127.5 699 c 128
 162.5 736 162.5 736 212.5 740 c 257
 219.5 740 l 257
 221.5 740 l 257
 223.5 740 l 257
 277.5 740 277.5 740 315 702.5 c 128
 352.5 665 352.5 665 352.5 611 c 257
 352.5 558 352.5 558 315 520.5 c 128
 277.5 483 277.5 483 223.5 483 c 257
 221.5 483 l 257
210.5 263 m 257
 210.5 264 l 256
 210.5 264 l 257
 210.5 264 l 257
 210.5 264 l 257
 210.5 264 l 257
 191.5 260 191.5 260 180 245.5 c 128
 168.5 231 168.5 231 168.5 211 c 257
 168.5 192 168.5 192 180 177.5 c 128
 191.5 163 191.5 163 210.5 159 c 257
 210.5 160 l 257
 218.5 158 218.5 158 222.5 158 c 128
 226.5 158 226.5 158 234.5 160 c 257
 234.5 159 l 257
 253.5 163 253.5 163 265 177.5 c 128
 276.5 192 276.5 192 276.5 211 c 257
 276.5 231 276.5 231 265 245.5 c 128
 253.5 260 253.5 260 234.5 264 c 257
 234.5 263 l 257
 226.5 265 226.5 265 222.5 265 c 128
 218.5 265 218.5 265 210.5 263 c 257
  PathStart: -1
221.5 83 m 257
 219.5 83 l 257
 212.5 83 l 257
 161.5 87 161.5 87 127 123.5 c 128
 92.5 160 92.5 160 92.5 211 c 128
 92.5 262 92.5 262 127.5 299 c 128
 162.5 336 162.5 336 212.5 340 c 257
 219.5 340 l 257
 221.5 340 l 257
 223.5 340 l 257
 277.5 340 277.5 340 315 302.5 c 128
 352.5 265 352.5 265 352.5 211 c 257
 352.5 158 352.5 158 315 120.5 c 128
 277.5 83 277.5 83 223.5 83 c 257
 221.5 83 l 257
EndSplineSet
EndChar

StartChar: u0985
Encoding: 1332 2437 1332
GlifName: u0985
Width: 946
VWidth: 0
GlyphClass: 2
Flags: W
LayerCount: 2
Fore
SplineSet
401 505 m 257
 396 634 l 257
 397 634 397 634 398 634 c 257
 525 634 525 634 614.5 542 c 128
 704 450 704 450 704 320 c 257
 704 301 704 301 701 283 c 257
 773 211 l 257
 773 671 l 257
 0 671 l 257
 0 803 l 257
 946 803 l 257
 946 671 l 257
 925 671 l 257
 925 0 l 257
 773 0 l 257
 771 -2 l 257
 641 128 l 257
 598 71 598 71 534.5 38 c 128
 471 5 471 5 398 5 c 257
 271 5 271 5 181.5 97 c 128
 92 189 92 189 92 320 c 257
 153.5 321.5 l 258
 215 323 215 323 215 324 c 257
 215 321 215 321 215 318 c 257
 215 240 215 240 268.5 185 c 128
 322 130 322 130 398 130 c 128
 474 130 474 130 527.5 185 c 128
 581 240 581 240 581 318 c 257
 581 395 581 395 528.5 449.5 c 128
 476 504 476 504 401 505 c 257
EndSplineSet
EndChar

StartChar: u0986
Encoding: 1336 2438 1336
GlifName: u0986
Width: 1261
VWidth: 0
GlyphClass: 2
Flags: W
LayerCount: 2
Fore
SplineSet
1061 850 m 257
 1213 850 l 257
 1213 803 l 257
 1261 803 l 257
 1261 671 l 257
 1213 671 l 257
 1213 -2 l 257
 1061 -2 l 257
 1061 489 l 257
 1059 487 l 257
 925 625 l 257
 925 0 l 257
 773 0 l 257
 771 -2 l 257
 641 128 l 257
 598 71 598 71 534.5 38 c 128
 471 5 471 5 398 5 c 257
 271 5 271 5 181.5 97 c 128
 92 189 92 189 92 320 c 257
 153.5 321.5 l 258
 215 323 215 323 215 324 c 257
 215 321 215 321 215 318 c 257
 215 240 215 240 268.5 185 c 128
 322 130 322 130 398 130 c 128
 474 130 474 130 527.5 185 c 128
 581 240 581 240 581 318 c 257
 581 395 581 395 528.5 449.5 c 128
 476 504 476 504 401 505 c 257
 396 634 l 257
 397 634 397 634 398 634 c 257
 525 634 525 634 614.5 542 c 128
 704 450 704 450 704 320 c 257
 704 301 704 301 701 283 c 257
 773 211 l 257
 773 671 l 257
 0 671 l 257
 0 800 l 257
 754 800 l 257
 946 800 l 257
 955 800 l 257
 1061 697 l 257
 1061 850 l 257
EndSplineSet
EndChar

StartChar: u0987
Encoding: 1340 2439 1340
GlifName: u0987
Width: 689
VWidth: 0
GlyphClass: 2
Flags: W
LayerCount: 2
Fore
SplineSet
689 803 m 257
 689 671 l 257
 0 671 l 257
 0 803 l 257
 333 803 l 257
 324 849 324 849 300 873 c 257
 268 904 268 904 237 935 c 257
 213 959 213 959 160.5 972.5 c 128
 108 986 108 986 85 1010 c 257
 69 1025 69 1025 58.5 1055 c 128
 48 1085 48 1085 46 1108 c 257
 44 1130 l 257
 132 1197 l 257
 133 1188 133 1188 135 1183 c 128
 137 1178 137 1178 148.5 1144.5 c 128
 160 1111 160 1111 176 1095 c 257
 198 1073 198 1073 249.5 1061 c 128
 301 1049 301 1049 324 1027 c 257
 394 956 l 257
 408 942 408 942 416.5 921.5 c 128
 425 901 425 901 427 882 c 128
 429 863 429 863 429 846 c 128
 429 829 429 829 428 818.5 c 258
 427 808 l 257
 422 803 l 257
 689 803 l 257
236 472 m 257
 128 578 l 257
 205 655 205 655 311.5 656 c 128
 418 657 418 657 495 580 c 257
 571 503 571 503 570 397 c 128
 569 291 569 291 492 214 c 257
 455 176 455 176 412 156 c 257
 593 -1 l 257
 434 -1 l 257
 226 153 l 257
 173 175 173 175 131 217 c 257
 233 320 l 257
 234 319 l 257
 266 287 266 287 309 287.5 c 128
 352 288 352 288 386 321 c 257
 419 355 419 355 419.5 398 c 128
 420 441 420 441 388 473 c 257
 356 505 356 505 313 505 c 128
 270 505 270 505 236 472 c 257
EndSplineSet
EndChar

StartChar: u0988
Encoding: 1344 2440 1344
GlifName: u0988
Width: 1077
VWidth: 0
GlyphClass: 2
Flags: W
LayerCount: 2
Fore
SplineSet
236 472 m 257
 128 578 l 257
 205 655 205 655 311.5 656 c 128
 418 657 418 657 495 580 c 257
 542 533 542 533 560 470 c 257
 639 535 l 257
 654 559 654 559 675 580 c 257
 715 620 715 620 768 640 c 257
 778 648 l 257
 777 643 l 257
 843 666 843 666 915.5 649 c 128
 988 632 988 632 1042 578 c 257
 934 472 l 257
 900 505 900 505 857 505 c 128
 814 505 814 505 782 473 c 257
 750 441 750 441 750.5 398 c 128
 751 355 751 355 784 321 c 257
 818 288 818 288 861 287.5 c 128
 904 287 904 287 936 319 c 257
 937 320 l 257
 1039 217 l 257
 992 169 992 169 932.5 147.5 c 128
 873 126 873 126 804 141 c 128
 735 156 735 156 678 214 c 257
 624 268 624 268 607 341 c 257
 534 265 l 257
 533 266 l 257
 516 237 516 237 492 214 c 257
 435 156 435 156 366 141 c 128
 297 126 297 126 237.5 147.5 c 128
 178 169 178 169 131 217 c 257
 233 320 l 257
 234 319 l 257
 266 287 266 287 309 287.5 c 128
 352 288 352 288 386 321 c 257
 390 325 390 325 393 329 c 257
 389 331 l 257
 403 342 l 257
 423 374 423 374 419 410 c 128
 415 446 415 446 388 473 c 257
 356 505 356 505 313 505 c 128
 270 505 270 505 236 472 c 257
1077 803 m 257
 1077 671 l 257
 0 671 l 257
 0 803 l 257
 538 803 l 257
 529 849 529 849 505 873 c 257
 473 904 473 904 442 935 c 257
 418 959 418 959 365.5 972.5 c 128
 313 986 313 986 290 1010 c 257
 274 1025 274 1025 263.5 1055 c 128
 253 1085 253 1085 251 1108 c 257
 249 1130 l 257
 337 1198 l 257
 338 1189 338 1189 340 1183.5 c 128
 342 1178 342 1178 353.5 1144.5 c 128
 365 1111 365 1111 381 1095 c 257
 403 1073 403 1073 454.5 1061 c 128
 506 1049 506 1049 529 1027 c 257
 599 956 l 257
 613 942 613 942 621.5 921.5 c 128
 630 901 630 901 632 882 c 128
 634 863 634 863 634 846 c 128
 634 829 634 829 633 818.5 c 258
 632 808 l 257
 627 803 l 257
 1077 803 l 257
EndSplineSet
EndChar

StartChar: u0989
Encoding: 1348 2441 1348
GlifName: u0989
Width: 616
VWidth: 0
GlyphClass: 2
Flags: W
LayerCount: 2
Fore
SplineSet
616 803 m 257
 616 671 l 257
 441 671 l 257
 441 484 l 257
 501 450 501 450 536.5 390.5 c 128
 572 331 572 331 570 260 c 257
 567 151 567 151 492 77 c 128
 417 3 417 3 309 3 c 257
 247 3 247 3 198 25 c 128
 149 47 149 47 118.5 84 c 128
 88 121 88 121 72 166.5 c 128
 56 212 56 212 56 261 c 257
 201 261 l 257
 201 260 l 257
 201 215 201 215 232 185 c 128
 263 155 263 155 310 154 c 257
 357 155 357 155 388 185 c 128
 419 215 419 215 419 260 c 257
 419 302 419 302 392.5 331.5 c 128
 366 361 366 361 324 366 c 257
 309 366 l 257
 309 518 l 257
 309 518 l 257
 309 671 l 257
 0 671 l 257
 0 803 l 257
 299 803 l 257
 289 850 289 850 265 875 c 257
 234 906 234 906 202 938 c 257
 178 961 178 961 125.5 975 c 128
 73 989 73 989 50 1012 c 257
 34 1028 34 1028 24 1058 c 128
 14 1088 14 1088 11 1110 c 257
 9 1132 l 257
 97 1195 l 257
 98 1186 98 1186 100.5 1183 c 128
 103 1180 103 1180 114 1146.5 c 128
 125 1113 125 1113 141 1097 c 257
 164 1075 164 1075 215 1063 c 256
 267.401 1050.91 267.401 1050.91 289 1029 c 258
 359 958 l 258
 373 944 373 944 381.5 923.5 c 128
 390 903 390 903 392 884 c 256
 394.018 848.685 394.018 848.685 394 848 c 258
 393 810 l 257
 385 803 l 257
 616 803 l 257
EndSplineSet
EndChar

StartChar: u098A
Encoding: 1352 2442 1352
GlifName: u098A_
Width: 616
VWidth: 0
GlyphClass: 2
Flags: W
LayerCount: 2
Fore
SplineSet
616 803 m 257
 616 671 l 257
 441 671 l 257
 441 484 l 257
 501 450 501 450 536.5 390.5 c 128
 572 331 572 331 570 260 c 256
 567 151 567 151 492 77 c 256
 418 4 418 4 311.395 3.00913 c 257
 172 -50 l 257
 8 -1 l 257
 20 120 l 257
 131.375 69.8647 l 257
 125 77 125 77 118.5 84 c 256
 88 121 88 121 72 166.5 c 128
 56 212 56 212 56 261 c 257
 201 261 l 257
 201 260 l 258
 201 215 201 215 232 185 c 256
 265 153 265 153 310 154 c 256
 357 155 357 155 388 185 c 128
 419 215 419 215 419 260 c 256
 419 302 419 302 392.5 331.5 c 128
 366 361 366 361 324 366 c 257
 309 366 l 257
 309 518 l 257
 309 671 l 257
 0 671 l 257
 0 803 l 257
 299 803 l 257
 289 850 289 850 265 875 c 256
 234 906 234 906 202 938 c 256
 178 961 178 961 125.5 975 c 128
 73 989 73 989 50 1012 c 256
 34 1028 34 1028 24 1058 c 256
 12.625 1092.12 12.625 1092.12 11 1110 c 258
 9 1132 l 257
 97 1195 l 257
 98 1186 98 1186 100.5 1183 c 128
 103 1180 103 1180 114 1146.5 c 128
 125 1113 125 1113 141 1097 c 256
 164 1075 164 1075 215 1063 c 256
 267.401 1050.91 267.401 1050.91 289 1029 c 258
 359 958 l 258
 373 944 373 944 381.5 923.5 c 128
 390 903 390 903 392 884 c 128
 394 865 394 865 394 848 c 128
 394 831 394 831 393 820.5 c 128
 392 810 392 810 393 810 c 257
 385 803 l 257
 616 803 l 257
EndSplineSet
EndChar

StartChar: u098B
Encoding: 1356 2443 1356
GlifName: u098B_
Width: 1344
VWidth: 0
GlyphClass: 2
Flags: W
LayerCount: 2
Fore
SplineSet
897 777 m 257
 1043 777 l 257
 1043 286 l 257
 1117 211 l 257
 1117 776 l 257
 1119 776 l 257
 1119 795 l 257
 1319 795 l 257
 1319 663 l 257
 1269 663 l 257
 1269 0 l 257
 1118 0 l 257
 1115 -2 l 257
 1043 70 l 257
 1043 1 l 257
 897 1 l 257
 896 1 l 257
 443 180 l 257
 443 332 l 257
 690 562 l 257
 700 629 l 257
 680 572 680 572 630.5 536 c 128
 581 500 581 500 519 500 c 257
 474 500 474 500 434.5 519 c 128
 395 538 395 538 368 571 c 257
 341 538 341 538 302 519 c 128
 263 500 263 500 219 500 c 257
 138 500 138 500 81.5 556.5 c 128
 25 613 25 613 25 694 c 257
 25 713 l 257
 141 713 l 257
 138 704 138 704 138 694 c 257
 138 660 138 660 161.5 636.5 c 128
 185 613 185 613 219 613 c 128
 253 613 253 613 275.5 636.5 c 128
 298 660 298 660 298 694 c 257
 298 704 298 704 295 713 c 257
 325 713 l 257
 411 713 l 257
 441 713 l 257
 438 704 438 704 438 694 c 257
 438 660 438 660 461.5 636.5 c 128
 485 613 485 613 519 613 c 128
 553 613 553 613 575.5 636.5 c 128
 598 660 598 660 598 694 c 257
 598 704 598 704 595 713 c 257
 711 713 l 257
 711 701 l 257
 713 714 l 257
 897 714 l 257
 897 777 l 257
896 160 m 257
 896 709 l 257
 729 444 l 257
 728 445 l 257
 587 274 l 257
 896 160 l 257
EndSplineSet
EndChar

StartChar: u098B.0
Encoding: 1357 -1 1357
GlifName: u098B_.0
Width: 1344
VWidth: 0
GlyphClass: 2
Flags: W
LayerCount: 2
Fore
SplineSet
872 787 m 257
 872 724 l 257
 688 724 l 257
 686 711 l 257
 686 723 l 257
 570 723 l 257
 573 714 573 714 573 704 c 257
 573 670 573 670 551 647 c 257
 528 623 528 623 494 623 c 257
 460 623 460 623 437 647 c 257
 413 670 413 670 413 704 c 257
 413 714 413 714 416 723 c 257
 386 723 l 257
 300 723 l 257
 270 723 l 257
 273 714 273 714 273 704 c 257
 273 670 273 670 251 647 c 257
 228 623 228 623 194 623 c 257
 160 623 160 623 137 647 c 257
 113 670 113 670 113 704 c 257
 113 714 113 714 116 723 c 257
 0 723 l 257
 0 704 l 257
 0 623 0 623 57 567 c 257
 113 510 113 510 194 510 c 257
 238 510 238 510 277 529 c 257
 316 548 316 548 343 581 c 257
 370 548 370 548 410 529 c 257
 449 510 449 510 494 510 c 257
 556 510 556 510 606 546 c 257
 655 582 655 582 675 639 c 257
 665 572 l 257
 418 342 l 257
 418 190 l 257
 871 11 l 257
 872 11 l 257
 1018 11 l 257
 1018 80 l 257
 1090 8 l 257
 1093 10 l 257
 1244 10 l 257
 1244 673 l 257
 1294 673 l 257
 1294 805 l 257
 1094 805 l 257
 1094 786 l 257
 1092 786 l 257
 1092 221 l 257
 1018 296 l 257
 1018 787 l 257
 872 787 l 257
871 170 m 257
 562 284 l 257
 703 455 l 257
 704 454 l 257
 871 719 l 257
 871 170 l 257
EndSplineSet
EndChar

StartChar: u098C
Encoding: 1360 2444 1360
GlifName: u098C_
Width: 779
VWidth: 0
GlyphClass: 2
Flags: W
LayerCount: 2
Fore
SplineSet
103.604 104 m 257
 102.604 117 102.604 117 102.604 130 c 257
 102.604 237 102.604 237 177.604 312.5 c 128
 252.604 388 252.604 388 359.604 388 c 257
 429.604 388 429.604 388 488.604 353.5 c 128
 547.604 319 547.604 319 581.604 261 c 257
 595.604 320 595.604 320 579.604 379 c 128
 563.604 438 563.604 438 518.604 483 c 257
 449.604 552 449.604 552 353.604 553.5 c 128
 257.604 555 257.604 555 190.604 487 c 257
 163.604 461 163.604 461 147.604 427 c 257
 32.6035 542 l 257
 53.6035 572 53.6035 572 79.6035 598 c 257
 152.604 672 152.604 672 252.104 697 c 128
 351.604 722 351.604 722 452.104 694 c 128
 552.604 666 552.604 666 628.604 590 c 257
 703.604 514 703.604 514 731.604 414 c 128
 759.604 314 759.604 314 734.604 214.5 c 128
 709.604 115 709.604 115 635.604 42 c 257
 609.604 16 609.604 16 579.604 -5 c 257
 470.604 104 l 257
 463.604 104 l 257
 463.604 107 463.604 107 464.604 110 c 257
 461.604 113 l 257
 463.604 113 463.604 113 465.604 114 c 257
 466.604 122 466.604 122 466.604 130 c 257
 466.604 175 466.604 175 435.604 206 c 128
 404.604 237 404.604 237 359.604 237 c 257
 315.604 237 315.604 237 284.604 206 c 128
 253.604 175 253.604 175 253.604 130 c 257
 253.604 117 253.604 117 256.604 104 c 257
 103.604 104 l 257
EndSplineSet
EndChar

StartChar: u098F
Encoding: 1364 2447 1364
GlifName: u098F_
Width: 697
VWidth: 0
GlyphClass: 2
Flags: W
LayerCount: 2
Fore
SplineSet
47.5 318 m 257
 215.5 318 l 257
 189.5 287 189.5 287 189.5 248 c 257
 189.5 198 189.5 198 225.5 166 c 257
 492.5 166 l 257
 492.5 573 l 257
 460.5 610 460.5 610 411.5 610 c 257
 371.5 610 371.5 610 340.5 584 c 257
 340.5 752 l 257
 374.5 761 374.5 761 411.5 761 c 257
 498.5 761 498.5 761 565.5 709 c 128
 632.5 657 632.5 657 656.5 574 c 257
 659.5 -3 l 257
 586.5 -4 586.5 -4 443 -0.5 c 128
 299.5 3 299.5 3 225.5 2 c 257
 142.5 26 142.5 26 90 93.5 c 128
 37.5 161 37.5 161 37.5 248 c 257
 37.5 285 37.5 285 47.5 318 c 257
EndSplineSet
EndChar

StartChar: u0990
Encoding: 1368 2448 1368
GlifName: u0990
Width: 956
VWidth: 0
GlyphClass: 2
Flags: W
LayerCount: 2
Fore
SplineSet
325.663 752 m 257
 359.663 761 359.663 761 396.663 761 c 257
 483.663 761 483.663 761 550.663 709 c 128
 617.663 657 617.663 657 641.663 574 c 257
 642.663 439 l 257
 713.663 413 713.663 413 756.663 414 c 257
 786.663 414 786.663 414 795.663 453 c 257
 813.663 530 813.663 530 779.663 613.5 c 128
 745.663 697 745.663 697 683.663 759 c 257
 659.663 783 659.663 783 607.163 796.5 c 128
 554.663 810 554.663 810 531.663 834 c 257
 515.663 849 515.663 849 505.163 879 c 128
 494.663 909 494.663 909 492.663 932 c 257
 490.663 954 l 257
 578.663 1042 l 257
 579.663 1033 579.663 1033 581.663 1017.5 c 128
 583.663 1002 583.663 1002 595.163 968.5 c 128
 606.663 935 606.663 935 622.663 919 c 257
 644.663 897 644.663 897 696.163 885 c 128
 747.663 873 747.663 873 770.663 851 c 257
 840.663 780 l 257
 856.663 764 856.663 764 876.163 721.5 c 128
 895.663 679 895.663 679 910.663 622.5 c 128
 925.663 566 925.663 566 931.663 510.5 c 128
 937.663 455 937.663 455 922.163 408 c 128
 906.663 361 906.663 361 867.663 342 c 257
 803.663 312 803.663 312 744.663 312 c 257
 706.663 312 706.663 312 642.663 331 c 257
 644.663 -3 l 257
 571.663 -4 571.663 -4 428.163 -0.5 c 128
 284.663 3 284.663 3 210.663 2 c 257
 127.663 26 127.663 26 75.16305 93.5 c 128
 22.6631 161 22.6631 161 22.6631 248 c 257
 22.6631 285 22.6631 285 32.6631 318 c 257
 200.663 318 l 257
 174.663 287 174.663 287 174.663 248 c 257
 174.663 198 174.663 198 210.663 166 c 257
 477.663 166 l 257
 477.663 573 l 257
 445.663 610 445.663 610 396.663 610 c 257
 356.663 610 356.663 610 325.663 584 c 257
 325.663 752 l 257
EndSplineSet
EndChar

StartChar: u0993
Encoding: 1372 2451 1372
GlifName: u0993
Width: 616
VWidth: 0
GlyphClass: 2
Flags: W
LayerCount: 2
Fore
SplineSet
285 682 m 257
 237 679 237 679 223 676 c 257
 224 676 224 676 219 697 c 128
 214 718 214 718 209 739 c 128
 204 760 204 760 205 760 c 257
 209 760 209 760 229 770 c 128
 249 780 249 780 277.5 792.5 c 128
 306 805 306 805 329 808 c 257
 435 823 435 823 502.5 752 c 128
 570 681 570 681 568 565 c 257
 566 478 566 478 518 413 c 257
 568 345 568 345 568 260 c 257
 568 153 568 153 492.5 78 c 128
 417 3 417 3 310 3 c 257
 309 3 309 3 308 3 c 258
 307 3 l 257
 306 3 l 257
 304 3 304 3 302 3 c 257
 294 3 294 3 288 4 c 257
 187 10 187 10 117.5 84 c 128
 48 158 48 158 48 260 c 257
 48 342 48 342 94 408 c 257
 106 412 l 257
 207 384 207 384 210 383 c 257
 223 377 223 377 218 361 c 257
 202 313 202 313 200 285 c 257
 199 273 199 273 199 260 c 257
 199 215 199 215 230 185 c 128
 261 155 261 155 308 154 c 257
 355 155 355 155 386 185 c 128
 417 215 417 215 417 260 c 257
 417 299 417 299 393 328 c 128
 369 357 369 357 332 365 c 257
 332 364 l 257
 308 459 l 257
 320 459 320 459 332 462 c 257
 332 461 l 257
 369 469 369 469 393 498 c 128
 417 527 417 527 417 565 c 257
 417 623 417 623 381 654 c 128
 345 685 345 685 285 682 c 257
EndSplineSet
EndChar

StartChar: u0994
Encoding: 1376 2452 1376
GlifName: u0994
Width: 884
VWidth: 0
GlyphClass: 2
Flags: W
LayerCount: 2
Fore
SplineSet
285 682 m 257
 237 679 237 679 223 676 c 257
 224 676 224 676 219 697 c 128
 214 718 214 718 209 739 c 128
 204 760 204 760 205 760 c 257
 209 760 209 760 229 770 c 128
 249 780 249 780 277.5 792.5 c 128
 306 805 306 805 329 808 c 257
 435 823 435 823 502.5 752 c 128
 570 681 570 681 568 565 c 257
 567 498 567 498 537 442 c 257
 613 413 613 413 660 414 c 257
 690 414 690 414 699 453 c 257
 717 530 717 530 683 613.5 c 128
 649 697 649 697 587 759 c 257
 563 783 563 783 510.5 796.5 c 128
 458 810 458 810 435 834 c 257
 419 849 419 849 408.5 879 c 128
 398 909 398 909 396 932 c 257
 394 954 l 257
 482 1042 l 257
 483 1033 483 1033 485 1017.5 c 128
 487 1002 487 1002 498.5 968.5 c 128
 510 935 510 935 526 919 c 257
 548 897 548 897 599.5 885 c 128
 651 873 651 873 674 851 c 257
 744 780 l 257
 760 764 760 764 779.5 721.5 c 128
 799 679 799 679 814 622.5 c 128
 829 566 829 566 835 510.5 c 128
 841 455 841 455 825.5 408 c 128
 810 361 810 361 771 342 c 257
 707 312 707 312 648 312 c 257
 614 312 614 312 559 327 c 257
 568 294 568 294 568 260 c 257
 568 153 568 153 492.5 78 c 128
 417 3 417 3 310 3 c 257
 309 3 309 3 308 3 c 258
 307 3 l 257
 306 3 l 257
 304 3 304 3 302 3 c 257
 294 3 294 3 288 4 c 257
 187 10 187 10 117.5 84 c 128
 48 158 48 158 48 260 c 257
 48 342 48 342 94 408 c 257
 106 412 l 257
 207 384 207 384 210 383 c 257
 223 377 223 377 218 361 c 257
 202 313 202 313 200 285 c 257
 199 273 199 273 199 260 c 257
 199 215 199 215 230 185 c 128
 261 155 261 155 308 154 c 257
 355 155 355 155 386 185 c 128
 417 215 417 215 417 260 c 257
 417 299 417 299 393 328 c 128
 369 357 369 357 332 365 c 257
 332 364 l 257
 308 459 l 257
 320 459 320 459 332 462 c 257
 332 461 l 257
 369 469 369 469 393 498 c 128
 417 527 417 527 417 565 c 257
 417 623 417 623 381 654 c 128
 345 685 345 685 285 682 c 257
EndSplineSet
EndChar

StartChar: u0995
Encoding: 1380 2453 1380
GlifName: u0995
Width: 1098
VWidth: 0
GlyphClass: 2
Flags: W
LayerCount: 2
Fore
SplineSet
1098 803 m 257
 1098 671 l 257
 670 671 l 257
 670 478 l 257
 722 502 722 502 780 502 c 257
 888 502 888 502 963 427 c 128
 1038 352 1038 352 1038 244 c 257
 1038 231 1038 231 1037 218 c 257
 884 218 l 257
 888 231 888 231 888 244 c 257
 888 290 888 290 857 321 c 128
 826 352 826 352 780 352 c 257
 736 352 736 352 705 320.5 c 128
 674 289 674 289 674 244 c 257
 674 231 674 231 678 218 c 257
 670 218 l 257
 670 1 l 257
 527 1 l 257
 70 274 l 257
 70 426 l 257
 524 603 l 257
 524 671 l 257
 0 671 l 257
 0 803 l 257
 1098 803 l 257
525 155 m 257
 524 452 524 452 524 454 c 257
 214 350 l 257
 525 155 l 257
EndSplineSet
EndChar

StartChar: u0996
Encoding: 1384 2454 1384
GlifName: u0996
Width: 674
VWidth: 0
GlyphClass: 2
Flags: W
LayerCount: 2
Fore
SplineSet
674 803 m 257
 674 671 l 257
 600 671 l 257
 600 1 l 257
 454 1 l 257
 454 777 l 257
 476 777 l 257
 476 803 l 257
 674 803 l 257
270 714 m 257
 402 714 l 257
 286 444 l 257
 285 445 l 257
 144 274 l 257
 453 160 l 257
 453 2 l 257
 0 180 l 257
 0 332 l 257
 246 562 l 257
 257 629 l 257
 237 572 237 572 187.5 536 c 128
 138 500 138 500 76 500 c 257
 -6 500 -6 500 -62 556.5 c 128
 -118 613 -118 613 -118 694 c 257
 -118 713 l 257
 -2 713 l 257
 -6 704 -6 704 -6 694 c 257
 -6 660 -6 660 18 636.5 c 128
 42 613 42 613 75.5 613 c 128
 109 613 109 613 131.5 636.5 c 128
 154 660 154 660 154 694 c 257
 154 704 154 704 152 713 c 257
 268 713 l 257
 268 701 l 257
 270 714 l 257
EndSplineSet
EndChar

StartChar: u0997
Encoding: 1388 2455 1388
GlifName: u0997
Width: 638
VWidth: 0
GlyphClass: 2
Flags: W
LayerCount: 2
Fore
SplineSet
19 383 m 257
 86 495 l 257
 93 488 93 488 108 483 c 257
 148 466 148 466 179.5 470 c 128
 211 474 211 474 231 498 c 257
 254 525 254 525 209 537 c 257
 197 540 197 540 155 547 c 257
 89 573 89 573 49 607.5 c 128
 9 642 9 642 1 684 c 128
 -7 726 -7 726 31 770 c 257
 78 827 78 827 178 838.5 c 128
 278 850 278 850 374 809 c 257
 382 805 382 805 438 778 c 257
 438 850 l 257
 590 850 l 257
 590 803 l 257
 638 803 l 257
 638 671 l 257
 590 671 l 257
 590 -2 l 257
 438 -2 l 257
 438 613 l 257
 423 621 423 621 367.5 649.5 c 128
 312 678 312 678 307 680 c 257
 266 696 266 696 246 692 c 128
 226 688 226 688 206 664 c 257
 181 638 181 638 185.5 628.5 c 128
 190 619 190 619 237 611 c 257
 276 594 276 594 305 579.5 c 128
 334 565 334 565 360.5 545 c 128
 387 525 387 525 398.5 505.5 c 128
 410 486 410 486 407.5 461.5 c 128
 405 437 405 437 383 411 c 257
 336 354 336 354 236 341.5 c 128
 136 329 136 329 41 370 c 257
 33 372 33 372 19 383 c 257
EndSplineSet
EndChar

StartChar: u0998
Encoding: 1392 2456 1392
GlifName: u0998
Width: 776
VWidth: 0
GlyphClass: 2
Flags: W
LayerCount: 2
Fore
SplineSet
86 672 m 257
 0 671 l 257
 0 803 l 257
 776 803 l 257
 776 671 l 257
 755 671 l 257
 755 0 l 257
 365 19 l 257
 237 19 237 19 146.5 86 c 128
 56 153 56 153 56 248 c 128
 56 343 56 343 131 410 c 257
 56 477 56 477 56 572 c 257
 56 625 56 625 86 672 c 257
603 671 m 257
 359 667 l 257
 295 667 295 667 251 639.5 c 128
 207 612 207 612 207 572 c 257
 207 535 207 535 234 508.5 c 128
 261 482 261 482 301 478 c 257
 308 478 308 478 314 478 c 128
 320 478 320 478 326 478 c 257
 333 479 333 479 340 480 c 257
 340 477 l 257
 340 344 l 257
 340 341 l 257
 333 342 333 342 326 343 c 257
 320 343 320 343 314 343 c 128
 308 343 308 343 301 343 c 257
 261 339 261 339 234 312 c 128
 207 285 207 285 207 248 c 257
 207 209 207 209 253 181.5 c 128
 299 154 299 154 365 154 c 257
 606 160 l 257
 603 671 l 257
EndSplineSet
EndChar

StartChar: u0999
Encoding: 1396 2457 1396
GlifName: u0999
Width: 521
VWidth: 0
GlyphClass: 2
Flags: W
LayerCount: 2
Fore
SplineSet
-40 700 m 257
 80 796 l 257
 262 691 l 257
 266 737 266 737 300 770 c 128
 334 803 334 803 381 807 c 257
 388 807 l 257
 390 807 l 257
 392 807 l 257
 446 807 446 807 483.5 769.5 c 128
 521 732 521 732 521 678 c 257
 521 646 521 646 482 606.5 c 128
 443 567 443 567 405 546 c 257
 353 448 l 257
 390 427 390 427 402.5 420 c 128
 415 413 415 413 445 391.5 c 128
 475 370 475 370 486.5 354.5 c 128
 498 339 498 339 509.5 313.5 c 128
 521 288 521 288 520 260 c 257
 517 151 517 151 442 77 c 128
 367 3 367 3 259 3 c 257
 197 3 197 3 148 25 c 128
 99 47 99 47 68.5 84 c 128
 38 121 38 121 22 166.5 c 128
 6 212 6 212 6 261 c 257
 151 261 l 257
 151 260 l 257
 151 215 151 215 182 185 c 128
 213 155 213 155 260 154 c 257
 307 155 307 155 338 185 c 128
 369 215 369 215 369 260 c 257
 369 302 369 302 342.5 331.5 c 128
 316 361 316 361 274 366 c 257
 259 366 l 257
 268 518 l 257
 268 518 l 257
 277 544 l 257
 271 567 l 257
 256 575 256 575 244 587 c 257
 -40 700 l 257
379 730 m 257
 379 731 l 257
 379 731 l 257
 360 727 360 727 348.5 712.5 c 128
 337 698 337 698 337 678 c 257
 337 650 337 650 358 635 c 257
 367 630 l 257
 373 627 373 627 379 626 c 257
 379 627 l 257
 387 625 387 625 391 625 c 128
 395 625 395 625 403 627 c 257
 403 626 l 257
 422 630 422 630 433.5 644.5 c 128
 445 659 445 659 445 678 c 257
 445 698 445 698 433.5 712.5 c 128
 422 727 422 727 403 731 c 257
 403 730 l 257
 395 732 395 732 391 732 c 128
 387 732 387 732 379 730 c 257
  PathStart: -1
EndSplineSet
EndChar

StartChar: u099A
Encoding: 1400 2458 1400
GlifName: u099A_
Width: 530
VWidth: 0
GlyphClass: 2
Flags: W
LayerCount: 2
Fore
SplineSet
202 158 m 257
 214 155 214 155 226 155 c 257
 271 155 271 155 302 185.5 c 128
 333 216 333 216 333 261 c 257
 333 306 333 306 302 337 c 128
 271 368 271 368 226 368 c 257
 214 368 214 368 202 365 c 257
 202 158 l 257
530 803 m 257
 530 671 l 257
 202 671 l 257
 202 518 l 257
 210 519 210 519 226 519 c 257
 333 519 333 519 408.5 443.5 c 128
 484 368 484 368 484 261 c 257
 484 154 484 154 408.5 79 c 128
 333 4 333 4 226 4 c 257
 220 3.5 l 258
 214 3 214 3 207.5 3 c 128
 201 3 201 3 190.5 3.5 c 128
 180 4 180 4 170 4.5 c 128
 160 5 160 5 148.5 7 c 128
 137 9 137 9 127 12 c 128
 117 15 117 15 107 20 c 128
 97 25 97 25 89 32 c 257
 72 46 72 46 62.5 76 c 128
 53 106 53 106 51 129 c 257
 50 153 l 257
 50 671 l 257
 0 671 l 257
 0 803 l 257
 530 803 l 257
EndSplineSet
EndChar

StartChar: u099B
Encoding: 1404 2459 1404
GlifName: u099B_
Width: 726
VWidth: 0
GlyphClass: 2
Flags: W
LayerCount: 2
Fore
SplineSet
726 803 m 257
 726 671 l 257
 215 671 l 257
 215 571 l 257
 221 572 221 572 234 572 c 257
 285 572 285 572 329.5 549 c 128
 374 526 374 526 402 486 c 257
 419 488 419 488 436 488 c 257
 537 488 537 488 609 429 c 128
 681 370 681 370 681 287 c 257
 681 226 681 226 640.5 179 c 128
 600 132 600 132 533 110 c 257
 709 112 l 257
 709 34 l 257
 388 31 l 257
 389 182 l 257
 412 175 412 175 436 175 c 257
 498 175 498 175 540.5 206 c 128
 583 237 583 237 583 286 c 257
 583 335 583 335 540 370.5 c 128
 497 406 497 406 437 406 c 257
 441 386 441 386 441 366 c 257
 441 281 441 281 380.5 220.5 c 128
 320 160 320 160 234 160 c 257
 221 160 221 160 215 161 c 257
 93 161 l 257
 93 671 l 257
 0 671 l 257
 0 803 l 257
 726 803 l 257
215 283 m 257
 225 281 225 281 234 281 c 257
 270 281 270 281 295 305.5 c 128
 320 330 320 330 320 366 c 257
 320 402 320 402 295 426.5 c 128
 270 451 270 451 234 451 c 257
 225 451 225 451 215 449 c 257
 215 283 l 257
EndSplineSet
EndChar

StartChar: u099C
Encoding: 1408 2460 1408
GlifName: u099C_
Width: 996
VWidth: 0
GlyphClass: 2
Flags: W
LayerCount: 2
Fore
SplineSet
996 803 m 257
 996 671 l 257
 441 671 l 257
 441 624.611 l 257
 990.7 628.5 l 257
 988.3 408.7 l 257
 960 417 960 417 929.9 416.7 c 256
 852 417 852 417 799.5 378.3 c 256
 747 340 747 340 746.7 278.3 c 256
 747 217 747 217 800.3 172.7 c 256
 854 129 854 129 929.9 128.7 c 256
 960 129 960 129 988.3 136.7 c 257
 988.3 30.2998 l 257
 960 26 960 26 929.9 25.5 c 256
 847 26 847 26 776.3 59.0996 c 256
 706 93 706 93 665.1 150.7 c 256
 624 209 624 209 624.3 277.5 c 256
 624 354 624 354 674.7 412.3 c 256
 725 471 725 471 808.3 498.3 c 257
 441 496.766 l 257
 441 484 l 257
 501 450 501 450 536.5 390.5 c 128
 572 331 572 331 570 260 c 256
 567 151 567 151 492 77 c 128
 417 3 417 3 309 3 c 256
 247 3 247 3 198 25 c 128
 149 47 149 47 118.5 84 c 128
 88 121 88 121 72 166.5 c 128
 56 212 56 212 56 261 c 257
 201 261 l 257
 201 260 l 258
 201 215 201 215 232 185 c 128
 263 155 263 155 310 154 c 256
 357 155 357 155 388 185 c 128
 419 215 419 215 419 260 c 256
 419 302 419 302 392.5 331.5 c 128
 366 361 366 361 324 366 c 257
 309 366 l 257
 309 518 l 257
 309 671 l 257
 0 671 l 257
 0 803 l 257
 996 803 l 257
EndSplineSet
EndChar

StartChar: u099D
Encoding: 1412 2461 1412
GlifName: u099D_
Width: 944
VWidth: 0
GlyphClass: 2
Flags: W
LayerCount: 2
Fore
SplineSet
670 671 m 257
 670 284 l 257
 673 287 l 257
 749 211 l 257
 749 671 l 257
 670 671 l 257
944 803 m 257
 944 671 l 257
 901 671 l 257
 901 0 l 257
 749 0 l 257
 747 -2 l 257
 670 75 l 257
 670 1 l 257
 526 1 l 257
 526 0 l 257
 70 274 l 257
 70 426 l 257
 524 603 l 257
 524 671 l 257
 0 671 l 257
 0 803 l 257
 944 803 l 257
524 153 m 257
 524 454 l 257
 214 350 l 257
 524 153 l 257
EndSplineSet
EndChar

StartChar: u099E
Encoding: 1416 2462 1416
GlifName: u099E_
Width: 730
VWidth: 0
GlyphClass: 2
Flags: W
LayerCount: 2
Fore
SplineSet
-37 318 m 257
 131 318 l 257
 105 287 105 287 105 248 c 257
 105 198 105 198 141 166 c 257
 408 166 l 257
 408 573 l 257
 376 610 376 610 327 610 c 257
 287 610 287 610 256 584 c 257
 256 752 l 257
 290 761 290 761 327 761 c 257
 410 761 410 761 474.5 714 c 128
 539 667 539 667 567 591 c 257
 594 605 594 605 611 607 c 257
 664 614 664 614 697.5 578.5 c 128
 731 543 731 543 730 485 c 257
 729 442 729 442 705 409 c 257
 730 375 730 375 730 333 c 257
 730 279 730 279 692.5 241.5 c 128
 655 204 655 204 601 204 c 257
 600.5 204 l 258
 600 204 600 204 599 204 c 257
 598 204 598 204 597 204 c 257
 593 204 593 204 590 205 c 257
 582 205 582 205 574 207 c 257
 575 -3 l 257
 408 -3 l 257
 408 0 l 257
 141 2 l 257
 58 26 58 26 5.5 93.5 c 128
 -47 161 -47 161 -47 248 c 257
 -47 285 -47 285 -37 318 c 257
573 286 m 257
 585 280 585 280 600 280 c 257
 624 280 624 280 639.5 295 c 128
 655 310 655 310 655 333 c 257
 655 352 655 352 643 366.5 c 128
 631 381 631 381 612 385 c 257
 600 432 l 257
 606 432 606 432 612 434 c 257
 612 433 l 257
 631 437 631 437 643 451.5 c 128
 655 466 655 466 655 485 c 257
 655 514 655 514 636.5 529.5 c 128
 618 545 618 545 589 544 c 257
 584 544 584 544 572 542 c 257
 573 286 l 257
EndSplineSet
EndChar

StartChar: u099F
Encoding: 1420 2463 1420
GlifName: u099F_
Width: 639
VWidth: 0
GlyphClass: 2
Flags: W
LayerCount: 2
Fore
SplineSet
616 184 m 257
 600 126 600 126 555.5 84.5 c 128
 511 43 511 43 455 23.5 c 128
 399 4 399 4 335 3.5 c 128
 271 3 271 3 214.5 22 c 128
 158 41 158 41 114 83 c 128
 70 125 70 125 53 184 c 257
 50 671 l 257
 0 671 l 257
 0 803 l 257
 252 803 l 257
 237 818 l 257
 214 841 214 841 202.5 892 c 128
 191 943 191 943 168 966 c 257
 152 982 152 982 121.5 993 c 128
 91 1004 91 1004 68 1007 c 257
 45 1010 l 257
 134 1098 l 257
 143 1097 143 1097 158 1095.5 c 128
 173 1094 173 1094 205.5 1083.5 c 128
 238 1073 238 1073 254 1057 c 257
 277 1034 277 1034 291 981 c 128
 305 928 305 928 328 905 c 257
 360 873 360 873 391 842 c 257
 424 809 424 809 494 803 c 257
 639 803 l 257
 639 671 l 257
 217 671 l 257
 217 185 l 257
 246 152 246 152 335 151.5 c 128
 424 151 424 151 452 185 c 257
 452 373 l 257
 619 373 l 257
 616 184 l 257
EndSplineSet
EndChar

StartChar: u09A0
Encoding: 1424 2464 1424
GlifName: u09A_0
Width: 751
VWidth: 0
GlyphClass: 2
Flags: W
LayerCount: 2
Fore
SplineSet
374 536 m 257
 374 536 l 257
726 803 m 257
 726 671 l 257
 615 671 l 257
 699 599 699 599 733 490 c 128
 767 381 767 381 737 268 c 257
 709 165 709 165 636 90.5 c 128
 563 16 563 16 464.5 -12 c 128
 366 -40 366 -40 266 -13 c 257
 230 -3 230 -3 197 13 c 257
 237 161 l 257
 233 168 l 257
 236 169 236 169 239 170 c 257
 240 173 l 257
 242 172 242 172 243 171 c 257
 250 174 250 174 257 178 c 257
 281 192 281 192 284.5 300 c 128
 288 408 288 408 276 518.5 c 128
 264 629 264 629 249 655 c 257
 244 664 244 664 238 671 c 257
 0 671 l 257
 0 803 l 257
 252 803 l 257
 237 818 l 257
 214 841 214 841 202.5 892 c 128
 191 943 191 943 168 966 c 257
 152 982 152 982 121.5 993 c 128
 91 1004 91 1004 68 1007 c 257
 45 1010 l 257
 134 1098 l 257
 143 1097 143 1097 158 1095.5 c 128
 173 1094 173 1094 205.5 1083.5 c 128
 238 1073 238 1073 254 1057 c 257
 277 1034 277 1034 291 981 c 128
 305 928 305 928 328 905 c 257
 360 873 360 873 391 842 c 257
 424 809 424 809 494 803 c 257
 726 803 l 257
386 616 m 257
 401 587 401 587 415 519 c 128
 429 451 429 451 437.5 377.5 c 128
 446 304 446 304 444.5 237 c 128
 443 170 443 170 429 144 c 257
 486 161 486 161 529.5 204.5 c 128
 573 248 573 248 589 309 c 257
 602 358 602 358 548.5 476.5 c 128
 495 595 495 595 452 652 c 257
 386 616 l 257
EndSplineSet
EndChar

StartChar: u09A1
Encoding: 1428 2465 1428
GlifName: u09A_1
Width: 616
VWidth: 0
GlyphClass: 2
Flags: W
LayerCount: 2
Fore
SplineSet
616 803 m 257
 616 671 l 257
 441 671 l 257
 441 484 l 257
 501 450 501 450 536.5 390.5 c 128
 572 331 572 331 570 260 c 257
 567 151 567 151 492 77 c 128
 417 3 417 3 309 3 c 257
 247 3 247 3 198 25 c 128
 149 47 149 47 118.5 84 c 128
 88 121 88 121 72 166.5 c 128
 56 212 56 212 56 261 c 257
 201 261 l 257
 201 260 l 257
 201 215 201 215 232 185 c 128
 263 155 263 155 310 154 c 257
 357 155 357 155 388 185 c 128
 419 215 419 215 419 260 c 257
 419 302 419 302 392.5 331.5 c 128
 366 361 366 361 324 366 c 257
 309 366 l 257
 309 518 l 257
 309 518 l 257
 309 671 l 257
 0 671 l 257
 0 803 l 257
 616 803 l 257
EndSplineSet
EndChar

StartChar: u09A2
Encoding: 1432 2466 1432
GlifName: u09A_2
Width: 639
VWidth: 0
GlyphClass: 2
Flags: W
LayerCount: 2
Fore
SplineSet
616 184 m 257
 600 126 600 126 555.5 84.5 c 128
 511 43 511 43 455 23.5 c 128
 399 4 399 4 335 3.5 c 128
 271 3 271 3 214.5 22 c 128
 158 41 158 41 114 83 c 128
 70 125 70 125 53 184 c 257
 50 671 l 257
 0 671 l 257
 0 803 l 257
 639 803 l 257
 639 671 l 257
 217 671 l 257
 217 185 l 257
 246 152 246 152 335 151.5 c 128
 424 151 424 151 452 185 c 257
 452 373 l 257
 619 373 l 257
 616 184 l 257
EndSplineSet
EndChar

StartChar: u09A3
Encoding: 1436 2467 1436
GlifName: u09A_3
Width: 562
VWidth: 0
GlyphClass: 2
Flags: W
LayerCount: 2
Fore
SplineSet
362 850 m 257
 514 850 l 257
 514 803 l 257
 562 803 l 257
 562 671 l 257
 514 671 l 257
 514 523 l 257
 515 509 515 509 515 494 c 257
 515 481 515 481 514 468 c 257
 514 -2 l 257
 362 -2 l 257
 362 468 l 257
 361 468 l 257
 361 470 361 470 362 471 c 257
 362 518 l 257
 354 555 354 555 325 578.5 c 128
 296 602 296 602 257 602 c 257
 213 602 213 602 182 570.5 c 128
 151 539 151 539 151 494 c 257
 151 481 151 481 154 468 c 257
 1 468 l 257
 0 481 0 481 0 494 c 257
 0 602 0 602 75 677 c 128
 150 752 150 752 257 752 c 257
 312 752 312 752 362 731 c 257
 362 850 l 257
EndSplineSet
EndChar

StartChar: u09A4
Encoding: 1440 2468 1440
GlifName: u09a4
Width: 726
VWidth: 0
GlyphClass: 2
Flags: W
LayerCount: 2
Fore
SplineSet
390 513 m 257
 396 634 l 257
 397 634 397 634 398 634 c 257
 525 634 525 634 614.5 542 c 128
 704 450 704 450 704 320 c 257
 704 189 704 189 614.5 97 c 128
 525 5 525 5 398 5 c 128
 271 5 271 5 181.5 97 c 128
 92 189 92 189 92 320 c 257
 148 325.5 l 258
 204 331 204 331 204 332 c 257
 204 329 204 329 204 326 c 257
 204 248 204 248 257.5 193 c 128
 311 138 311 138 387 138 c 128
 463 138 463 138 516.5 193 c 128
 570 248 570 248 570 326 c 257
 570 403 570 403 517.5 457.5 c 128
 465 512 465 512 390 513 c 257
726 803 m 257
 726 671 l 257
 0 671 l 257
 0 803 l 257
 726 803 l 257
EndSplineSet
EndChar

StartChar: u09A5
Encoding: 1444 2469 1444
GlifName: u09A_5
Width: 635
VWidth: 0
GlyphClass: 2
Flags: W
LayerCount: 2
Fore
SplineSet
86 766 m 257
 97 768 97 768 105 768 c 257
 165 767 165 767 225.5 745.5 c 128
 286 724 286 724 331 679.5 c 128
 376 635 376 635 380 579 c 257
 382 541 382 541 368 506.5 c 128
 354 472 354 472 332.5 447 c 128
 311 422 311 422 276.5 395.5 c 128
 242 369 242 369 214.5 353.5 c 128
 187 338 187 338 148.5 316 c 128
 110 294 110 294 92 283 c 257
 436 167 l 257
 436 671 l 257
 436 777 l 257
 436 803 l 257
 635 803 l 257
 635 671 l 257
 582 671 l 257
 582 1 l 257
 436 1 l 257
 436 16 l 257
 0 197 l 257
 0 349 l 257
 141 446 141 446 223 518 c 257
 232 526 232 526 241.5 541 c 128
 251 556 251 556 256 568 c 257
 261 579 l 257
 261 601 261 601 231.5 617 c 128
 202 633 202 633 168.5 640 c 128
 135 647 135 647 107 647 c 257
 97 647 97 647 86 644 c 257
 86 766 l 257
EndSplineSet
EndChar

StartChar: u09A6
Encoding: 1448 2470 1448
GlifName: u09A_6
Width: 726
VWidth: 0
GlyphClass: 2
Flags: W
LayerCount: 2
Fore
SplineSet
662 582 m 257
 662 2 l 257
 510 2 l 257
 510 400 l 257
 244 114 l 257
 92 114 l 257
 91 671 l 257
 0 671 l 257
 0 803 l 257
 726 803 l 257
 726 671 l 257
 243 671 l 257
 244 296 l 257
 510 582 l 257
 662 582 l 257
EndSplineSet
EndChar

StartChar: u09A7
Encoding: 1452 2471 1452
GlifName: u09A_7
Width: 652
VWidth: 0
GlyphClass: 2
Flags: W
LayerCount: 2
Fore
SplineSet
652 803 m 257
 652 671 l 257
 600 671 l 257
 600 1 l 257
 454 1 l 257
 454 3 l 257
 0 274 l 257
 0 426 l 257
 139 480 l 257
 92 534 92 534 92 606 c 257
 92 686 92 686 148.5 743 c 128
 205 800 205 800 286 800 c 257
 305 800 l 257
 305 684 l 257
 296 686 296 686 286 686 c 257
 252 686 252 686 228.5 662.5 c 128
 205 639 205 639 205 606 c 257
 205 578 205 578 221.5 557 c 128
 238 536 238 536 265 529 c 257
 454 603 l 257
 454 777 l 257
 454 803 l 257
 652 803 l 257
454 155 m 257
 454 454 l 257
 144 350 l 257
 454 155 l 257
EndSplineSet
EndChar

StartChar: u09A8
Encoding: 1456 2472 1456
GlifName: u09A_8
Width: 661
VWidth: 0
GlyphClass: 2
Flags: W
LayerCount: 2
Fore
SplineSet
661 803 m 257
 661 671 l 257
 616 671 l 257
 616 123 l 257
 622 97 622 97 622 70 c 257
 622 56 622 56 620 44 c 257
 616 44 l 257
 616 -2 l 257
 464 -2 l 257
 464 107 l 257
 453 138 453 138 425.5 157 c 128
 398 176 398 176 364 176 c 257
 319 176 319 176 288.5 145 c 128
 258 114 258 114 258 70 c 257
 258 56 258 56 261 44 c 257
 108 44 l 257
 106 56 106 56 106 70 c 257
 106 177 106 177 181.5 252.5 c 128
 257 328 257 328 364 328 c 257
 416 328 416 328 464 307 c 257
 464 671 l 257
 0 671 l 257
 0 803 l 257
 464 803 l 257
 616 803 l 257
 661 803 l 257
EndSplineSet
EndChar

StartChar: u09AA
Encoding: 1460 2474 1460
GlifName: u09A_A_
Width: 569
VWidth: 0
GlyphClass: 2
Flags: W
LayerCount: 2
Fore
SplineSet
175 576 m 257
 188 614 188 614 217 641.5 c 128
 246 669 246 669 284 680 c 257
 252 698 252 698 213 697.5 c 128
 174 697 174 697 140 677 c 257
 77 641 77 641 67 570 c 257
 175 576 l 257
302 365 m 257
 294 367 294 367 286 369 c 257
 279 371 279 371 272 374.5 c 128
 265 378 265 378 258.5 383.5 c 128
 252 389 252 389 247 393.5 c 128
 242 398 242 398 236 406 c 128
 230 414 230 414 226.5 418.5 c 128
 223 423 223 423 217 433.5 c 128
 211 444 211 444 208.5 447.5 c 128
 206 451 206 451 200.5 461.5 c 128
 195 472 195 472 194 474 c 257
 93 467 l 257
 102 455 102 455 114 444 c 257
 26 394 l 257
 11 411 11 411 -1 431 c 257
 -50 517 -50 517 -22.5 613.5 c 128
 5 710 5 710 93 761 c 257
 162 799 162 799 237 793.5 c 128
 312 788 312 788 369 742 c 257
 369 845 l 257
 521 845 l 257
 521 801 l 257
 569 801 l 257
 569 669 l 257
 521 669 l 257
 521 -4 l 257
 369 -4 l 257
 369 487 l 257
 367 485 l 257
 368 591 l 257
 361 587 l 257
 360 583 l 257
 358 583 358 583 356 584 c 257
 354 583 l 257
 354 584 354 584 354 585 c 257
 349 587 349 587 345 589 c 257
 318 596 318 596 294 582.5 c 128
 270 569 270 569 263 541 c 257
 256 515 256 515 269.5 491 c 128
 283 467 283 467 310 460 c 257
 318 458 318 458 326 458 c 257
 302 365 l 257
175 576 m 257
 175 576 l 257
EndSplineSet
EndChar

StartChar: u09AB
Encoding: 1464 2475 1464
GlifName: u09A_B_
Width: 1167
VWidth: 0
GlyphClass: 2
Flags: W
LayerCount: 2
Fore
SplineSet
77 180 m 257
 108 327 l 257
 379 487 l 257
 118 671 l 257
 0 671 l 257
 0 803 l 257
 1167 803 l 257
 1167 671 l 257
 357 671 l 257
 540 569 l 257
 509 422 l 257
 302 262 l 257
 644 157 l 257
 644 323 l 257
 645 323 l 257
 646 429 646 429 721 503.5 c 128
 796 578 796 578 902 578 c 257
 1009 578 1009 578 1084.5 503 c 128
 1160 428 1160 428 1160 320 c 257
 1160 307 1160 307 1158 294 c 257
 1005 294 l 257
 1008 307 1008 307 1008 320 c 257
 1008 366 1008 366 977 397 c 128
 946 428 946 428 902 428 c 257
 858 428 858 428 827 397.5 c 128
 796 367 796 367 796 323 c 257
 796 310 l 257
 797 302 797 302 799 294 c 257
 796 294 l 257
 796 -2 l 257
 644 -2 l 257
 644 0 l 257
 77 180 l 257
EndSplineSet
EndChar

StartChar: u09AC
Encoding: 1468 2476 1468
GlifName: u09A_C_
Width: 723
VWidth: 0
GlyphClass: 2
Flags: W
LayerCount: 2
Fore
SplineSet
723 803 m 257
 723 671 l 257
 670 671 l 257
 670 1 l 257
 524 1 l 257
 524 3 l 257
 70 274 l 257
 70 426 l 257
 524 603 l 257
 524 671 l 257
 0 671 l 257
 0 803 l 257
 723 803 l 257
524 155 m 257
 524 454 l 257
 214 350 l 257
 524 155 l 257
EndSplineSet
EndChar

StartChar: u09AD
Encoding: 1472 2477 1472
GlifName: u09A_D_
Width: 726
VWidth: 0
GlyphClass: 2
Flags: W
LayerCount: 2
Fore
SplineSet
726 803 m 257
 726 671 l 257
 0 671 l 257
 0 803 l 257
 726 803 l 257
395 617 m 257
 396 634 l 257
 397 634 397 634 398 634 c 257
 450 634 450 634 498 617 c 257
 509 617 l 257
 509 613 l 257
 596 578 596 578 650 498.5 c 128
 704 419 704 419 704 320 c 257
 704 189 704 189 614.5 97 c 128
 525 5 525 5 398 5 c 128
 271 5 271 5 181.5 97 c 128
 92 189 92 189 92 320 c 257
 148 325.5 l 258
 204 331 204 331 204 332 c 257
 204 329 204 329 204 326 c 257
 204 248 204 248 257.5 193 c 128
 311 138 311 138 387 138 c 128
 463 138 463 138 516.5 193 c 128
 570 248 570 248 570 326 c 257
 570 378 570 378 544.5 421.5 c 128
 519 465 519 465 477 490 c 257
 450 450 450 450 408 427 c 128
 366 404 366 404 317 404 c 257
 236 404 236 404 179.5 460.5 c 128
 123 517 123 517 123 598 c 257
 123 617 l 257
 239 617 l 257
 236 608 236 608 236 598 c 257
 236 564 236 564 259.5 540.5 c 128
 283 517 283 517 317 517 c 257
 344 517 344 517 365 533 c 128
 386 549 386 549 393 575 c 257
 395 610 l 257
 394 614 394 614 393 617 c 257
 395 617 l 257
EndSplineSet
EndChar

StartChar: u09AE
Encoding: 1476 2478 1476
GlifName: u09A_E_
Width: 776
VWidth: 0
GlyphClass: 2
Flags: W
LayerCount: 2
Fore
SplineSet
313 446 m 257
 313 446 l 257
776 803 m 257
 776 671 l 257
 755 671 l 257
 755 0 l 257
 603 0 l 257
 601 -2 l 257
 485 114 l 257
 450 63 450 63 394 33 c 128
 338 3 338 3 273 3 c 257
 272 3 272 3 271 3 c 258
 270 3 l 257
 269 3 l 257
 267 3 267 3 265 3 c 257
 257 3 257 3 251 4 c 257
 150 10 150 10 80.5 84 c 128
 11 158 11 158 11 260 c 257
 11 319 11 319 35.5 370 c 128
 60 421 60 421 103 458 c 257
 33 558 33 558 97 671 c 257
 0 671 l 257
 0 803 l 257
 776 803 l 257
271 367 m 257
 258 367 258 367 247 364 c 257
 247 365 l 257
 210 357 210 357 186 328 c 128
 162 299 162 299 162 260 c 257
 162 222 162 222 186 193 c 128
 210 164 210 164 247 156 c 257
 247 157 l 257
 258 154 258 154 271 154 c 257
 283 154 283 154 295 157 c 257
 295 156 l 257
 332 164 332 164 356 193 c 128
 380 222 380 222 380 260 c 257
 380 299 380 299 356 328 c 128
 332 357 332 357 295 365 c 257
 295 364 l 257
 283 367 283 367 271 367 c 257
603 195 m 257
 603 671 l 257
 356 671 l 257
 346 664 346 664 342 666 c 257
 337 669 337 669 331 671 c 257
 292 671 l 257
 266 660 266 660 232 603 c 257
 208 562 208 562 227 515 c 257
 239 517 239 517 251 517 c 257
 257 518 257 518 265 518 c 257
 267 518 267 518 269 518 c 257
 270 518 l 257
 271 518 271 518 273 518 c 257
 380 518 380 518 455.5 442.5 c 128
 531 367 531 367 531 260 c 257
 531 258 531 258 531 256 c 257
 603 195 l 257
EndSplineSet
EndChar

StartChar: u09AF
Encoding: 1480 2479 1480
GlifName: u09A_F_
Width: 841
VWidth: 0
GlyphClass: 2
Flags: W
LayerCount: 2
Fore
SplineSet
77 180 m 257
 108 327 l 257
 379 487 l 257
 118 671 l 257
 0 671 l 257
 0 803 l 257
 644 803 l 257
 796 803 l 257
 841 803 l 257
 841 671 l 257
 796 671 l 257
 796 -2 l 257
 644 -2 l 257
 644 0 l 257
 77 180 l 257
644 157 m 257
 644 671 l 257
 357 671 l 257
 540 569 l 257
 509 422 l 257
 302 262 l 257
 644 157 l 257
EndSplineSet
EndChar

StartChar: u09B0
Encoding: 1484 2480 1484
GlifName: u09B_0
Width: 723
VWidth: 0
GlyphClass: 2
Flags: W
LayerCount: 2
Fore
SplineSet
723 803 m 257
 723 671 l 257
 670 671 l 257
 670 1 l 257
 523 1 l 257
 523 3 l 257
 70 274 l 257
 70 426 l 257
 524 603 l 257
 524 671 l 257
 0 671 l 257
 0 803 l 257
 723 803 l 257
94 -2 m 257
 94 140 l 257
 246 140 l 257
 246 -2 l 257
 94 -2 l 257
523 155 m 257
 523 454 l 257
 214 350 l 257
 523 155 l 257
EndSplineSet
EndChar

StartChar: u09B2
Encoding: 1488 2482 1488
GlifName: u09B_2
Width: 943
VWidth: 0
GlyphClass: 2
Flags: W
LayerCount: 2
Fore
SplineSet
943 803 m 257
 943 671 l 257
 895 671 l 257
 895 47 l 257
 895 45 895 45 895 44 c 257
 895 -2 l 257
 743 -2 l 257
 743 44 l 257
 742 44 l 257
 743 45 743 45 743 46 c 257
 743 93 l 257
 735 130 735 130 706 153 c 128
 677 176 677 176 638 176 c 257
 600 176 600 176 571 152.5 c 128
 542 129 542 129 535 92 c 257
 536 79 536 79 536 66 c 257
 536 56 536 56 535 45 c 257
 535 44 535 44 536 44 c 257
 535 44 l 257
 535 42 535 42 535 40 c 257
 382 40 l 257
 382 42 382 42 383 44 c 257
 382 57 382 57 382 70 c 257
 382 80 382 80 382 91 c 257
 374 127 374 127 345 150 c 128
 316 173 316 173 278 173 c 257
 234 173 234 173 203 142 c 128
 172 111 172 111 172 66 c 257
 172 53 172 53 175 40 c 257
 22 40 l 257
 21 53 21 53 21 66 c 257
 21 173 21 173 96 248.5 c 128
 171 324 171 324 278 324 c 257
 380 324 380 324 454 255 c 257
 524 328 524 328 626 328 c 257
 688 328 688 328 743 300 c 257
 743 671 l 257
 0 671 l 257
 0 803 l 257
 743 803 l 257
 895 803 l 257
 943 803 l 257
EndSplineSet
EndChar

StartChar: u09B6
Encoding: 1492 2486 1492
GlifName: u09B_6
Width: 592
VWidth: 0
GlyphClass: 2
Flags: W
LayerCount: 2
Fore
SplineSet
-50 706 m 257
 -31 706 l 257
 43 706 43 706 98 657.5 c 128
 153 609 153 609 162 538 c 257
 170 609 170 609 225 657.5 c 128
 280 706 280 706 354 706 c 257
 373 706 l 257
 373 701 l 257
 392 684 l 257
 392 847 l 257
 544 847 l 257
 544 803 l 257
 592 803 l 257
 592 671 l 257
 544 671 l 257
 544 -2 l 257
 392 -2 l 257
 392 575 l 257
 373 594 l 257
 373 590 l 257
 364 592 364 592 354 592 c 257
 320 592 320 592 296.5 569.5 c 128
 273 547 273 547 273 513.5 c 128
 273 480 273 480 296.5 456 c 128
 320 432 320 432 354 432 c 257
 364 432 364 432 373 436 c 257
 373 320 l 257
 354 320 l 257
 280 320 280 320 225 368 c 128
 170 416 170 416 162 489 c 257
 153 416 153 416 98 368 c 128
 43 320 43 320 -31 320 c 257
 -50 320 l 257
 -50 436 l 257
 -41 432 -41 432 -31 432 c 257
 3 432 3 432 26.5 456 c 128
 50 480 50 480 50 513.5 c 128
 50 547 50 547 26.5 569.5 c 128
 3 592 3 592 -31 592 c 257
 -41 592 -41 592 -50 590 c 257
 -50 706 l 257
EndSplineSet
EndChar

StartChar: u09B7
Encoding: 1496 2487 1496
GlifName: u09B_7
Width: 841
VWidth: 0
GlyphClass: 2
Flags: W
LayerCount: 2
Fore
SplineSet
644 671 m 257
 357 671 l 257
 644 529 l 257
 644 671 l 257
644 157 m 257
 644 382 l 257
 512 437 l 257
 302 262 l 257
 644 157 l 257
77 180 m 257
 108 327 l 257
 379 487 l 257
 118 671 l 257
 0 671 l 257
 0 803 l 257
 841 803 l 257
 841 671 l 257
 796 671 l 257
 796 -2 l 257
 644 -2 l 257
 644 0 l 257
 77 180 l 257
EndSplineSet
EndChar

StartChar: u09B8
Encoding: 1500 2488 1500
GlifName: u09B_8
Width: 776
VWidth: 0
GlyphClass: 2
Flags: W
LayerCount: 2
Fore
SplineSet
55 95 m 257
 130 220 l 257
 142 210 142 210 152 205 c 257
 190 183 190 183 232 193.5 c 128
 274 204 274 204 297 240 c 257
 319 279 319 279 294.5 312.5 c 128
 270 346 270 346 227 353 c 257
 179 379 179 379 143.5 412 c 128
 108 445 108 445 86.5 485 c 128
 65 525 65 525 67 573 c 128
 69 621 69 621 98 671 c 257
 0 671 l 257
 0 803 l 257
 776 803 l 257
 776 671 l 257
 755 671 l 257
 755 0 l 257
 603 0 l 257
 601 -2 l 257
 429 170 l 257
 428 169 428 169 427 168 c 257
 375 80 375 80 272.5 54.5 c 128
 170 29 170 29 76 80 c 257
 73 83 73 83 65.5 87.5 c 128
 58 92 58 92 55 95 c 257
446 326 m 257
 446 328 l 257
 603 195 l 257
 603 671 l 257
 356 671 l 257
 346 664 346 664 342 666 c 257
 337 669 337 669 331 671 c 257
 292 671 l 257
 266 660 266 660 232 603 c 257
 207 562 207 562 227.5 513 c 128
 248 464 248 464 296 456 c 257
 414 393 414 393 446 326 c 257
EndSplineSet
EndChar

StartChar: u09B9
Encoding: 1504 2489 1504
GlifName: u09B_9
Width: 689
VWidth: 0
GlyphClass: 2
Flags: W
LayerCount: 2
Fore
SplineSet
689 803 m 257
 689 671 l 257
 0 671 l 257
 0 803 l 257
 689 803 l 257
236 472 m 257
 128 578 l 257
 205 655 205 655 311.5 656 c 128
 418 657 418 657 495 580 c 257
 571 503 571 503 570 397 c 128
 569 291 569 291 492 214 c 257
 455 176 455 176 412 156 c 257
 593 -1 l 257
 434 -1 l 257
 226 153 l 257
 173 175 173 175 131 217 c 257
 233 320 l 257
 234 319 l 257
 266 287 266 287 309 287.5 c 128
 352 288 352 288 386 321 c 257
 419 355 419 355 419.5 398 c 128
 420 441 420 441 388 473 c 257
 356 505 356 505 313 505 c 128
 270 505 270 505 236 472 c 257
EndSplineSet
EndChar

StartChar: u09BC
Encoding: 1508 2492 1508
GlifName: u09B_C_
Width: 0
VWidth: 0
GlyphClass: 4
Flags: W
LayerCount: 2
Fore
SplineSet
-510 -197 m 257
 -510 -55 l 257
 -358 -55 l 257
 -358 -197 l 257
 -510 -197 l 257
EndSplineSet
EndChar

StartChar: u09BD
Encoding: 1512 2493 1512
GlifName: u09B_D_
Width: 689
VWidth: 0
GlyphClass: 2
Flags: W
LayerCount: 2
Fore
SplineSet
199 483 m 257
 199 467 l 257
 189 475 l 257
 188 474 188 474 186 472 c 257
 172 486 172 486 154 503 c 257
 -50 671 l 257
 -50 803 l 257
 158 633 l 257
 228 666 228 666 307.5 652 c 128
 387 638 387 638 445 580 c 257
 521 503 521 503 520 397 c 128
 519 291 519 291 442 214 c 257
 405 176 405 176 362 156 c 257
 543 -1 l 257
 384 -1 l 257
 176 153 l 257
 123 175 123 175 81 217 c 257
 183 320 l 257
 184 319 l 257
 216 287 216 287 259 287.5 c 128
 302 288 302 288 336 321 c 257
 369 355 369 355 369.5 398 c 128
 370 441 370 441 338 473 c 257
 309 502 309 502 270.5 504.5 c 128
 232 507 232 507 199 483 c 257
EndSplineSet
EndChar

StartChar: u09BE
Encoding: 1516 2494 1516
GlifName: u09B_E_
Width: 295
VWidth: 0
GlyphClass: 2
Flags: W
LayerCount: 2
Fore
SplineSet
95 853 m 257
 247 853 l 257
 247 800 l 257
 295 800 l 257
 295 677 l 257
 247 677 l 257
 248 4 l 257
 96 4 l 257
 93 591 l 257
 0 678.434 l 257
 0 800 l 257
 95 694 l 257
 95 853 l 257
EndSplineSet
EndChar

StartChar: u09BF
Encoding: 1520 2495 1520
GlifName: u09B_F_
Width: 275
VWidth: 0
GlyphClass: 2
Flags: W
LayerCount: 2
Fore
SplineSet
272 803 m 257
 272 671 l 257
 227 671 l 257
 227 -2 l 257
 75 -2 l 257
 75 671 l 257
 0 671 l 257
 0 803 l 257
 75 803 l 257
 77 803 l 257
 76 814 76 814 76 825 c 257
 76 932 76 932 151 1007.5 c 128
 226 1083 226 1083 333 1083 c 128
 440 1083 440 1083 515.5 1007.5 c 128
 591 932 591 932 591 825 c 257
 591 812 591 812 590 799 c 257
 437 799 l 257
 440 812 440 812 440 825 c 257
 440 870 440 870 409 901 c 128
 378 932 378 932 333 932 c 257
 289 932 289 932 258 901 c 128
 227 870 227 870 227 825 c 257
 227 814 227 814 229 803 c 257
 272 803 l 257
EndSplineSet
EndChar

StartChar: u09C0
Encoding: 1524 2496 1524
GlifName: u09C_0
Width: 247
VWidth: 0
GlyphClass: 2
Flags: W
LayerCount: 2
Fore
SplineSet
244 803 m 257
 244 671 l 257
 199 671 l 257
 199 -2 l 257
 47 -2 l 257
 47 671 l 257
 -3 671 l 257
 -3 803 l 257
 47 803 l 257
 48 803 l 257
 50 816 50 816 50 832 c 257
 50 877 50 877 19 908 c 128
 -12 939 -12 939 -57 939 c 257
 -101 939 -101 939 -132 908 c 128
 -163 877 -163 877 -163 832 c 257
 -163 819 -163 819 -160 806 c 257
 -313 806 l 257
 -314 819 -314 819 -314 832 c 257
 -314 939 -314 939 -239 1014.5 c 128
 -164 1090 -164 1090 -57 1090 c 128
 50 1090 50 1090 125.5 1014.5 c 128
 201 939 201 939 201 832 c 257
 201 816 201 816 200 803 c 257
 244 803 l 257
EndSplineSet
EndChar

StartChar: u09C1
Encoding: 1528 2497 1528
GlifName: u09C_1
Width: 0
VWidth: 0
GlyphClass: 4
Flags: W
LayerCount: 2
Fore
SplineSet
-520 -117 m 257
 -530 -118 -530 -118 -539 -120 c 257
 -539 -119 l 257
 -569 -125 -569 -125 -588 -148.5 c 128
 -607 -172 -607 -172 -607 -203 c 257
 -607 -234 -607 -234 -588 -257 c 128
 -569 -280 -569 -280 -539 -286 c 257
 -539 -285 l 257
 -530 -288 -530 -288 -520 -288 c 257
 -510 -288 -510 -288 -501 -285 c 257
 -501 -286 l 257
 -471 -280 -471 -280 -452 -257 c 128
 -433 -234 -433 -234 -433 -203 c 257
 -433 -172 -433 -172 -452 -148.5 c 128
 -471 -125 -471 -125 -501 -119 c 257
 -501 -120 l 257
 -510 -118 -510 -118 -520 -117 c 257
-522 -409 m 257
 -523 -409 -523 -409 -524 -409 c 257
 -531 -409 -531 -409 -536 -408 c 257
 -617 -403 -617 -403 -672.5 -343.5 c 128
 -728 -284 -728 -284 -728 -203 c 257
 -728 -121 -728 -121 -672.5 -62 c 128
 -617 -3 -617 -3 -536 3 c 257
 -531 3 -531 3 -524 3 c 257
 -523 3 -523 3 -522 3 c 257
 -521 3 l 257
 -520 3 -520 3 -518 3 c 257
 -454 3 -454 3 -402.5 -32 c 128
 -351 -67 -351 -67 -327 -124 c 257
 0 4 l 257
 0 -118 l 257
 -294 -217 l 257
 0 -316 l 257
 0 -438 l 257
 -339 -305 l 257
 -366 -352 -366 -352 -413.5 -380.5 c 128
 -461 -409 -461 -409 -518 -409 c 257
 -519 -409 -519 -409 -519.5 -409 c 128
 -520 -409 -520 -409 -520.5 -409 c 128
 -521 -409 -521 -409 -522 -409 c 257
  PathStart: -1
EndSplineSet
EndChar

StartChar: u09C2
Encoding: 1532 2498 1532
GlifName: u09C_2
Width: 0
VWidth: 0
GlyphClass: 4
Flags: W
LayerCount: 2
Fore
SplineSet
-27 16 m 257
 353 -178 l 257
 292 -284 l 257
 51 -161 l 257
 22 -262 22 -262 -69.5 -313.5 c 128
 -161 -365 -161 -365 -262 -338 c 257
 -366 -310 -366 -310 -419 -218 c 128
 -472 -126 -472 -126 -445 -22 c 257
 -441 -9 -441 -9 -437 3 c 257
 -289 -37 l 257
 -295 -48 -295 -48 -299 -61 c 257
 -310 -105 -310 -105 -288 -143 c 128
 -266 -181 -266 -181 -223 -192 c 257
 -180 -204 -180 -204 -142.5 -182 c 128
 -105 -160 -105 -160 -93 -116 c 257
 -89 -103 -89 -103 -89 -90 c 257
 -87 -91 l 257
 -89 -90 l 257
 -27 16 l 257
EndSplineSet
EndChar

StartChar: u09C3
Encoding: 1536 2499 1536
GlifName: u09C_3
Width: 0
VWidth: 0
GlyphClass: 4
Flags: W
LayerCount: 2
Fore
SplineSet
154 4 m 257
 154 -118 l 257
 -139 -217 l 257
 154 -316 l 257
 154 -438 l 257
 -254 -278 l 257
 -254 -156 l 257
 154 4 l 257
EndSplineSet
EndChar

StartChar: u09C4
Encoding: 1540 2500 1540
GlifName: u09C_4
Width: 0
VWidth: 0
GlyphClass: 4
Flags: W
LayerCount: 2
Fore
SplineSet
154 4 m 257
 154 -118 l 257
 108 -133 l 257
 154 -149 l 257
 154 -271 l 257
 -55 -188 l 257
 -139 -217 l 257
 154 -316 l 257
 154 -438 l 257
 -254 -278 l 257
 -254 -156 l 257
 -196 -133 l 257
 -254 -111 l 257
 -254 11 l 257
 154 171 l 257
 154 49 l 257
 -139 -50 l 257
 -55 -78 l 257
 154 4 l 257
EndSplineSet
EndChar

StartChar: u09C7
Encoding: 1544 2503 1544
GlifName: u09C_7
Width: 456
VWidth: 0
GlyphClass: 2
Flags: W
LayerCount: 2
Fore
SplineSet
454 803 m 257
 454 671 l 257
 454 671 l 257
 389 661 l 257
 335 661 335 661 285.5 608.5 c 128
 236 556 236 556 209.5 486 c 128
 183 416 183 416 183 356 c 257
 183 269 183 269 243 207 c 128
 303 145 303 145 389 145 c 257
 423 145 423 145 454 156 c 257
 454 10 l 257
 422 4 422 4 389 4 c 257
 295 4 295 4 216 51 c 128
 137 98 137 98 91 180 c 128
 45 262 45 262 45 358 c 257
 45 436 45 436 75 520 c 128
 105 604 105 604 157 671 c 257
 0 671 l 257
 0 803 l 257
 454 803 l 257
EndSplineSet
EndChar

StartChar: u09C8
Encoding: 1548 2504 1548
GlifName: u09C_8
Width: 461
VWidth: 0
GlyphClass: 2
Flags: W
LayerCount: 2
Fore
SplineSet
459 803 m 257
 459 678 l 257
 454 678 l 257
 389 668 l 257
 335 668 335 668 285.5 612 c 128
 236 556 236 556 209.5 486 c 128
 183 416 183 416 183 356 c 257
 183 269 183 269 243 207 c 128
 303 145 303 145 389 145 c 257
 423 145 423 145 454 156 c 257
 454 10 l 257
 422 4 422 4 389 4 c 257
 295 4 295 4 216 51 c 128
 137 98 137 98 91 180 c 128
 45 262 45 262 45 358 c 257
 45 436 45 436 75 523.5 c 128
 105 611 105 611 157 678 c 257
 0 678 l 257
 0 803 l 257
 333 803 l 257
 324 849 324 849 300 873 c 257
 268 904 268 904 237 935 c 257
 213 959 213 959 160.5 972.5 c 128
 108 986 108 986 85 1010 c 257
 69 1025 69 1025 58.5 1055 c 128
 48 1085 48 1085 46 1108 c 257
 44 1130 l 257
 132 1218 l 257
 133 1209 133 1209 135 1193.5 c 128
 137 1178 137 1178 148.5 1144.5 c 128
 160 1111 160 1111 176 1095 c 257
 198 1073 198 1073 249.5 1061 c 128
 301 1049 301 1049 324 1027 c 257
 394 956 l 257
 408 942 408 942 416.5 921.5 c 128
 425 901 425 901 427 882 c 128
 429 863 429 863 429 846 c 128
 429 829 429 829 428 818.5 c 258
 427 808 l 257
 422 803 l 257
 459 803 l 257
EndSplineSet
EndChar

StartChar: u09CD
Encoding: 1560 2509 1560
GlifName: u09C_D_
Width: 0
VWidth: 0
GlyphClass: 4
Flags: W
LayerCount: 2
Fore
SplineSet
-154 -1 m 257
 -10 -186 l 257
 -116 -247 l 257
 -260 -62 l 257
 -154 -1 l 257
EndSplineSet
EndChar

StartChar: u09CE
Encoding: 1564 2510 1564
GlifName: u09C_E_
Width: 512
VWidth: 0
GlyphClass: 2
Flags: W
LayerCount: 2
Fore
SplineSet
216.447 -16 m 257
 224.447 7 224.447 7 278.447 81 c 128
 332.447 155 332.447 155 323.947 198 c 128
 315.447 241 315.447 241 298.447 271.5 c 128
 281.447 302 281.447 302 263.447 301 c 257
 208.447 314 208.447 314 165.947 336.5 c 128
 123.447 359 123.447 359 91.44715 394 c 128
 59.4473 429 59.4473 429 51.4473 475 c 128
 43.4473 521 43.4473 521 57.4473 581 c 257
 85.4473 679 85.4473 679 178.44715 730 c 128
 271.447 781 271.447 781 374.447 757 c 257
 378.447 755 378.447 755 386.947 752.5 c 128
 395.447 750 395.447 750 399.447 748 c 257
 359.447 608 l 257
 344.447 614 344.447 614 333.447 617 c 257
 291.447 627 291.447 627 253.447 606 c 128
 215.447 585 215.447 585 203.447 543 c 257
 190.447 497 190.447 497 222.947 455.5 c 128
 255.447 414 255.447 414 303.447 418 c 257
 350.447 407 350.447 407 391.447 363.5 c 128
 432.447 320 432.447 320 455.947 261 c 128
 479.447 202 479.447 202 429.447 104.5 c 128
 379.447 7 379.447 7 361.447 -52 c 257
 216.447 -16 l 257
EndSplineSet
EndChar

StartChar: u09D7
Encoding: 1568 2519 1568
GlifName: u09D_7
Width: 254
VWidth: 0
GlyphClass: 2
Flags: W
LayerCount: 2
Fore
SplineSet
256 803 m 257
 256 671 l 257
 211 671 l 257
 211 -2 l 257
 59 -2 l 257
 59 671 l 257
 1 671 l 257
 1 803 l 257
 59 803 l 257
 69 803 l 257
 60 827 60 827 45 842 c 257
 13 873 13 873 -18 904 c 257
 -42 928 -42 928 -94.5 941.5 c 128
 -147 955 -147 955 -170 979 c 257
 -186 994 -186 994 -196.5 1024 c 128
 -207 1054 -207 1054 -209 1077 c 257
 -211 1099 l 257
 -123 1157 l 257
 -122 1148 -122 1148 -120 1132.5 c 128
 -118 1117 -118 1117 -106.5 1098.5 c 128
 -95 1080 -95 1080 -79 1064 c 257
 -57 1042 -57 1042 -5.5 1030 c 256
 99 1006 99 1006 139 925 c 257
 177 887 177 887 174 803 c 257
 211 803 l 257
 256 803 l 257
EndSplineSet
EndChar

StartChar: u09E0
Encoding: 1584 2528 1584
GlifName: u09E_0
Width: 1294
VWidth: 0
GlyphClass: 2
Flags: W
LayerCount: 2
Fore
SplineSet
872 777 m 257
 1018 777 l 257
 1018 286 l 257
 1092 211 l 257
 1094 795 l 257
 1294 795 l 257
 1294 663 l 257
 1244 663 l 257
 1244 0 l 257
 1242 0 l 257
 1242 -89 l 257
 948 -188 l 257
 1242 -287 l 257
 1242 -409 l 257
 833 -249 l 257
 833 -127 l 257
 1159 0 l 257
 1093 0 l 257
 1090 -2 l 257
 1018 70 l 257
 1018 1 l 257
 871 1 l 257
 871 3 l 257
 418 180 l 257
 418 332 l 257
 665 562 l 257
 675 629 l 257
 655 572 655 572 605.5 536 c 128
 556 500 556 500 494 500 c 257
 449 500 449 500 409.5 519 c 128
 370 538 370 538 343 571 c 257
 316 538 316 538 277 519 c 128
 238 500 238 500 194 500 c 257
 113 500 113 500 56.5 556.5 c 128
 0 613 0 613 0 694 c 257
 0 713 l 257
 116 713 l 257
 113 704 113 704 113 694 c 257
 113 660 113 660 136.5 636.5 c 128
 160 613 160 613 194 613 c 128
 228 613 228 613 250.5 636.5 c 128
 273 660 273 660 273 694 c 257
 273 704 273 704 270 713 c 257
 300 713 l 257
 386 713 l 257
 416 713 l 257
 413 704 413 704 413 694 c 257
 413 660 413 660 436.5 636.5 c 128
 460 613 460 613 494 613 c 128
 528 613 528 613 550.5 636.5 c 128
 573 660 573 660 573 694 c 257
 573 767 573 767 570 776 c 257
 872 777 l 257
871 160 m 257
 871 709 l 257
 704 444 l 257
 703 445 l 257
 562 274 l 257
 871 160 l 257
EndSplineSet
EndChar

StartChar: u09E1
Encoding: 1588 2529 1588
GlifName: u09E_1
Width: 779
VWidth: 0
GlyphClass: 2
Flags: W
LayerCount: 2
Fore
SplineSet
259 -146 m 257
 259 -141 259 -141 259 -136 c 257
 259 -93 259 -93 289 -63 c 128
 319 -33 319 -33 362 -33 c 257
 390 -33 390 -33 413.5 -46.5 c 128
 437 -60 437 -60 450 -84 c 257
 463 -33 463 -33 425 5 c 257
 398 33 398 33 359.5 33.5 c 128
 321 34 321 34 294 7 c 257
 283 -4 283 -4 277 -17 c 257
 231 29 l 257
 239 41 239 41 250 51 c 257
 294 96 294 96 358.5 95 c 128
 423 94 423 94 469 48 c 128
 515 2 515 2 516 -62.5 c 128
 517 -127 517 -127 472 -171 c 257
 462 -182 462 -182 450 -190 c 257
 406 -146 l 257
 403 -146 l 257
 403 -145 403 -145 404 -144 c 257
 403 -143 l 257
 404 -142 l 257
 404 -139 404 -139 404 -136 c 257
 404 -118 404 -118 392 -105.5 c 128
 380 -93 380 -93 362 -93 c 257
 344 -93 344 -93 331.5 -105.5 c 128
 319 -118 319 -118 319 -136 c 257
 319 -141 319 -141 320 -146 c 257
 259 -146 l 257
49 104 m 257
 48 117 48 117 48 130 c 257
 48 237 48 237 123 312.5 c 128
 198 388 198 388 305 388 c 257
 375 388 375 388 434 353.5 c 128
 493 319 493 319 527 261 c 257
 541 320 541 320 525 379 c 128
 509 438 509 438 464 483 c 257
 395 552 395 552 299 553.5 c 128
 203 555 203 555 136 487 c 257
 109 461 109 461 93 427 c 257
 -22 542 l 257
 -1 572 -1 572 25 598 c 257
 98 672 98 672 197.5 697 c 128
 297 722 297 722 397.5 694 c 128
 498 666 498 666 574 590 c 257
 649 514 649 514 677 414 c 128
 705 314 705 314 680 214.5 c 128
 655 115 655 115 581 42 c 257
 555 16 555 16 525 -5 c 257
 416 104 l 257
 409 104 l 257
 409 107 409 107 410 110 c 257
 407 113 l 257
 409 113 409 113 411 114 c 257
 412 122 412 122 412 130 c 257
 412 175 412 175 381 206 c 128
 350 237 350 237 305 237 c 257
 261 237 261 237 230 206 c 128
 199 175 199 175 199 130 c 257
 199 117 199 117 202 104 c 257
 49 104 l 257
EndSplineSet
EndChar

StartChar: u09E2
Encoding: 1592 2530 1592
GlifName: u09E_2
Width: 0
VWidth: 0
GlyphClass: 4
Flags: W
LayerCount: 2
Fore
SplineSet
-163 -146 m 257
 -164 -141 -164 -141 -164 -136 c 257
 -164 -93 -164 -93 -134 -63 c 128
 -104 -33 -104 -33 -61 -33 c 257
 -33 -33 -33 -33 -9.5 -46.5 c 128
 14 -60 14 -60 28 -84 c 257
 40 -33 40 -33 3 5 c 257
 -25 33 -25 33 -63.5 33.5 c 128
 -102 34 -102 34 -129 7 c 257
 -139 -4 -139 -4 -146 -17 c 257
 -192 29 l 257
 -183 41 -183 41 -173 51 c 257
 -128 96 -128 96 -64 95 c 128
 0 94 0 94 46.5 48 c 128
 93 2 93 2 93.5 -62.5 c 128
 94 -127 94 -127 50 -171 c 257
 39 -182 39 -182 27 -190 c 257
 -16 -146 l 257
 -19 -146 l 257
 -19 -145 -19 -145 -19 -144 c 257
 -20 -143 l 257
 -19 -143 -19 -143 -19 -142 c 257
 -18 -139 -18 -139 -18 -136 c 257
 -18 -118 -18 -118 -30.5 -105.5 c 128
 -43 -93 -43 -93 -61 -93 c 257
 -79 -93 -79 -93 -91 -105.5 c 128
 -103 -118 -103 -118 -103 -136 c 257
 -103 -141 -103 -141 -102 -146 c 257
 -163 -146 l 257
EndSplineSet
EndChar

StartChar: u09E3
Encoding: 1596 2531 1596
GlifName: u09E_3
Width: 0
VWidth: 0
GlyphClass: 4
Flags: W
LayerCount: 2
Fore
SplineSet
-7 -295 m 257
 -8 -289 -8 -289 -8 -284 c 257
 -8 -241 -8 -241 22 -211 c 128
 52 -181 52 -181 95 -181 c 257
 123 -181 123 -181 146.5 -194.5 c 128
 170 -208 170 -208 184 -232 c 257
 196 -181 196 -181 159 -143 c 257
 131 -115 131 -115 92.5 -114.5 c 128
 54 -114 54 -114 27 -141 c 257
 17 -152 17 -152 10 -165 c 257
 -36 -119 l 257
 -27 -107 -27 -107 -17 -97 c 257
 28 -52 28 -52 92 -53 c 128
 156 -54 156 -54 202.5 -100 c 128
 249 -146 249 -146 249.5 -210.5 c 128
 250 -275 250 -275 206 -319 c 257
 195 -330 195 -330 183 -338 c 257
 140 -295 l 257
 137 -295 l 257
 137 -293 137 -293 137 -292 c 257
 136 -291 l 257
 137 -291 137 -291 137 -290 c 257
 138 -287 138 -287 138 -284 c 257
 138 -266 138 -266 125.5 -253.5 c 128
 113 -241 113 -241 95 -241 c 257
 77 -241 77 -241 65 -253.5 c 128
 53 -266 53 -266 53 -284 c 257
 53 -289 53 -289 54 -295 c 257
 -7 -295 l 257
-192 -159 m 257
 -193 -153 -193 -153 -193 -148 c 257
 -193 -105 -193 -105 -163 -75 c 128
 -133 -45 -133 -45 -90 -45 c 257
 -62 -45 -62 -45 -38.5 -58.5 c 128
 -15 -72 -15 -72 -1 -96 c 257
 11 -45 11 -45 -26 -7 c 257
 -54 21 -54 21 -92.5 21.5 c 128
 -131 22 -131 22 -158 -5 c 257
 -168 -16 -168 -16 -175 -29 c 257
 -221 17 l 257
 -212 29 -212 29 -202 39 c 257
 -157 84 -157 84 -93 83 c 128
 -29 82 -29 82 17.5 36 c 128
 64 -10 64 -10 64.5 -74.5 c 128
 65 -139 65 -139 21 -183 c 257
 10 -194 10 -194 -2 -202 c 257
 -45 -159 l 257
 -48 -159 l 257
 -48 -157 -48 -157 -48 -156 c 257
 -49 -155 l 257
 -48 -155 -48 -155 -48 -154 c 257
 -47 -151 -47 -151 -47 -148 c 257
 -47 -130 -47 -130 -59.5 -117.5 c 128
 -72 -105 -72 -105 -90 -105 c 257
 -108 -105 -108 -105 -120 -117.5 c 128
 -132 -130 -132 -130 -132 -148 c 257
 -132 -153 -132 -153 -131 -159 c 257
 -192 -159 l 257
EndSplineSet
EndChar

StartChar: u09E6
Encoding: 1600 2534 1600
GlifName: u09E_6
Width: 864
VWidth: 0
GlyphClass: 2
Flags: W
LayerCount: 2
Fore
SplineSet
616 378 m 257
 616 465 616 465 562.5 527 c 128
 509 589 509 589 432.5 589 c 128
 356 589 356 589 302 527 c 128
 248 465 248 465 248 378 c 257
 248 290 248 290 302 228.5 c 128
 356 167 356 167 432.5 167 c 128
 509 167 509 167 562.5 228.5 c 128
 616 290 616 290 616 378 c 257
738 380 m 257
 738 283 738 283 697 201.5 c 128
 656 120 656 120 586 72.5 c 128
 516 25 516 25 432.5 25 c 128
 349 25 349 25 278.5 72.5 c 128
 208 120 208 120 167 201.5 c 128
 126 283 126 283 126 380 c 257
 126 476 126 476 167 557.5 c 128
 208 639 208 639 278.5 686.5 c 128
 349 734 349 734 432.5 734 c 128
 516 734 516 734 586 686.5 c 128
 656 639 656 639 697 557.5 c 128
 738 476 738 476 738 380 c 257
EndSplineSet
EndChar

StartChar: u09E7
Encoding: 1604 2535 1604
GlifName: u09E_7
Width: 555
VWidth: 0
GlyphClass: 2
Flags: W
LayerCount: 2
Fore
SplineSet
123 147 m 257
 218 147 218 147 285 215.5 c 128
 352 284 352 284 352 381 c 257
 352 479 352 479 285 547.5 c 128
 218 616 218 616 123 616 c 257
 85 616 85 616 50 604 c 257
 50 766 l 257
 86 773 86 773 123 773 c 257
 281 773 281 773 393 657.5 c 128
 505 542 505 542 505 379 c 128
 505 216 505 216 393 101 c 128
 281 -14 281 -14 123 -14 c 257
 86 -14 86 -14 50 -7 c 257
 50 159 l 257
 85 147 85 147 123 147 c 257
EndSplineSet
EndChar

StartChar: u09E8
Encoding: 1608 2536 1608
GlifName: u09E_8
Width: 783
VWidth: 0
GlyphClass: 2
Flags: W
LayerCount: 2
Fore
SplineSet
45.5 226 m 257
 121.5 358 l 257
 502.5 446 l 257
 130.5 662 l 257
 206.5 794 l 257
 737.5 486 l 257
 661.5 355 l 257
 279.5 267 l 257
 623.5 68 l 257
 547.5 -64 l 257
 45.5 226 l 257
EndSplineSet
EndChar

StartChar: u09E9
Encoding: 1612 2537 1612
GlifName: u09E_9
Width: 726
VWidth: 0
GlyphClass: 2
Flags: W
LayerCount: 2
Fore
SplineSet
355 513 m 257
 361 634 l 257
 362 634 362 634 363 634 c 257
 490 634 490 634 579.5 542 c 128
 669 450 669 450 669 320 c 257
 669 189 669 189 579.5 97 c 128
 490 5 490 5 363 5 c 128
 236 5 236 5 146.5 97 c 128
 57 189 57 189 57 320 c 257
 113 325.5 l 258
 169 331 169 331 169 332 c 257
 169 329 169 329 169 326 c 257
 169 248 169 248 222.5 193 c 128
 276 138 276 138 352 138 c 128
 428 138 428 138 481.5 193 c 128
 535 248 535 248 535 326 c 257
 535 403 535 403 482.5 457.5 c 128
 430 512 430 512 355 513 c 257
EndSplineSet
EndChar

StartChar: u09EA
Encoding: 1616 2538 1616
GlifName: u09E_A_
Width: 616
VWidth: 0
GlyphClass: 2
Flags: W
LayerCount: 2
Fore
SplineSet
307 3 m 257
 306 3 l 257
 305 3 305 3 303 3 c 257
 296 3 296 3 291 4 c 257
 201 10 201 10 140 75 c 128
 79 140 79 140 79 229 c 257
 79 262 79 262 106.5 313 c 128
 134 364 134 364 160 400 c 257
 125 448 125 448 125 507 c 257
 125 579 125 579 174 631 c 128
 223 683 223 683 294 688 c 257
 298 689 298 689 304 689 c 257
 305 689 305 689 306.5 689 c 128
 308 689 308 689 309 689 c 257
 385 689 385 689 438 636 c 128
 491 583 491 583 491 507 c 257
 491 448 491 448 456 400 c 257
 482 364 482 364 509.5 313 c 128
 537 262 537 262 537 229 c 257
 537 136 537 136 470.5 69.5 c 128
 404 3 404 3 310 3 c 257
 309 3 309 3 308 3 c 258
 307 3 l 257
308 582 m 257
 299 582 299 582 291 580 c 257
 291 581 l 257
 265 576 265 576 248 555.5 c 128
 231 535 231 535 231 507 c 257
 231 480 231 480 248 459.5 c 128
 265 439 265 439 291 434 c 257
 291 435 l 257
 299 433 299 433 308 432 c 257
 317 433 317 433 325 435 c 257
 325 434 l 257
 351 439 351 439 368 459.5 c 128
 385 480 385 480 385 507 c 257
 385 535 385 535 368 555.5 c 128
 351 576 351 576 325 581 c 257
 325 580 l 257
 317 582 317 582 308 582 c 257
308 324 m 257
 297 323 297 323 287 321 c 257
 287 322 l 257
 254 315 254 315 233 289.5 c 128
 212 264 212 264 212 229 c 257
 212 196 212 196 233 170.5 c 128
 254 145 254 145 287 138 c 257
 287 139 l 257
 297 136 297 136 308 136 c 257
 319 136 319 136 329 139 c 257
 329 138 l 257
 362 145 362 145 383 170.5 c 128
 404 196 404 196 404 229 c 257
 404 264 404 264 383 289.5 c 128
 362 315 362 315 329 322 c 257
 329 321 l 257
 319 323 319 323 308 324 c 257
EndSplineSet
EndChar

StartChar: u09EB
Encoding: 1620 2539 1620
GlifName: u09E_B_
Width: 779
VWidth: 0
GlyphClass: 2
Flags: W
LayerCount: 2
Fore
SplineSet
357.724 384 m 257
 356.724 385 l 257
 357.724 384 l 257
738.724 479 m 257
 661.724 347 l 257
 652.724 356 652.724 356 640.724 363 c 257
 601.724 385 601.724 385 559.724 374 c 128
 517.724 363 517.724 363 494.724 324 c 257
 472.724 285 472.724 285 484.224 243 c 128
 495.724 201 495.724 201 534.724 178 c 257
 540.724 174 540.724 174 548.724 171 c 257
 549.724 172 549.724 172 551.724 173 c 257
 552.724 170 l 257
 555.724 169 555.724 169 558.724 168 c 257
 554.724 161 l 257
 594.724 13 l 257
 561.724 -3 561.724 -3 525.724 -13 c 257
 425.724 -40 425.724 -40 327.224 -12 c 128
 228.724 16 228.724 16 155.7238 90.5 c 128
 82.7236 165 82.7236 165 54.7236 268 c 257
 32.7236 347 32.7236 347 44.2236 424 c 128
 55.7236 501 55.7236 501 90.7238 566 c 128
 125.724 631 125.724 631 186.224 679 c 128
 246.724 727 246.724 727 321.724 747 c 257
 357.724 757 357.724 757 394.724 759 c 257
 436.724 603 l 257
 411.724 605 411.724 605 386.724 601 c 257
 492.724 478 l 257
 495.724 479 495.724 479 514.724 484.5 c 128
 533.724 490 533.724 490 540.224 492 c 128
 546.724 494 546.724 494 564.724 498.5 c 128
 582.724 503 582.724 503 592.224 504.5 c 128
 601.724 506 601.724 506 617.724 508.5 c 128
 633.724 511 633.724 511 644.724 510 c 128
 655.724 509 655.724 509 669.224 508 c 128
 682.724 507 682.724 507 694.224 503 c 128
 705.724 499 705.724 499 716.724 493 c 257
 727.724 487 727.724 487 738.724 479 c 257
356.724 385 m 257
 240.724 513 l 257
 208.724 471 208.724 471 198.224 418.5 c 128
 187.724 366 187.724 366 202.724 309 c 257
 218.724 248 218.724 248 262.224 204.5 c 128
 305.724 161 305.724 161 362.724 144 c 257
 331.724 199 331.724 199 329.724 262 c 128
 327.724 325 327.724 325 356.724 385 c 257
EndSplineSet
EndChar

StartChar: u09EC
Encoding: 1624 2540 1624
GlifName: u09E_C_
Width: 616
VWidth: 0
GlyphClass: 2
Flags: W
LayerCount: 2
Fore
SplineSet
303.946 751 m 257
 435.946 751 l 257
 435.946 484 l 257
 495.946 450 495.946 450 531.446 390.5 c 128
 566.946 331 566.946 331 564.946 260 c 257
 561.946 151 561.946 151 486.946 77 c 128
 411.946 3 411.946 3 303.946 3 c 257
 241.946 3 241.946 3 192.946 25 c 128
 143.946 47 143.946 47 113.44615 84 c 128
 82.9463 121 82.9463 121 66.9463 166.5 c 128
 50.9463 212 50.9463 212 50.9463 261 c 257
 195.946 261 l 257
 195.946 260 l 257
 195.946 215 195.946 215 226.946 185 c 128
 257.946 155 257.946 155 304.946 154 c 257
 351.946 155 351.946 155 382.946 185 c 128
 413.946 215 413.946 215 413.946 260 c 257
 413.946 302 413.946 302 387.446 331.5 c 128
 360.946 361 360.946 361 318.946 366 c 257
 303.946 366 l 257
 303.946 518 l 257
 303.946 518 l 257
 303.946 751 l 257
EndSplineSet
EndChar

StartChar: u09ED
Encoding: 1628 2541 1628
GlifName: u09E_D_
Width: 534
VWidth: 0
GlyphClass: 2
Flags: W
LayerCount: 2
Fore
SplineSet
332 626 m 257
 320 629 320 629 308 629 c 257
 263 629 263 629 232 598 c 128
 201 567 201 567 201 523 c 257
 201 478 201 478 232 447 c 128
 263 416 263 416 308 416 c 257
 320 416 320 416 332 419 c 257
 332 626 l 257
332 3 m 257
 332 266 l 257
 324 265 324 265 308 265 c 257
 201 265 201 265 125.5 340.5 c 128
 50 416 50 416 50 523 c 128
 50 630 50 630 125.5 705 c 128
 201 780 201 780 308 780 c 257
 314 780 l 257
 320 780 320 780 326.5 780.5 c 128
 333 781 333 781 343.5 780.5 c 128
 354 780 354 780 364 779 c 128
 374 778 374 778 385.5 776 c 128
 397 774 397 774 407 771 c 128
 417 768 417 768 427 763 c 128
 437 758 437 758 445 752 c 257
 462 738 462 738 471.5 707.5 c 128
 481 677 481 677 482 654 c 257
 484 631 l 257
 484 3 l 257
 332 3 l 257
EndSplineSet
EndChar

StartChar: u09EE
Encoding: 1632 2542 1632
GlifName: u09E_E_
Width: 692
VWidth: 0
GlyphClass: 2
Flags: W
LayerCount: 2
Fore
SplineSet
203.5 781 m 257
 203.5 518 l 257
 211.5 519 211.5 519 227.5 519 c 257
 241.5 519 241.5 519 256.5 517 c 257
 640.5 517 l 257
 640.5 365 l 257
 463.5 365 l 257
 485.5 315 485.5 315 485.5 261 c 257
 485.5 154 485.5 154 410 79 c 128
 334.5 4 334.5 4 227.5 4 c 257
 221.5 3.5 l 258
 215.5 3 215.5 3 209 3 c 128
 202.5 3 202.5 3 192 3.5 c 128
 181.5 4 181.5 4 171.5 4.5 c 128
 161.5 5 161.5 5 150 7 c 128
 138.5 9 138.5 9 128.5 12 c 128
 118.5 15 118.5 15 108.5 20 c 128
 98.5 25 98.5 25 90.5 32 c 257
 73.5 46 73.5 46 64 76 c 128
 54.5 106 54.5 106 52.5 129 c 257
 51.5 153 l 257
 51.5 781 l 257
 203.5 781 l 257
203.5 158 m 257
 215.5 155 215.5 155 227.5 155 c 257
 272.5 155 272.5 155 303.5 185.5 c 128
 334.5 216 334.5 216 334.5 261 c 257
 334.5 299 334.5 299 311 328 c 128
 287.5 357 287.5 357 251.5 365 c 257
 205.5 365 l 257
 204.5 365 204.5 365 203.5 365 c 257
 203.5 158 l 257
EndSplineSet
EndChar

StartChar: u09EF
Encoding: 1636 2543 1636
GlifName: u09E_F_
Width: 779
VWidth: 0
GlyphClass: 2
Flags: W
LayerCount: 2
Fore
SplineSet
103.604 104 m 257
 102.604 117 102.604 117 102.604 130 c 257
 102.604 237 102.604 237 177.604 312.5 c 128
 252.604 388 252.604 388 359.604 388 c 257
 429.604 388 429.604 388 488.604 353.5 c 128
 547.604 319 547.604 319 581.604 261 c 257
 595.604 320 595.604 320 579.604 379 c 128
 563.604 438 563.604 438 518.604 483 c 257
 449.604 552 449.604 552 353.604 553.5 c 128
 257.604 555 257.604 555 190.604 487 c 257
 163.604 461 163.604 461 147.604 427 c 257
 32.6035 542 l 257
 53.6035 572 53.6035 572 79.6035 598 c 257
 152.604 672 152.604 672 252.104 697 c 128
 351.604 722 351.604 722 452.104 694 c 128
 552.604 666 552.604 666 628.604 590 c 257
 703.604 514 703.604 514 731.604 414 c 128
 759.604 314 759.604 314 734.604 214.5 c 128
 709.604 115 709.604 115 635.604 42 c 257
 609.604 16 609.604 16 579.604 -5 c 257
 470.604 104 l 257
 463.604 104 l 257
 463.604 107 463.604 107 464.604 110 c 257
 461.604 113 l 257
 463.604 113 463.604 113 465.604 114 c 257
 466.604 122 466.604 122 466.604 130 c 257
 466.604 175 466.604 175 435.604 206 c 128
 404.604 237 404.604 237 359.604 237 c 257
 315.604 237 315.604 237 284.604 206 c 128
 253.604 175 253.604 175 253.604 130 c 257
 253.604 117 253.604 117 256.604 104 c 257
 103.604 104 l 257
EndSplineSet
EndChar

StartChar: u09F0
Encoding: 1640 2544 1640
GlifName: u09F_0
Width: 723
VWidth: 0
GlyphClass: 2
Flags: W
LayerCount: 2
Fore
SplineSet
723 803 m 257
 723 671 l 257
 670 671 l 257
 670 1 l 257
 526 1 l 257
 526 0 l 257
 524 1 l 257
 524 1 l 257
 70 274 l 257
 70 426 l 257
 524 603 l 257
 524 671 l 257
 0 671 l 257
 0 803 l 257
 723 803 l 257
524 155 m 257
 524 238 l 257
 342 393 l 257
 214 350 l 257
 524 155 l 257
524 348 m 257
 524 454 l 257
 437 425 l 257
 524 348 l 257
EndSplineSet
EndChar

StartChar: u09F1
Encoding: 1644 2545 1644
GlifName: u09F_1
Width: 723
VWidth: 0
GlyphClass: 2
Flags: W
LayerCount: 2
Fore
SplineSet
723 803 m 257
 723 671 l 257
 670 671 l 257
 670 1 l 257
 524 1 l 257
 441 58 441 58 276.5 153 c 128
 112 248 112 248 70 274 c 257
 70 426 l 257
 524 603 l 257
 524 671 l 257
 0 671 l 257
 0 803 l 257
 723 803 l 257
44 196 m 257
 476 -44 l 257
 414 -137 l 257
 0 90 l 257
 44 196 l 257
524 159 m 257
 524 454 l 257
 214 350 l 257
 524 159 l 257
EndSplineSet
EndChar

StartChar: u09F2
Encoding: 1648 2546 1648
GlifName: u09F_2
Width: 445
VWidth: 0
GlyphClass: 2
Flags: W
LayerCount: 2
Fore
SplineSet
108 427 m 257
 341 69 l 257
 235 8 l 257
 2 366 l 257
 108 427 l 257
EndSplineSet
EndChar

StartChar: u09F3
Encoding: 1652 2547 1652
GlifName: u09F_3
Width: 806
VWidth: 0
GlyphClass: 2
Flags: W
LayerCount: 2
Fore
SplineSet
166 772 m 257
 167 776 167 776 169 783 c 128
 171 790 171 790 175.5 810 c 128
 180 830 180 830 182.5 848 c 128
 185 866 185 866 185 888.5 c 128
 185 911 185 911 180 928 c 257
 175 944 175 944 148 947.5 c 128
 121 951 121 951 112 956 c 257
 101 962 101 962 87 973.5 c 128
 73 985 73 985 64 994 c 257
 56 1002 l 257
 70 1094 l 257
 155 1095 155 1095 202 1074 c 257
 211 1070 211 1070 237.5 1059 c 128
 264 1048 264 1048 273.5 1043 c 128
 283 1038 283 1038 300.5 1027 c 128
 318 1016 318 1016 327.5 1002 c 128
 337 988 337 988 344 970 c 257
 357 926 357 926 352 877.5 c 128
 347 829 347 829 334 790 c 257
 322 752 l 257
 166 772 l 257
724 184 m 257
 708 126 708 126 663.5 84.5 c 128
 619 43 619 43 563 23.5 c 128
 507 4 507 4 443 3.5 c 128
 379 3 379 3 322.5 22 c 128
 266 41 266 41 222 83 c 128
 178 125 178 125 161 184 c 257
 158 671 l 257
 -18 671 l 257
 -18 803 l 257
 589 803 l 257
 589 671 l 257
 325 671 l 257
 325 185 l 257
 354 152 354 152 443 151.5 c 128
 532 151 532 151 560 185 c 257
 560 373 l 257
 727 373 l 257
 724 184 l 257
EndSplineSet
EndChar

StartChar: u09F4
Encoding: 1656 2548 1656
GlifName: u09F_4
Width: 445
VWidth: 0
GlyphClass: 2
Flags: W
LayerCount: 2
Fore
SplineSet
286 467 m 257
 392 406 l 257
 159 48 l 257
 53 109 l 257
 286 467 l 257
EndSplineSet
EndChar

StartChar: u09F5
Encoding: 1660 2549 1660
GlifName: u09F_5
Width: 1069
VWidth: 0
GlyphClass: 2
Flags: W
LayerCount: 2
Fore
SplineSet
159 637 m 257
 172 638 172 638 185 638 c 257
 292 638 292 638 367.5 563 c 128
 443 488 443 488 443 381 c 257
 443 311 443 311 408.5 252 c 128
 374 193 374 193 316 159 c 257
 375 145 375 145 434.5 161.5 c 128
 494 178 494 178 538 222 c 257
 841 510 l 257
 1019 434 l 257
 705 121 l 257
 630 46 630 46 515 15.5 c 128
 400 -15 400 -15 285 8.5 c 128
 170 32 170 32 97 105 c 257
 71 131 71 131 50 162 c 257
 159 270 l 257
 159 278 l 257
 162 277 162 277 165 276 c 257
 168 279 l 257
 169 277 169 277 169 276 c 257
 177 274 177 274 185 274 c 257
 230 274 230 274 261 305 c 128
 292 336 292 336 292 381 c 257
 292 426 292 426 261 456.5 c 128
 230 487 230 487 185 487 c 257
 172 487 172 487 159 484 c 257
 159 637 l 257
EndSplineSet
EndChar

StartChar: u09F6
Encoding: 1664 2550 1664
GlifName: u09F_6
Width: 813
VWidth: 0
GlyphClass: 2
Flags: W
LayerCount: 2
Fore
SplineSet
159 637 m 257
 172 638 172 638 185 638 c 257
 292 638 292 638 367.5 563 c 128
 443 488 443 488 443 381 c 257
 443 311 443 311 408.5 252 c 128
 374 193 374 193 316 159 c 257
 375 145 375 145 434.5 161.5 c 128
 494 178 494 178 538 222 c 257
 607 291 607 291 608.5 387 c 128
 610 483 610 483 543 550 c 257
 516 577 516 577 482 593 c 257
 597 708 l 257
 627 687 627 687 654 661 c 257
 727 588 727 588 752 488.5 c 128
 777 389 777 389 749 288.5 c 128
 721 188 721 188 645 113 c 257
 570 37 570 37 469.5 9 c 128
 369 -19 369 -19 269.5 6 c 128
 170 31 170 31 97 105 c 257
 71 131 71 131 50 162 c 257
 159 270 l 257
 159 278 l 257
 162 277 162 277 165 276 c 257
 168 279 l 257
 169 277 169 277 169 276 c 257
 177 274 177 274 185 274 c 257
 230 274 230 274 261 305 c 128
 292 336 292 336 292 381 c 257
 292 426 292 426 261 456.5 c 128
 230 487 230 487 185 487 c 257
 172 487 172 487 159 484 c 257
 159 637 l 257
EndSplineSet
EndChar

StartChar: u09F7
Encoding: 1668 2551 1668
GlifName: u09F_7
Width: 262
VWidth: 0
GlyphClass: 2
Flags: W
LayerCount: 2
Fore
SplineSet
65 612 m 257
 197 612 l 257
 203 612 203 612 207.5 607.5 c 128
 212 603 212 603 212 597 c 257
 212 5 l 257
 212 -1 212 -1 207.5 -5.5 c 128
 203 -10 203 -10 197 -10 c 257
 65 -10 l 257
 59 -10 59 -10 54.5 -5.5 c 128
 50 -1 50 -1 50 5 c 257
 50 597 l 257
 50 603 50 603 54.5 607.5 c 128
 59 612 59 612 65 612 c 257
EndSplineSet
EndChar

StartChar: u09F8
Encoding: 1672 2552 1672
GlifName: u09F_8
Width: 672
VWidth: 0
GlyphClass: 2
Flags: W
LayerCount: 2
Fore
SplineSet
622 582 m 257
 622 2 l 257
 470 2 l 257
 470 400 l 257
 204 114 l 257
 52 114 l 257
 50 728 l 257
 202 728 l 257
 204 296 l 257
 470 582 l 257
 622 582 l 257
EndSplineSet
EndChar

StartChar: u09F9
Encoding: 1676 2553 1676
GlifName: u09F_9
Width: 712
VWidth: 0
GlyphClass: 2
Flags: W
LayerCount: 2
Fore
SplineSet
540 378 m 257
 540 465 540 465 486.5 527 c 128
 433 589 433 589 356.5 589 c 128
 280 589 280 589 226 527 c 128
 172 465 172 465 172 378 c 257
 172 290 172 290 226 228.5 c 128
 280 167 280 167 356.5 167 c 128
 433 167 433 167 486.5 228.5 c 128
 540 290 540 290 540 378 c 257
662 380 m 257
 662 283 662 283 621 201.5 c 128
 580 120 580 120 510 72.5 c 128
 440 25 440 25 356.5 25 c 128
 273 25 273 25 202.5 72.5 c 128
 132 120 132 120 91 201.5 c 128
 50 283 50 283 50 380 c 257
 50 476 50 476 91 557.5 c 128
 132 639 132 639 202.5 686.5 c 128
 273 734 273 734 356.5 734 c 128
 440 734 440 734 510 686.5 c 128
 580 639 580 639 621 557.5 c 128
 662 476 662 476 662 380 c 257
EndSplineSet
EndChar

StartChar: u09FA
Encoding: 1680 2554 1680
GlifName: u09F_A_
Width: 486
VWidth: 0
GlyphClass: 2
Flags: W
LayerCount: 2
Fore
SplineSet
182 511 m 257
 182 625 l 257
 304 625 l 257
 304 511 l 257
 182 511 l 257
436 472 m 257
 436 453 l 257
 436 372 436 372 380 315.5 c 128
 324 259 324 259 244 259 c 257
 163 259 163 259 106.5 315.5 c 128
 50 372 50 372 50 453 c 257
 50 472 l 257
 166 472 l 257
 163 463 163 463 163 453 c 257
 163 419 163 419 186.5 395.5 c 128
 210 372 210 372 244 372 c 128
 278 372 278 372 300.5 395.5 c 128
 323 419 323 419 323 453 c 257
 323 463 323 463 320 472 c 257
 436 472 l 257
EndSplineSet
EndChar

StartChar: u09FB
Encoding: 1684 2555 1684
GlifName: u09F_B_
Width: 512
VWidth: 0
GlyphClass: 2
Flags: W
LayerCount: 2
Fore
SplineSet
259 45 m 257
 271 50 271 50 258.5 67 c 258
 -16 581 l 257
 12 679 12 679 105 730 c 128
 198 781 198 781 301 757 c 257
 305 755 305 755 313.5 752.5 c 128
 322 750 322 750 326 748 c 257
 286 608 l 257
 271 614 271 614 260 617 c 257
 218 627 218 627 180 606 c 128
 142 585 142 585 130 543 c 257
 404 9 l 257
 259 45 l 257
EndSplineSet
EndChar

StartChar: u09FC
Encoding: 1688 2556 1688
GlifName: u09F_C_
Width: 400
VWidth: 0
GlyphClass: 2
Flags: W
LayerCount: 2
Fore
SplineSet
176 216 m 257
 341 69 l 257
 235 8 l 257
 70 155 l 257
 176 216 l 257
89 511 m 257
 89 625 l 257
 211 625 l 257
 211 511 l 257
 89 511 l 257
343 472 m 257
 343 453 l 257
 343 372 343 372 287 315.5 c 128
 231 259 231 259 151 259 c 257
 70 259 70 259 13.5 315.5 c 128
 -43 372 -43 372 -43 453 c 257
 -43 472 l 257
 73 472 l 257
 70 463 70 463 70 453 c 257
 70 419 70 419 93.5 395.5 c 128
 117 372 117 372 151 372 c 128
 185 372 185 372 207.5 395.5 c 128
 230 419 230 419 230 453 c 257
 230 463 230 463 227 472 c 257
 343 472 l 257
EndSplineSet
EndChar

StartChar: u09FE
Encoding: 1696 2558 1696
GlifName: u09F_E_
Width: 0
VWidth: 0
GlyphClass: 4
Flags: W
LayerCount: 2
Fore
SplineSet
-68 634 m 257
 -68 627 l 257
 -72 631 l 257
 -73 630 -73 630 -73 629 c 257
 -79 635 -79 635 -86 642 c 257
 -168 709 l 257
 -168 762 l 257
 -85 694 l 257
 -56 707 -56 707 -24.5 701.5 c 128
 7 696 7 696 30 673 c 257
 61 642 61 642 60.5 599.5 c 128
 60 557 60 557 29 526 c 257
 14 511 14 511 -3 503 c 257
 70 440 l 257
 6 440 l 257
 -77 502 l 257
 -98 510 -98 510 -115 527 c 257
 -74 568 l 257
 -61 555 -61 555 -44 555.5 c 128
 -27 556 -27 556 -13 569 c 257
 0 583 0 583 0.5 600 c 128
 1 617 1 617 -12 630 c 257
 -24 642 -24 642 -39.5 643 c 128
 -55 644 -55 644 -68 634 c 257
EndSplineSet
EndChar

StartChar: uni1E9E
Encoding: 1700 7838 1700
GlifName: uni1E_9E_
Width: 771
VWidth: 0
GlyphClass: 2
Flags: W
LayerCount: 2
Fore
SplineSet
189 47 m 257
 256 159 l 257
 263 152 263 152 278 147 c 257
 318 130 318 130 349.5 134 c 128
 381 138 381 138 401 162 c 257
 424 189 424 189 379 201 c 257
 367 204 367 204 325 211 c 257
 278 230 278 230 241 270 c 128
 204 310 204 310 186 355.5 c 128
 168 401 168 401 170.5 449 c 128
 173 497 173 497 201 529 c 257
 209 539 209 539 226 561 c 128
 243 583 243 583 252 593.5 c 128
 261 604 261 604 277.5 620.5 c 128
 294 637 294 637 308 643.5 c 128
 322 650 322 650 341.5 655.5 c 128
 361 661 361 661 383.5 657.5 c 128
 406 654 406 654 432 644 c 257
 433 644 433 644 434 644 c 257
 450 644 450 644 468 639.5 c 128
 486 635 486 635 498 631 c 128
 510 627 510 627 520.5 626 c 128
 531 625 531 625 536 632 c 128
 541 639 541 639 541 656 c 257
 541 686 541 686 445.5 702 c 128
 350 718 350 718 247 712.5 c 128
 144 707 144 707 123 683 c 257
 123 2 l 257
 -44 2 l 257
 -41 684 l 257
 -17 767 -17 767 50 819 c 257
 91 851 91 851 170 863.5 c 128
 249 876 249 876 337 866 c 128
 425 856 425 856 505.5 831.5 c 128
 586 807 586 807 639 760 c 128
 692 713 692 713 692 656 c 257
 692 579 692 579 680.5 537 c 128
 669 495 669 495 649 484.5 c 128
 629 474 629 474 604 479.5 c 128
 579 485 579 485 548.5 498.5 c 128
 518 512 518 512 489 522 c 128
 460 532 460 532 429.5 527 c 128
 399 522 399 522 376 495 c 257
 360 477 360 477 355.5 450 c 128
 351 423 351 423 364 399 c 128
 377 375 377 375 407 370 c 257
 451 351 451 351 490.5 315 c 128
 530 279 530 279 553 237 c 128
 576 195 576 195 578.5 151.5 c 128
 581 108 581 108 553 75 c 257
 506 18 506 18 406 5.5 c 128
 306 -7 306 -7 211 34 c 257
 203 36 203 36 189 47 c 257
EndSplineSet
EndChar

StartChar: uni20B9
Encoding: 1704 8377 1704
GlifName: uni20B_9
Width: 826
VWidth: 0
GlyphClass: 2
Flags: W
LayerCount: 2
Fore
SplineSet
726 803 m 257
 726 671 l 257
 387 671 l 257
 464 650 464 650 516 589 c 128
 568 528 568 528 576 448 c 257
 711 448 l 257
 717 448 717 448 721.5 443.5 c 128
 726 439 726 439 726 433 c 257
 726 385 l 257
 726 379 726 379 721.5 374.5 c 128
 717 370 717 370 711 370 c 257
 572 370 l 257
 559 310 559 310 521.5 262.5 c 128
 484 215 484 215 430 190 c 257
 666 -37 l 257
 573 -130 l 257
 198 229 l 257
 291 322 l 257
 295 319 l 257
 307 316 307 316 319 316 c 257
 349 316 349 316 374 330.5 c 128
 399 345 399 345 412 370 c 257
 147 370 l 257
 141 370 141 370 136.5 374.5 c 128
 132 379 132 379 132 385 c 257
 132 433 l 257
 132 439 132 439 136.5 443.5 c 128
 141 448 141 448 147 448 c 257
 423 448 l 257
 415 483 415 483 386 506 c 128
 357 529 357 529 319 529 c 257
 306 529 306 529 293 526 c 257
 293 671 l 257
 0 671 l 257
 0 803 l 257
 726 803 l 257
EndSplineSet
EndChar

StartChar: uni25CC
Encoding: 1708 9676 1708
GlifName: uni25C_C_
Width: 864
VWidth: 0
GlyphClass: 2
Flags: W
LayerCount: 2
Fore
SplineSet
20 244 m 128
 20 281 20 281 45.5 306.5 c 128
 71 332 71 332 108 332 c 128
 145 332 145 332 170.5 306.5 c 128
 196 281 196 281 196 244 c 128
 196 207 196 207 170.5 181.5 c 128
 145 156 145 156 108 156 c 128
 71 156 71 156 45.5 181.5 c 128
 20 207 20 207 20 244 c 128
  PathStart: -1
193 90 m 128
 193 127 193 127 218.5 152.5 c 128
 244 178 244 178 281 178 c 128
 318 178 318 178 343.5 152.5 c 128
 369 127 369 127 369 90 c 128
 369 53 369 53 343.5 27.5 c 128
 318 2 318 2 281 2 c 128
 244 2 244 2 218.5 27.5 c 128
 193 53 193 53 193 90 c 128
  PathStart: -1
559 225 m 128
 559 262 559 262 584.5 287.5 c 128
 610 313 610 313 647 313 c 128
 684 313 684 313 709.5 287.5 c 128
 735 262 735 262 735 225 c 128
 735 188 735 188 709.5 162.5 c 128
 684 137 684 137 647 137 c 128
 610 137 610 137 584.5 162.5 c 128
 559 188 559 188 559 225 c 128
  PathStart: -1
414 88 m 128
 414 125 414 125 439.5 150.5 c 128
 465 176 465 176 502 176 c 128
 539 176 539 176 564.5 150.5 c 128
 590 125 590 125 590 88 c 128
 590 51 590 51 564.5 25.5 c 128
 539 0 539 0 502 0 c 128
 465 0 465 0 439.5 25.5 c 128
 414 51 414 51 414 88 c 128
  PathStart: -1
587 434 m 128
 587 471 587 471 612.5 496.5 c 128
 638 522 638 522 675 522 c 128
 712 522 712 522 737.5 496.5 c 128
 763 471 763 471 763 434 c 128
 763 397 763 397 737.5 371.5 c 128
 712 346 712 346 675 346 c 128
 638 346 638 346 612.5 371.5 c 128
 587 397 587 397 587 434 c 128
  PathStart: -1
-2 462 m 128
 -2 499 -2 499 23.5 524.5 c 128
 49 550 49 550 86 550 c 128
 123 550 123 550 148.5 524.5 c 128
 174 499 174 499 174 462 c 128
 174 425 174 425 148.5 399.5 c 128
 123 374 123 374 86 374 c 128
 49 374 49 374 23.5 399.5 c 128
 -2 425 -2 425 -2 462 c 128
  PathStart: -1
115 634 m 128
 115 671 115 671 140.5 696.5 c 128
 166 722 166 722 203 722 c 128
 240 722 240 722 265.5 696.5 c 128
 291 671 291 671 291 634 c 128
 291 597 291 597 265.5 571.5 c 128
 240 546 240 546 203 546 c 128
 166 546 166 546 140.5 571.5 c 128
 115 597 115 597 115 634 c 128
  PathStart: -1
502 608 m 128
 502 645 502 645 527.5 670.5 c 128
 553 696 553 696 590 696 c 128
 627 696 627 696 652.5 670.5 c 128
 678 645 678 645 678 608 c 128
 678 571 678 571 652.5 545.5 c 128
 627 520 627 520 590 520 c 128
 553 520 553 520 527.5 545.5 c 128
 502 571 502 571 502 608 c 128
  PathStart: -1
309 692 m 128
 309 729 309 729 334.5 754.5 c 128
 360 780 360 780 397 780 c 128
 434 780 434 780 459.5 754.5 c 128
 485 729 485 729 485 692 c 128
 485 655 485 655 459.5 629.5 c 128
 434 604 434 604 397 604 c 128
 360 604 360 604 334.5 629.5 c 128
 309 655 309 655 309 692 c 128
  PathStart: -1
EndSplineSet
EndChar

StartChar: v
Encoding: 1724 118 1724
GlifName: v
Width: 652
VWidth: 0
GlyphClass: 2
Flags: W
LayerCount: 2
Fore
SplineSet
0 511 m 257
 152 511 l 257
 276 144 l 257
 400 511 l 257
 552 511 l 257
 352 0 l 257
 200 0 l 257
 0 511 l 257
EndSplineSet
EndChar

StartChar: w
Encoding: 1728 119 1728
GlifName: w
Width: 1044
VWidth: 0
GlyphClass: 2
Flags: W
LayerCount: 2
Fore
SplineSet
396 511 m 257
 548 511 l 257
 668 144 l 257
 792 511 l 257
 944 511 l 257
 744 0 l 257
 596 0 l 257
 472 317 l 257
 348 0 l 257
 200 0 l 257
 0 511 l 257
 148 511 l 257
 272 144 l 257
 396 511 l 257
EndSplineSet
EndChar

StartChar: x
Encoding: 1748 120 1748
GlifName: x
Width: 724
VWidth: 0
GlyphClass: 2
Flags: W
LayerCount: 2
Fore
SplineSet
0 513 m 257
 186 511 l 257
 315 360 l 257
 448 512 l 257
 623 511 l 257
 403 258 l 257
 624 0 l 257
 449 -2 l 257
 312 155 l 257
 179 2 l 257
 1 -1 l 257
 224 256 l 257
 0 513 l 257
EndSplineSet
EndChar

StartChar: y
Encoding: 1752 121 1752
GlifName: y
Width: 652
VWidth: 0
GlyphClass: 2
Flags: W
LayerCount: 2
Fore
SplineSet
0 511 m 257
 171 511 l 257
 295 144 l 257
 400 511 l 257
 585 514 l 257
 306 -200 l 257
 158 -204 l 257
 227 0 l 257
 0 511 l 257
EndSplineSet
EndChar

StartChar: yen
Encoding: 1768 165 1768
GlifName: yen
Width: 612
VWidth: 0
GlyphClass: 2
Flags: W
LayerCount: 2
Fore
SplineSet
179 451 m 257
 -20 765 l 257
 132 765 l 257
 256 594 l 257
 380 765 l 257
 532 765 l 257
 332 450 l 257
 331 450 l 257
 331 396 l 257
 530 396 l 257
 530 334 l 257
 331 334 l 257
 331 258 l 257
 530 258 l 257
 530 196 l 257
 331 196 l 257
 331 1 l 257
 179 1 l 257
 179 196 l 257
 -14 196 l 257
 -14 258 l 257
 179 258 l 257
 179 334 l 257
 -14 334 l 257
 -14 396 l 257
 179 396 l 257
 179 451 l 257
EndSplineSet
EndChar

StartChar: z
Encoding: 1776 122 1776
GlifName: z
Width: 512
VWidth: 0
GlyphClass: 2
Flags: W
LayerCount: 2
Fore
SplineSet
0 10 m 257
 0 162 l 257
 243 366 l 257
 0 366 l 257
 0 518 l 257
 453 518 l 257
 453 366 l 257
 251 162 l 257
 453 162 l 257
 453 10 l 257
 0 10 l 257
EndSplineSet
EndChar

StartChar: zero
Encoding: 1792 48 1792
GlifName: zero
Width: 864
VWidth: 0
GlyphClass: 2
Flags: W
LayerCount: 2
Fore
SplineSet
566 378 m 257
 566 475 566 475 512.5 543.5 c 128
 459 612 459 612 382.5 612 c 128
 306 612 306 612 252 543.5 c 128
 198 475 198 475 198 378 c 257
 198 280 198 280 252 211.5 c 128
 306 143 306 143 382.5 143 c 128
 459 143 459 143 512.5 211.5 c 128
 566 280 566 280 566 378 c 257
688 380 m 257
 688 273 688 273 647 182 c 128
 606 91 606 91 536 38.5 c 128
 466 -14 466 -14 382.5 -14 c 128
 299 -14 299 -14 228.5 38.5 c 128
 158 91 158 91 117 182 c 128
 76 273 76 273 76 380 c 257
 76 487 76 487 117 577.5 c 128
 158 668 158 668 228.5 720.5 c 128
 299 773 299 773 382.5 773 c 128
 466 773 466 773 536 720.5 c 128
 606 668 606 668 647 577.5 c 128
 688 487 688 487 688 380 c 257
EndSplineSet
EndChar

StartChar: uni200C
Encoding: 1796 8204 1796
GlifName: uni200C_
Width: 0
VWidth: 0
GlyphClass: 2
Flags: W
LayerCount: 2
Fore
SplineSet
-47.4971 598.841 m 258
 -41.8408 604.497 l 258
 -31.2344 615.104 -31.2344 615.104 -20.627 604.497 c 258
 51.4971 532.373 l 258
 62.1045 521.766 62.1045 521.766 51.4971 511.159 c 258
 45.8408 505.503 l 258
 35.2344 494.896 35.2344 494.896 24.627 505.503 c 258
 -47.4971 577.627 l 258
 -58.1045 588.234 -58.1045 588.234 -47.4971 598.841 c 258
45.8408 604.497 m 258
 51.4971 598.841 l 258
 62.1045 588.234 62.1045 588.234 51.4971 577.627 c 258
 -20.627 505.503 l 258
 -31.2344 494.896 -31.2344 494.896 -41.8408 505.503 c 258
 -47.4971 511.159 l 258
 -58.1045 521.766 -58.1045 521.766 -47.4971 532.373 c 258
 24.627 604.497 l 258
 35.2344 615.104 35.2344 615.104 45.8408 604.497 c 258
-2 528 m 258
 6 528 l 258
 21 528 21 528 21 513 c 258
 21 15 l 258
 21 0 21 0 6 0 c 258
 -2 0 l 258
 -17 0 -17 0 -17 15 c 258
 -17 513 l 258
 -17 528 -17 528 -2 528 c 258
EndSplineSet
EndChar

StartChar: uni200D
Encoding: 1797 8205 1797
GlifName: uni200D_
Width: 0
VWidth: 0
GlyphClass: 2
Flags: W
LayerCount: 2
Fore
SplineSet
2 444 m 258
 4 444 l 258
 19 444 19 444 19 429 c 258
 19 15 l 258
 19 0 19 0 4 0 c 258
 2 0 l 258
 -13 0 -13 0 -13 15 c 258
 -13 429 l 258
 -13 444 -13 444 2 444 c 258
EndSplineSet
EndChar

StartChar: endash
Encoding: 1798 8211 1798
GlifName: endash
Width: 500
VWidth: 0
GlyphClass: 2
Flags: W
LayerCount: 2
Fore
SplineSet
50 344 m 257
 50 496 l 257
 450 496 l 257
 450 344 l 257
 50 344 l 257
EndSplineSet
EndChar

StartChar: emdash
Encoding: 1799 8212 1799
GlifName: emdash
Width: 1000
VWidth: 0
GlyphClass: 2
Flags: W
LayerCount: 2
Fore
SplineSet
50 344 m 257
 50 496 l 257
 950 496 l 257
 950 344 l 257
 50 344 l 257
EndSplineSet
EndChar

StartChar: quoteleft
Encoding: 1806 8216 1806
GlifName: quoteleft
Width: 252
VWidth: 0
GlyphClass: 2
Flags: W
LayerCount: 2
Fore
SplineSet
202 793 m 257
 202 651 l 257
 50 651 l 257
 50 793 l 257
 110 925 l 257
 168 921 l 257
 159 793 l 257
 202 793 l 257
EndSplineSet
EndChar

StartChar: quoteright
Encoding: 1807 8217 1807
GlifName: quoteright
Width: 252
VWidth: 0
GlyphClass: 2
Flags: W
LayerCount: 2
Fore
SplineSet
50 783 m 257
 50 925 l 257
 202 925 l 257
 202 783 l 257
 142 651 l 257
 84 655 l 257
 93 783 l 257
 50 783 l 257
EndSplineSet
EndChar

StartChar: quotesinglbase
Encoding: 1808 8218 1808
GlifName: quotesinglbase
Width: 252
VWidth: 0
GlyphClass: 2
Flags: W
LayerCount: 2
Fore
SplineSet
50 0 m 257
 50 142 l 257
 202 142 l 257
 202 0 l 257
 142 -132 l 257
 84 -128 l 257
 93 0 l 257
 50 0 l 257
EndSplineSet
EndChar

StartChar: quotedblleft
Encoding: 1818 8220 1818
GlifName: quotedblleft
Width: 452
VWidth: 0
GlyphClass: 2
Flags: W
LayerCount: 2
Fore
SplineSet
401 793 m 257
 401 651 l 257
 249 651 l 257
 249 793 l 257
 309 925 l 257
 367 921 l 257
 358 793 l 257
 401 793 l 257
202 793 m 257
 202 651 l 257
 50 651 l 257
 50 793 l 257
 110 925 l 257
 168 921 l 257
 159 793 l 257
 202 793 l 257
EndSplineSet
EndChar

StartChar: quotedblright
Encoding: 1819 8221 1819
GlifName: quotedblright
Width: 452
VWidth: 0
GlyphClass: 2
Flags: W
LayerCount: 2
Fore
SplineSet
250 783 m 257
 250 925 l 257
 402 925 l 257
 402 783 l 257
 342 651 l 257
 284 655 l 257
 293 783 l 257
 250 783 l 257
50 783 m 257
 50 925 l 257
 202 925 l 257
 202 783 l 257
 142 651 l 257
 84 655 l 257
 93 783 l 257
 50 783 l 257
EndSplineSet
EndChar

StartChar: quotedblbase
Encoding: 1820 8222 1820
GlifName: quotedblbase
Width: 452
VWidth: 0
GlyphClass: 2
Flags: W
LayerCount: 2
Fore
SplineSet
250 0 m 257
 250 142 l 257
 402 142 l 257
 402 0 l 257
 342 -132 l 257
 284 -128 l 257
 293 0 l 257
 250 0 l 257
50 0 m 257
 50 142 l 257
 202 142 l 257
 202 0 l 257
 142 -132 l 257
 84 -128 l 257
 93 0 l 257
 50 0 l 257
EndSplineSet
EndChar

StartChar: guilsinglleft
Encoding: 1834 8249 1834
GlifName: guilsinglleft
Width: 644
VWidth: 0
GlyphClass: 2
Flags: W
LayerCount: 2
Fore
SplineSet
594 669 m 257
 594 517 l 257
 206 338 l 257
 594 168 l 257
 594 16 l 257
 50 250 l 257
 50 251 l 257
 50 402 l 257
 50 403 l 257
 594 669 l 257
EndSplineSet
EndChar

StartChar: guilsinglright
Encoding: 1838 8250 1838
GlifName: guilsinglright
Width: 644
VWidth: 0
GlyphClass: 2
Flags: W
LayerCount: 2
Fore
SplineSet
50 16 m 257
 50 168 l 257
 438 347 l 257
 50 517 l 257
 50 669 l 257
 594 435 l 257
 594 434 l 257
 594 283 l 257
 594 282 l 257
 50 16 l 257
EndSplineSet
EndChar

StartChar: bullet
Encoding: 1842 8226 1842
GlifName: bullet
Width: 252
VWidth: 0
GlyphClass: 2
Flags: W
LayerCount: 2
Fore
SplineSet
22.0557 472.535 m 257
 122.465 572.944 l 257
 229.944 465.465 l 257
 129.535 365.056 l 257
 22.0557 472.535 l 257
EndSplineSet
EndChar

StartChar: u09B0_u09CD.rphf
Encoding: 1854 -1 1854
GlifName: u09B_0_u09C_D_.rphf
Width: 0
VWidth: 0
GlyphClass: 4
Flags: W
LayerCount: 2
Fore
SplineSet
-141 1160 m 257
 -8 1160 l 257
 -239 802 l 257
 -365 801 l 257
 -141 1160 l 257
EndSplineSet
Ligature2: "rphfRephForminBengali2lookup0 subtable" u09F0 u09CD
Ligature2: "rphfRephForminBengali2lookup0 subtable" u09B0 u09CD
EndChar

